<?xml version="1.0" standalone="no"?>
<!DOCTYPE svg PUBLIC "-//W3C//DTD SVG 1.1//EN" "http://www.w3.org/Graphics/SVG/1.1/DTD/svg11.dtd" >
<svg xmlns="http://www.w3.org/2000/svg" xmlns:xlink="http://www.w3.org/1999/xlink" version="1.1">
<metadata></metadata>
<defs>
<font id="exo_2medium" horiz-adv-x="1171" >
<font-face units-per-em="2048" ascent="1638" descent="-410" />
<missing-glyph horiz-adv-x="454" />
<glyph unicode=" "  horiz-adv-x="454" />
<glyph unicode="&#x09;" horiz-adv-x="454" />
<glyph unicode="&#xa0;" horiz-adv-x="454" />
<glyph unicode="!" horiz-adv-x="567" d="M383 811l-21 -375h-157l-21 375v612h199v-612zM260 254h49q40 0 57 -16.5t17 -55.5v-108q0 -41 -17 -57.5t-57 -16.5h-49q-40 0 -56 16.5t-16 57.5v108q0 40 16 56t56 16z" />
<glyph unicode="&#x22;" horiz-adv-x="733" d="M285 971h-135l-13 442h160zM586 971h-135l-13 442h160z" />
<glyph unicode="#" horiz-adv-x="1409" d="M1075 909l-61 -354h223l-25 -125h-219l-75 -430h-158l76 430h-357l-76 -430h-157l76 430h-238l25 125h233l61 354h-233l25 125h231l66 379h157l-65 -379h356l66 379h157l-65 -379h225l-25 -125h-223zM918 909h-357l-61 -354h356z" />
<glyph unicode="$" horiz-adv-x="1157" d="M653 799l117 -33q158 -43 222.5 -139t64.5 -262q0 -98 -18.5 -166t-53 -112t-95.5 -68.5t-134.5 -34t-182.5 -9.5l-18 -231h-104l18 233q-172 8 -338 39l14 158q261 -6 340 -8l37 461l-129 37q-151 42 -215.5 138.5t-64.5 262.5q0 98 19 165t52 108t93.5 63t128.5 29.5 t172 7.5h20l16 196h103l-15 -198q183 -11 302 -41l-13 -150q-166 7 -303 10zM319 1059q0 -71 19 -113.5t54 -63.5t100 -38l59 -17l33 428q-65 0 -100.5 -2.5t-72.5 -13t-54 -31.5t-27.5 -57t-10.5 -92zM623 600l-35 -434q154 0 207 39t53 162q0 57 -9 94t-32 61t-51 36.5 t-76 25.5z" />
<glyph unicode="%" horiz-adv-x="1835" d="M424 1440q185 0 259.5 -95.5t74.5 -324.5q0 -228 -75 -324t-259 -96t-259 96t-75 324q0 229 74.5 324.5t259.5 95.5zM532 0h-139l903 1413h140zM422 1317q-102 0 -141 -65t-39 -232q0 -168 39 -232.5t141 -64.5q105 0 143.5 64t38.5 233q0 168 -38.5 232.5t-143.5 64.5z M1411 819q183 0 257.5 -96t74.5 -324q0 -229 -74.5 -324t-257.5 -95q-185 0 -259.5 95t-74.5 324q0 228 75 324t259 96zM1409 694q-104 0 -142.5 -63t-37.5 -232q-2 -168 37 -232.5t143 -64.5t143 64.5t39 232.5q0 169 -39 232t-143 63z" />
<glyph unicode="&#x26;" horiz-adv-x="1576" d="M1460 154l23 -146q-91 -26 -223 -26q-104 0 -167.5 44t-82.5 126q-89 -95 -195.5 -135t-267.5 -40q-226 0 -321 85t-95 296q0 170 64.5 264t214.5 107v8q-128 12 -183 92t-55 238q0 70 10.5 123.5t29.5 93t53.5 66.5t73.5 44t99 26t122 12.5t149 3.5q183 0 327 -23 l-24 -153q-86 6 -310 6q-79 0 -128 -5t-89.5 -18t-61.5 -39t-31.5 -65.5t-10.5 -100.5q0 -135 55 -182t203 -47h369l16 252h166v-252h252l-2 -156h-250v-370q0 -71 28 -100t97 -29h145zM598 156q257 3 406 149v348h-377q-159 0 -219 -54.5t-60 -205.5q0 -137 52.5 -187 t197.5 -50z" />
<glyph unicode="'" horiz-adv-x="432" d="M285 971h-135l-13 442h160z" />
<glyph unicode="(" horiz-adv-x="737" d="M653 1618l25 -92q-198 -95 -289.5 -314t-91.5 -571q0 -346 91.5 -566t289.5 -321l-25 -92q-284 105 -416.5 342.5t-132.5 634.5q0 400 132.5 637.5t416.5 341.5z" />
<glyph unicode=")" horiz-adv-x="737" d="M59 1526l25 92q284 -104 417.5 -342t133.5 -637q0 -397 -133.5 -634t-417.5 -343l-25 92q198 101 289.5 321t91.5 566q0 352 -91.5 571t-289.5 314z" />
<glyph unicode="*" horiz-adv-x="921" d="M500 1083l209 -264l-95 -69l-155 254l-154 -252l-96 69l209 262l-17 332h119zM383 1141l-2 -51l-25 -33l-254 67l39 111zM817 1122l-254 -65l-26 33v51l243 94z" />
<glyph unicode="+" horiz-adv-x="1126" d="M1014 539h-377v-357h-150v357h-376v147h374v358h154v-358h375v-147z" />
<glyph unicode="," horiz-adv-x="475" d="M211 254h57q39 0 54.5 -16t15.5 -56v-131q-3 -181 -78 -325l-94 24q22 115 22 250q-26 0 -40.5 17t-14.5 46v119q3 40 20.5 56t57.5 16z" />
<glyph unicode="-" horiz-adv-x="905" d="M764 442h-623v152h623v-152z" />
<glyph unicode="." horiz-adv-x="477" d="M207 254h63q41 0 57.5 -16t16.5 -56v-108q0 -41 -16.5 -57.5t-57.5 -16.5h-63q-41 0 -57.5 16.5t-16.5 57.5v108q0 40 16.5 56t57.5 16z" />
<glyph unicode="/" horiz-adv-x="1069" d="M213 -137h-162l805 1550h162z" />
<glyph unicode="0" horiz-adv-x="1243" d="M621 1440q139 0 233 -40.5t152.5 -131.5t84 -226.5t25.5 -334.5q0 -159 -16 -276.5t-51.5 -206t-94 -143t-140.5 -81.5t-193 -27q-273 0 -384.5 169.5t-111.5 564.5t111.5 564t384.5 169zM618 1262q-112 0 -175 -55t-90 -173.5t-27 -326.5t27 -326.5t90 -173.5t175 -55 q169 0 234.5 123.5t65.5 431.5t-65.5 431.5t-234.5 123.5z" />
<glyph unicode="1" horiz-adv-x="823" d="M600 0h-205v1094q0 68 11 127l-340 -105l-25 154l354 143h205v-1413z" />
<glyph unicode="2" horiz-adv-x="1153" d="M559 1438q86 0 149.5 -7.5t120.5 -27.5t92 -54.5t55.5 -89.5t20.5 -131q0 -131 -53 -240.5t-192 -264.5l-394 -433q108 9 226 9h463v-199h-936v129q0 56 30 86l394 444q135 146 197 254t59 203q-3 87 -61 114t-189 27q-194 0 -408 -30l-12 159q233 52 438 52z" />
<glyph unicode="3" horiz-adv-x="1140" d="M532 1440q236 0 338.5 -72.5t102.5 -255.5q0 -151 -46.5 -242.5t-160.5 -113.5v-8q132 -22 186.5 -110t57.5 -245q3 -220 -100.5 -320t-352.5 -100q-188 0 -453 37l13 166q238 -20 389 -20q166 0 233.5 57t67.5 203q0 61 -11 103t-39 76t-81.5 50.5t-134.5 16.5h-260v159 h260q62 1 106.5 14.5t69 34t38.5 54t17.5 64t3.5 75.5q-2 65 -14.5 103.5t-47 59.5t-81.5 27.5t-131 6.5q-157 0 -361 -17l-14 160q209 37 405 37z" />
<glyph unicode="4" horiz-adv-x="1267" d="M1182 502v-146l-185 -20v-336h-194v336h-567q-93 0 -137 72.5t-7 158.5l391 846h201l-381 -831q-17 -40 -2.5 -60t51.5 -20h451v409l37 230h157v-639h185z" />
<glyph unicode="5" horiz-adv-x="1101" d="M942 1237h-586l-20 -352l160 -15q272 -23 384 -123.5t111 -322.5q0 -74 -10.5 -134t-41 -120.5t-80 -101.5t-133.5 -67t-196 -26q-198 0 -430 52l25 166q190 -35 356 -35q95 0 156.5 16t94 52t45 81.5t14.5 116.5q1 37 -1 67t-11.5 55t-17.5 43.5t-29.5 34t-36 26t-50 19 t-57.5 13.5t-71.5 10.5t-80.5 8.5t-96 8l-107 10q-34 2 -55 26.5t-20 61.5l32 606h760z" />
<glyph unicode="6" horiz-adv-x="1175" d="M678 926q222 0 305.5 -102.5t83.5 -360.5q0 -95 -10 -164t-39 -133.5t-78.5 -104t-131 -63t-194.5 -23.5q-103 0 -176 13.5t-128 48.5t-88.5 85.5t-54.5 133.5t-28.5 182t-7.5 242q0 123 8 221t26 174.5t42 133t61 97t77 66t95.5 40.5t112.5 20.5t131 5.5q176 0 293 -31 l-16 -150q-107 7 -277 7q-98 0 -157 -16.5t-104 -67.5t-64.5 -144.5t-24.5 -247.5q71 77 149.5 107.5t194.5 30.5zM616 152q67 0 113.5 13.5t74.5 36.5t43 64.5t20 85.5t5 111q0 166 -51.5 231.5t-195.5 65.5q-83 0 -148 -25.5t-145 -91.5q0 -79 2 -131.5t7 -106.5t13 -86.5 t23 -64t35.5 -48.5t50 -30.5t66.5 -18.5t87 -5z" />
<glyph unicode="7" horiz-adv-x="1052" d="M76 1413h805q66 0 92.5 -35.5t7.5 -97.5l-436 -1280h-205l387 1130q20 62 47 109h-690z" />
<glyph unicode="8" horiz-adv-x="1243" d="M621 1436q137 -1 225 -22t139 -69.5t70.5 -115t19.5 -168.5q0 -142 -49 -227t-152 -97v-8q127 -13 180.5 -108.5t53.5 -268.5q0 -101 -21 -167t-75 -114.5t-149 -70.5t-242 -23q-144 -1 -239 21t-149.5 70.5t-76 116t-21.5 167.5q0 174 53 269t181 108v8q-103 12 -152 97 t-49 227q0 102 20 169t70.5 115t139 69.5t223.5 21.5zM623 1270q-110 0 -167.5 -22t-79.5 -69.5t-22 -138.5q0 -135 53.5 -180t217.5 -45q86 0 136 9.5t79.5 37t39 67.5t9.5 111q0 68 -10.5 109.5t-40.5 70t-81 39.5t-134 11zM625 651q-93 -1 -148 -12t-90 -41t-47 -76.5 t-12 -124.5q0 -141 59.5 -192t235.5 -51q120 0 181.5 23.5t84 73.5t22.5 146q0 80 -11.5 126.5t-44.5 76.5t-86.5 40.5t-143.5 10.5z" />
<glyph unicode="9" horiz-adv-x="1175" d="M567 1438q79 0 139.5 -8t109 -27.5t83 -46t60 -71.5t41 -95t24.5 -125t12.5 -154t3.5 -188q-1 -158 -14 -274t-43 -199.5t-71 -136.5t-106 -84t-139.5 -42.5t-179.5 -11.5q-184 0 -313 31l16 152q98 -6 295 -6q81 0 135.5 13t97.5 44t67.5 87t38 137t16.5 200 q-72 -82 -150.5 -114t-197.5 -32q-383 0 -383 461q-2 254 103.5 372t354.5 118zM547 651q82 0 146.5 26.5t148.5 96.5q0 80 -1.5 131t-6.5 105.5t-13 86.5t-22.5 64t-34 49t-48.5 30.5t-65.5 18.5t-85.5 5q-81 0 -134 -19.5t-81 -62.5t-38 -97.5t-9 -136.5 q-2 -153 51.5 -225t192.5 -72z" />
<glyph unicode=":" horiz-adv-x="495" d="M207 905h65q41 0 57.5 -15.5t16.5 -55.5v-111q0 -40 -16.5 -56t-57.5 -16h-65q-40 0 -56 16t-16 56v111q0 40 16 55.5t56 15.5zM207 254h65q41 0 57.5 -16t16.5 -56v-108q0 -41 -16.5 -57.5t-57.5 -16.5h-65q-40 0 -56 16.5t-16 57.5v108q0 40 16 56t56 16z" />
<glyph unicode=";" horiz-adv-x="497" d="M219 905h64q41 0 57 -15.5t16 -55.5v-111q0 -40 -16 -56t-57 -16h-64q-41 0 -57.5 16t-16.5 56v111q0 40 16.5 55.5t57.5 15.5zM223 254h58q39 0 54 -16t15 -56v-131q-3 -181 -78 -325l-92 24q21 126 21 250q-26 0 -41 17t-15 46l2 119q1 40 18.5 56t57.5 16z" />
<glyph unicode="&#x3c;" horiz-adv-x="1081" d="M942 885l-668 -275l668 -268v-158l-838 348v156l838 354v-157z" />
<glyph unicode="=" horiz-adv-x="1198" d="M1051 743h-906v148h906v-148zM1051 311h-906v148h906v-148z" />
<glyph unicode="&#x3e;" horiz-adv-x="1081" d="M977 688v-156l-838 -348v158l668 268l-668 275v157z" />
<glyph unicode="?" horiz-adv-x="1032" d="M535 1458q210 0 313.5 -77.5t103.5 -239.5q0 -62 -19.5 -116.5t-51.5 -96.5t-70.5 -82.5t-77.5 -82.5t-71.5 -87.5t-54.5 -107t-25 -132.5h-168q-2 76 15 143t45.5 116t63 93t70 82t65 74t48.5 77.5t20 84.5q5 94 -55.5 139t-193.5 45q-198 0 -404 -18l-10 143 q21 3 75.5 12.5t78.5 13t73 8.5t103.5 7t126.5 2zM473 254h49q41 0 57.5 -16t16.5 -56v-108q0 -41 -16.5 -57.5t-57.5 -16.5h-49q-41 0 -57.5 16.5t-16.5 57.5v108q0 40 16.5 56t57.5 16z" />
<glyph unicode="@" horiz-adv-x="1480" d="M725 1204h297q157 0 236 -70.5t79 -230.5v-633h-147l-21 154q-63 -66 -170 -118t-223 -52q-124 0 -197 64.5t-73 185.5v102q0 102 59.5 157.5t175.5 55.5h410v78q0 82 -35.5 112.5t-132.5 30.5h-256q-99 0 -150.5 -3t-104 -20.5t-73 -45t-39 -87.5t-22.5 -135.5 t-4 -201.5q0 -99 2 -163.5t13.5 -122.5t21 -90.5t41 -59.5t56.5 -38.5t83.5 -19.5t107 -9t140.5 -1h534v-147q-334 -19 -532 -19q-117 -1 -197.5 2.5t-152.5 17.5t-116.5 33t-81.5 58.5t-56 84t-32 119t-16.5 155t-3.5 200.5q0 93 2 159.5t8.5 130.5t16 107t28 83t40 64.5 t57 46.5t74 33t95 19t117 11t142.5 3zM1151 698l-340 -8q-69 -3 -95 -26t-26 -82v-43q0 -68 31.5 -97.5t93.5 -29.5q85 0 179 33.5t157 93.5v159z" />
<glyph unicode="A" horiz-adv-x="1282" d="M922 426h-564l-131 -426h-209l443 1358q16 55 76 55h208q27 0 47.5 -14.5t26.5 -40.5l445 -1358h-211zM866 604l-164 537q-5 19 -17 57.5t-17 56.5h-56l-32 -114l-166 -537h452z" />
<glyph unicode="B" horiz-adv-x="1273" d="M877 737v-8q153 -13 217.5 -106.5t64.5 -270.5q0 -110 -24.5 -180.5t-81 -112.5t-139 -58.5t-209.5 -16.5q-346 0 -533 16v1413q176 17 471 17q135 0 221.5 -16.5t145 -59t82.5 -113t24 -180.5q0 -154 -56.5 -233t-182.5 -91zM633 1255h-260v-444h286q148 0 204.5 46.5 t56.5 178.5q0 130 -61.5 174.5t-225.5 44.5zM373 160l301 -2q161 0 219.5 46t58.5 183q0 155 -61.5 209.5t-228.5 56.5h-289v-493z" />
<glyph unicode="C" d="M680 1438q131 0 214.5 -9t176.5 -32l-20 -158q-164 16 -371 16q-132 0 -205.5 -51t-106 -168.5t-32.5 -328.5q0 -127 11 -217t35 -155.5t65 -103.5t97 -55.5t136 -17.5q258 0 399 22l21 -155q-173 -50 -420 -50q-209 0 -329.5 71.5t-175 229.5t-54.5 431q0 205 29 342 t96.5 225t172 126t261.5 38z" />
<glyph unicode="D" horiz-adv-x="1361" d="M682 1432q105 0 184.5 -15.5t143 -50.5t106.5 -90t71.5 -137t41 -187.5t12.5 -244.5t-12.5 -244.5t-41 -187.5t-71.5 -137t-106.5 -90t-143 -50.5t-184.5 -15.5q-240 0 -510 18v1413q285 19 510 19zM682 160q99 0 163 27t104.5 92.5t57.5 167.5t17 260q0 209 -32.5 326 t-105.5 168.5t-204 51.5q-125 0 -305 -4v-1085q176 -4 305 -4z" />
<glyph unicode="E" horiz-adv-x="1150" d="M1040 170l11 -158q-186 -16 -607 -16q-131 0 -206.5 68t-77.5 186v913q2 117 78 185.5t206 68.5q421 0 607 -16l-11 -160h-561q-62 0 -87 -29.5t-25 -101.5v-283h596v-165h-596v-361q0 -72 25 -101.5t87 -29.5h561z" />
<glyph unicode="F" horiz-adv-x="1105" d="M1028 1241h-524q-71 0 -101 -29.5t-30 -101.5v-305h577v-166l-577 -2v-637h-205v1153q0 125 76.5 194.5t208.5 69.5q405 0 585 -18z" />
<glyph unicode="G" horiz-adv-x="1288" d="M1155 815v-815h-151l-21 141q-181 -168 -420 -168q-233 0 -337.5 178t-104.5 562q0 172 20.5 293t63 206.5t115.5 134.5t169.5 71t233.5 22q222 0 393 -43l-20 -156q-172 16 -361 16q-79 0 -132.5 -7.5t-101 -29t-76 -59.5t-49.5 -101t-29.5 -150.5t-8.5 -211.5 q0 -305 62.5 -425.5t220.5 -120.5q92 0 168 32t165 92v539h201z" />
<glyph unicode="H" horiz-adv-x="1372" d="M1200 1413v-1413h-205v666h-618v-666h-205v1413h205v-571h618v571h205z" />
<glyph unicode="I" horiz-adv-x="548" d="M377 0h-205v1413h205v-1413z" />
<glyph unicode="J" horiz-adv-x="702" d="M537 1413v-1104q0 -161 -72 -245t-207 -82q-121 0 -201 26l23 148h100q152 0 152 143v1114h205z" />
<glyph unicode="K" horiz-adv-x="1222" d="M524 653h-162q15 -92 15 -145v-508h-205v1413h205v-434q0 -83 -15 -160h160l416 594h223l-399 -577q-35 -51 -86 -99v-6q57 -49 98 -106l414 -625h-227z" />
<glyph unicode="L" horiz-adv-x="1054" d="M373 1413v-1110q0 -72 29 -101.5t100 -29.5h502l10 -158q-198 -18 -545 -18q-301 0 -301 278v1139h205z" />
<glyph unicode="M" horiz-adv-x="1804" d="M1296 1413h224q39 0 60.5 -22t23.5 -62l57 -1329h-205l-49 1243h-41l-287 -1005q-18 -70 -88 -70h-178q-72 0 -90 70l-289 1005h-39l-47 -1243h-203l54 1329q2 40 23.5 62t60.5 22h227q64 0 86 -70l240 -827q26 -95 47 -190h37q19 91 49 192l237 825q22 70 90 70z" />
<glyph unicode="N" horiz-adv-x="1449" d="M1278 1413v-1333q0 -80 -76 -80h-194q-62 0 -88 63l-441 963q-72 152 -84 197h-28q10 -83 10 -197v-1026h-205v1333q0 80 78 80h188q61 0 90 -63l428 -938q90 -189 99 -211h30q-10 123 -10 219v993h203z" />
<glyph unicode="O" horiz-adv-x="1370" d="M684 1440q213 0 334 -68.5t176 -226t55 -438.5t-55 -439t-176 -226.5t-334 -68.5q-212 0 -332.5 68.5t-175.5 227t-55 438.5q0 211 29 349t97 225t173 123t264 36zM684 1257q-101 0 -166 -26.5t-106.5 -92t-58.5 -168.5t-17 -263q0 -213 32.5 -330.5t107 -169 t208.5 -51.5q135 0 210 51.5t107.5 169t32.5 330.5q0 160 -17 263t-58.5 168.5t-107 92t-167.5 26.5z" />
<glyph unicode="P" horiz-adv-x="1212" d="M664 1432q134 0 219.5 -20.5t141.5 -73t78.5 -136.5t22.5 -217q0 -134 -22 -219t-76 -137t-134 -72t-206 -20q-153 0 -311 18v-555h-205v1413q185 19 492 19zM377 713h282q102 1 156.5 24.5t79.5 81t25 166.5q0 159 -55.5 214.5t-205.5 55.5q-204 0 -282 -2v-540z" />
<glyph unicode="Q" horiz-adv-x="1374" d="M686 1440q213 0 334 -68.5t176 -226t55 -438.5t-55 -439t-176 -226.5t-334 -68.5q-212 0 -333 68.5t-176.5 227t-55.5 438.5q0 211 29 349t98 225t173.5 123t264.5 36zM686 1257q-101 0 -166 -26.5t-106.5 -92t-58.5 -168.5t-17 -263q0 -213 32.5 -330.5t107 -169 t208.5 -51.5t209 51.5t108 169.5t33 330t-33 330t-107.5 169t-209.5 51zM545 -209l55 125q238 -94 559 -139l-65 -205q-261 56 -549 219z" />
<glyph unicode="R" horiz-adv-x="1269" d="M1184 0h-219l-121 440q-24 76 -67 109t-111 33l-291 2v-584h-203v1413q185 19 494 19q128 0 213.5 -19.5t144 -67t84 -126t25.5 -197.5q0 -169 -61 -255t-200 -105v-11q59 -17 108 -68t71 -137zM375 758h287q151 2 207.5 54.5t56.5 197.5q0 144 -56 194.5t-208 50.5 q-209 0 -287 -2v-495z" />
<glyph unicode="S" horiz-adv-x="1153" d="M573 1438q250 0 426 -43l-12 -150q-297 10 -405 10q-48 0 -76 -1t-60.5 -5t-50 -12t-35.5 -22t-26.5 -35t-13.5 -51t-5 -70q0 -104 37.5 -147t132.5 -68l281 -78q158 -43 222.5 -139t64.5 -262q0 -98 -18.5 -166t-52.5 -112t-95 -68.5t-134.5 -34t-181.5 -9.5 q-226 0 -444 41l14 152q320 -10 434 -10q83 1 130.5 8.5t81 30.5t45.5 63t12 107q0 57 -9.5 94t-32.5 61t-50.5 36.5t-75.5 25.5l-287 80q-151 42 -215.5 138.5t-64.5 262.5q0 82 11.5 141.5t38.5 101t61.5 67t91 39.5t116 19t145.5 5z" />
<glyph unicode="T" horiz-adv-x="1196" d="M1149 1231h-449v-1231h-206v1231h-445v182h1100v-182z" />
<glyph unicode="U" horiz-adv-x="1363" d="M1202 1413v-868q0 -311 -116 -441.5t-396 -130.5q-289 0 -408.5 130t-119.5 442v868h205v-868q0 -218 69 -303.5t246 -85.5q174 0 244.5 86t70.5 303v868h205z" />
<glyph unicode="V" horiz-adv-x="1253" d="M1223 1413l-418 -1356q-8 -25 -29.5 -41t-48.5 -16h-201q-27 0 -48 16t-29 41l-418 1356h211l319 -1100q18 -64 39 -155h55q9 45 39 155l318 1100h211z" />
<glyph unicode="W" horiz-adv-x="1947" d="M1886 1413l-270 -1354q-8 -27 -29 -43t-51 -16h-227q-30 0 -52 16.5t-28 44.5l-205 1039q-24 129 -29 160h-43q-3 -18 -9 -51t-11 -59.5t-10 -49.5l-203 -1039q-4 -27 -27 -44t-53 -17h-229q-29 0 -50.5 16.5t-27.5 42.5l-271 1354h218l202 -1077q10 -52 25 -180h47 q9 77 31 180l202 1010q6 30 27 48.5t51 18.5h219q29 0 50.5 -18.5t27.5 -48.5l201 -1012q19 -95 31 -178h47q5 28 13 88t13 88l203 1081h217z" />
<glyph unicode="X" horiz-adv-x="1259" d="M653 655h-49l-336 -655h-223l389 731l-362 682h221l309 -602h53l310 602h221l-363 -682l389 -731h-223z" />
<glyph unicode="Y" horiz-adv-x="1175" d="M690 489v-489h-205v494l-467 919h218l284 -579q21 -42 62 -164h14q42 124 61 161l285 582h213z" />
<glyph unicode="Z" horiz-adv-x="1163" d="M1067 174v-174h-969v174l729 1065h-718v174h944v-174l-729 -1065h743z" />
<glyph unicode="[" horiz-adv-x="679" d="M598 1444h-199q-13 0 -21.5 -9.5t-8.5 -23.5v-1587q0 -14 8.5 -23.5t21.5 -9.5h199v-129h-297q-119 0 -119 119v1673q0 52 33 85.5t86 33.5h297v-129z" />
<glyph unicode="\" horiz-adv-x="1071" d="M1020 -137h-164l-805 1550h164z" />
<glyph unicode="]" horiz-adv-x="679" d="M82 1573h297q53 0 86 -33.5t33 -85.5v-1673q0 -53 -33 -86t-86 -33h-297v129h197q15 0 23.5 9.5t8.5 23.5v1587q0 14 -8.5 23.5t-23.5 9.5h-197v129z" />
<glyph unicode="^" horiz-adv-x="886" d="M825 803l-80 -49l-292 354h-17l-295 -354l-80 49l312 436h143z" />
<glyph unicode="_" horiz-adv-x="1179" d="M1038 -150h-897v150h897v-150z" />
<glyph unicode="`" horiz-adv-x="659" d="M524 1188l-65 -92l-408 239l111 152z" />
<glyph unicode="a" horiz-adv-x="1128" d="M629 1026q181 0 267.5 -74t86.5 -256v-696h-156l-22 158q-69 -70 -172.5 -123t-226.5 -53q-139 0 -222.5 74t-83.5 208v105q0 120 74 184.5t209 64.5h401v78q-2 93 -43 127.5t-155 34.5q-112 0 -424 -24l-19 145q265 47 486 47zM301 342v-53q0 -73 35 -106t110 -33 t166.5 35t171.5 106v178h-364q-66 -3 -92.5 -34.5t-26.5 -92.5z" />
<glyph unicode="b" horiz-adv-x="1173" d="M705 1026q187 0 274.5 -122.5t87.5 -399.5q0 -132 -21.5 -225.5t-72 -164t-139 -105t-218.5 -34.5q-111 0 -241.5 19t-224.5 53v1387h198v-359q0 -137 -20 -227q169 178 377 178zM612 141q136 2 192.5 82t57.5 281q-1 103 -10 165.5t-34.5 106.5t-69 61t-113.5 17 q-69 0 -131.5 -33t-157.5 -106l2 -543q134 -34 264 -31z" />
<glyph unicode="c" horiz-adv-x="1005" d="M584 1026q200 0 331 -51l-26 -127q-153 10 -271 10q-117 0 -181 -31.5t-94 -108.5t-30 -218t30 -218t94 -109t181 -32q162 0 295 23l19 -133q-151 -56 -348 -56q-263 0 -370.5 118t-107.5 407t108 407.5t370 118.5z" />
<glyph unicode="d" horiz-adv-x="1177" d="M1024 1434v-1434h-156l-16 137q-188 -162 -393 -162q-184 0 -267 132t-83 397q0 194 43 310t124.5 164t212.5 48q189 0 345 -90q-9 99 -9 197v301h199zM313 506q0 -142 22.5 -220.5t67 -108.5t123.5 -30q75 0 134 26.5t165 98.5v533q-98 26 -158.5 37.5t-127.5 11.5 q-86 0 -132.5 -27.5t-70 -103t-23.5 -217.5z" />
<glyph unicode="e" horiz-adv-x="1103" d="M614 141q124 0 351 25l18 -131q-68 -30 -180.5 -45t-214.5 -15q-262 0 -372 119.5t-110 407.5q0 197 49.5 312t148.5 163.5t265 48.5q229 0 334 -84t105 -252q0 -138 -60.5 -212.5t-183.5 -74.5h-449q7 -81 27 -132.5t58.5 -80t87.5 -39t126 -10.5zM580 858 q-101 0 -156 -26t-82 -90.5t-31 -184.5h400q98 0 98 133q-2 92 -52.5 130t-176.5 38z" />
<glyph unicode="f" horiz-adv-x="788" d="M805 1307h-203q-93 0 -130.5 -35.5t-37.5 -120.5v-152h309v-153h-309v-846h-198v846h-181v143l181 10v175q0 146 69 220t227 74q193 0 289 -14z" />
<glyph unicode="g" horiz-adv-x="1148" d="M1096 893l-142 -14q35 -63 35 -174q0 -171 -97 -245.5t-337 -74.5q-114 0 -199 16q-19 -30 -21 -62.5t19.5 -59t65.5 -33.5l368 -58q142 -21 202.5 -88.5t60.5 -195.5q0 -91 -24 -150t-82 -96t-148 -52.5t-230 -15.5q-276 0 -382.5 67t-106.5 241q0 82 37 132.5t123 96.5 q-71 62 -63.5 160t77.5 151q-69 36 -100 100.5t-31 163.5q0 176 96 250t340 74q149 0 240 -27h309zM555 535q140 0 195 38.5t55 131.5q0 95 -54.5 132t-195.5 37q-143 0 -198.5 -37t-55.5 -132q0 -93 56.5 -131.5t197.5 -38.5zM856 -86q0 70 -31 91.5t-139 37.5l-321 41 q-49 -41 -72 -79t-23 -91q0 -52 11.5 -81.5t47.5 -47t88.5 -22.5t147.5 -5q176 0 233.5 30t57.5 126z" />
<glyph unicode="h" horiz-adv-x="1193" d="M776 1026q131 0 201 -71t70 -205v-750h-199v692q0 94 -28 130t-99 36q-79 0 -161.5 -34.5t-207.5 -112.5v-711h-198v1434h198l2 -387q0 -121 -14 -195q238 174 436 174z" />
<glyph unicode="i" horiz-adv-x="520" d="M213 1425h94q58 0 58 -57v-115q0 -59 -58 -59h-94q-57 0 -57 59v115q0 57 57 57zM358 0h-196v999h196v-999z" />
<glyph unicode="j" horiz-adv-x="524" d="M217 1425h94q58 0 58 -57v-115q0 -59 -58 -59h-94q-59 0 -59 59v115q0 57 59 57zM362 999v-1009q0 -124 -54 -231t-148 -173l-111 86q60 75 87.5 150t27.5 168v1009h198z" />
<glyph unicode="k" horiz-adv-x="1058" d="M467 492h-125q10 -88 10 -156v-336h-198v1434h198l2 -629q0 -87 -12 -170h125l299 364h229l-301 -362q-26 -37 -73 -74v-4q39 -31 73 -86l334 -473h-229z" />
<glyph unicode="l" horiz-adv-x="618" d="M354 1434l-2 -1145q0 -127 131 -127h92l23 -154q-28 -12 -86 -19t-104 -7q-117 0 -184.5 68t-67.5 194v1190h198z" />
<glyph unicode="m" horiz-adv-x="1792" d="M1376 1026q131 0 200 -70.5t69 -205.5v-750h-195v692q-2 89 -34.5 127.5t-110.5 38.5q-68 0 -129.5 -30.5t-180.5 -116.5v-711h-190v692q0 90 -35 128t-111 38q-66 0 -127.5 -30t-181.5 -115v-713h-196v999h163l11 -151q206 178 401 178q204 0 254 -174q198 174 393 174z " />
<glyph unicode="n" horiz-adv-x="1193" d="M776 1026q132 0 201.5 -70.5t69.5 -205.5v-750h-199v692q0 94 -28 130t-99 36q-78 0 -157.5 -34.5t-213.5 -114.5l2 -709h-198v999h168l12 -151q236 178 442 178z" />
<glyph unicode="o" horiz-adv-x="1167" d="M584 1026q261 0 369 -120t108 -408q0 -286 -108 -405.5t-369 -119.5t-369.5 119.5t-108.5 405.5q0 288 108.5 408t369.5 120zM584 858q-156 0 -213.5 -75t-57.5 -285q0 -207 57.5 -283t213.5 -76q155 0 212.5 76t57.5 283q0 210 -57 285t-213 75z" />
<glyph unicode="p" horiz-adv-x="1196" d="M748 1026q177 0 258 -134t81 -398q0 -191 -43 -306.5t-124.5 -164t-212.5 -48.5q-203 0 -363 101q9 -103 6 -203v-281h-196v1407h163l15 -153q77 81 192.5 130.5t223.5 49.5zM653 147q87 0 134.5 27.5t71.5 103.5t24 218q0 199 -46.5 278.5t-156.5 79.5q-75 0 -151 -34.5 t-179 -110.5v-508q12 -3 47 -12t47.5 -12t41 -9.5t44 -9t39 -6t43.5 -4.5t41 -1z" />
<glyph unicode="q" d="M563 1026q105 0 235.5 -19.5t223.5 -54.5v-1360h-197l-2 328q0 116 17 209q-187 -156 -389 -156q-174 0 -259.5 126.5t-85.5 398.5q0 133 21.5 226.5t72.5 163.5t141 104t222 34zM311 483q0 -180 43 -258t164 -78q78 0 143 29t164 96v555q-135 34 -264 31 q-96 -2 -148.5 -35t-77 -112.5t-24.5 -227.5z" />
<glyph unicode="r" horiz-adv-x="827" d="M795 1026l-23 -186h-61q-73 0 -149 -26.5t-210 -88.5v-725h-198v999h153l21 -153q225 180 420 180h47z" />
<glyph unicode="s" horiz-adv-x="1042" d="M494 1026q233 -4 426 -35l-17 -143q-313 10 -379 10h-61.5t-49.5 -1.5t-41.5 -4.5t-30 -8t-24 -13t-14.5 -20t-10 -27t-2 -36q0 -63 27.5 -85.5t101.5 -43.5l12 -3l283 -69q85 -22 133.5 -53.5t74 -86.5t25.5 -141q0 -74 -17 -125t-48.5 -83t-87 -50t-120.5 -24.5 t-161 -6.5q-210 0 -397 29l14 148q127 -11 342 -11q168 0 225.5 24t57.5 99q0 26 -7 44.5t-15.5 29.5t-30.5 21t-36.5 14.5t-47.5 13.5q-10 3 -15 4l-278 70q-124 32 -176 97t-52 188q0 165 89 222.5t307 55.5z" />
<glyph unicode="t" horiz-adv-x="794" d="M430 846v-557q0 -70 29.5 -98.5t101.5 -28.5h146l22 -154q-95 -26 -235 -26q-127 0 -194 72.5t-67 207.5v584h-182v143l182 10v293h197v-293h309v-153h-309z" />
<glyph unicode="u" d="M1018 999v-999h-158l-14 137q-221 -164 -426 -164q-134 0 -203.5 70.5t-69.5 206.5v749h199v-692q-1 -92 31 -128t112 -36q71 0 144.5 31t187.5 102v723h197z" />
<glyph unicode="v" horiz-adv-x="1093" d="M1061 999l-356 -950q-19 -49 -70 -49h-178q-52 0 -68 49l-356 950h211l233 -688q19 -60 55 -172h27q8 23 28 82t31 90l232 688h211z" />
<glyph unicode="w" horiz-adv-x="1691" d="M1645 999l-281 -944q-16 -55 -76 -55h-178q-28 0 -49 17t-27 46l-145 658q-26 139 -31 160h-24q-5 -27 -16.5 -80t-16.5 -80l-144 -658q-6 -29 -27 -46t-50 -17h-177q-60 0 -73 55l-283 944h205l192 -720q26 -110 31 -154h27q29 123 35 154l147 659q6 28 25.5 44.5 t48.5 16.5h178q28 0 48 -17t26 -46l145 -657q4 -23 10 -48.5t13.5 -56.5t11.5 -49h27q14 94 30 154l193 720h205z" />
<glyph unicode="x" horiz-adv-x="1091" d="M565 442h-39l-270 -442h-215l328 516l-303 483h213l243 -403h45l244 403h213l-301 -483l328 -516h-215z" />
<glyph unicode="y" horiz-adv-x="1091" d="M1057 999l-387 -1046q-141 -368 -459 -373l-21 131q117 35 185 96t108 156l15 37h-41q-58 0 -70 51l-354 948h213l248 -727q23 -65 34 -122h29q29 84 41 122l246 727h213z" />
<glyph unicode="z" horiz-adv-x="1048" d="M950 162v-162h-852v162l625 676h-617v161h836v-161l-623 -676h631z" />
<glyph unicode="{" horiz-adv-x="661" d="M575 1573v-125q-102 0 -140 -36.5t-38 -129.5v-354q2 -128 -37 -181t-151 -75q114 -35 154.5 -87t42.5 -161v-473q0 -92 37.5 -128t140.5 -36v-125q-369 -32 -369 275v518q0 69 -22 92.5t-90 49.5q-8 3 -13 5v139q5 2 14 5q63 20 78 35q24 35 25 116v401q0 307 368 275z " />
<glyph unicode="|" horiz-adv-x="509" d="M326 -346h-144v1945h144v-1945z" />
<glyph unicode="}" horiz-adv-x="663" d="M88 1448v125q192 17 280.5 -54t88.5 -221v-401q0 -60 9.5 -87.5t27 -38t66.5 -26.5q2 -1 4 -1.5t4.5 -1t4.5 -1.5v-139q-73 -29 -89 -43q-35 -29 -35 -104v-518q0 -150 -88.5 -221t-280.5 -54v125q103 0 140.5 36t37.5 128v473q2 109 42.5 161t154.5 87 q-112 22 -151.5 75t-37.5 181v354q0 93 -38 129.5t-140 36.5z" />
<glyph unicode="~" horiz-adv-x="1071" d="M311 719q74 -3 221 -57.5t199 -59.5q52 -6 70 18.5t18 88.5h103q15 -125 -30.5 -191.5t-129.5 -60.5q-85 3 -229.5 56t-192.5 58q-52 6 -69 -19t-17 -91h-100q-16 128 29.5 194.5t127.5 63.5z" />
<glyph unicode="&#xa1;" horiz-adv-x="534" d="M244 1016h49q39 0 55.5 -17t16.5 -57v-111q0 -40 -16 -55.5t-56 -15.5h-49q-40 0 -57 16t-17 55v111q0 40 17 57t57 17zM367 205v-602h-199v602l20 375h158z" />
<glyph unicode="&#xa2;" horiz-adv-x="1040" d="M911 377l19 -133q-141 -51 -322 -54l-20 -190h-101l19 193q-219 15 -310.5 134.5t-91.5 387.5q0 288 108.5 406t371.5 118h16l16 174h103l-17 -180q133 -11 211 -43l-24 -133q-102 12 -203 12l-63 -713q157 0 288 21zM301 715q0 -179 49.5 -258.5t171.5 -94.5l60 709 q-158 -6 -219.5 -83.5t-61.5 -272.5z" />
<glyph unicode="&#xa3;" horiz-adv-x="1169" d="M1067 176v-176h-944v176q99 46 132.5 139.5t25.5 231.5l-9 139h-159v115h153l-14 264q-5 94 10.5 161t45.5 108t82.5 64.5t111.5 31.5t143 8q152 0 377 -21l-12 -164q-182 7 -361 7q-118 0 -160.5 -41.5t-35.5 -157.5l16 -260h418l-6 -115h-406l8 -139q7 -142 -26 -226.5 t-119 -154.5q47 10 139 10h590z" />
<glyph unicode="&#xa4;" horiz-adv-x="1212" d="M993 246l-149 149q-104 -80 -238 -80t-239 78l-146 -145l-92 92l145 145q-73 106 -73 234q0 134 78 242l-144 145l86 86l144 -148q107 80 241 80q131 0 242 -80l147 148l84 -86l-147 -148q78 -108 78 -239q0 -133 -78 -238l149 -149zM606 434q114 -2 197.5 83.5 t83.5 203.5t-83.5 202.5t-197.5 84.5q-118 0 -202.5 -84t-84.5 -203t84.5 -203.5t202.5 -83.5z" />
<glyph unicode="&#xa5;" horiz-adv-x="1271" d="M813 668h283v-117h-344l-13 -23v-92h357v-117h-357v-319h-204v319h-347l-2 117h349v92l-13 23h-334l-4 117h277l-393 745h213l282 -553q14 -28 36.5 -84.5t31.5 -77.5h14q60 154 64 162l282 553h213z" />
<glyph unicode="&#xa6;" horiz-adv-x="514" d="M328 780h-144v819h144v-819zM328 -346h-144v819h144v-819z" />
<glyph unicode="&#xa7;" horiz-adv-x="1116" d="M535 1440q246 -4 446 -25l-12 -155q-179 12 -379 12q-55 1 -87.5 0t-68 -6.5t-54.5 -17t-32 -32t-14 -51.5q-1 -65 31.5 -104t99.5 -74l319 -180q99 -53 147.5 -124.5t51.5 -160.5t-22 -203h-144q11 133 -19 207t-124 127l-344 199q-52 30 -85.5 56t-63.5 63t-44 86 t-14 112q0 83 26 137t82 83t127 40t177 11zM156 784h143q-9 -135 20 -206t125 -125l344 -197q50 -29 84 -56t64 -64.5t44.5 -87.5t14.5 -114q0 -71 -19.5 -121t-52 -79.5t-88 -45.5t-112 -21t-139.5 -5q-251 4 -449 25l17 155q192 -12 380 -14q39 0 62 0.5t53 3t47 7 t36 12.5t28.5 20t16.5 29.5t7 40.5q3 44 -15 79.5t-43 56t-67 44.5l-321 178q-99 52 -147.5 122t-52.5 159t20 204z" />
<glyph unicode="&#xa8;" horiz-adv-x="845" d="M211 1427h65q54 0 54 -55v-110q0 -56 -54 -56h-65q-53 0 -53 56v110q0 55 53 55zM573 1427h66q26 0 40.5 -15t14.5 -40v-110q0 -56 -55 -56h-66q-53 0 -53 56v110q0 55 53 55z" />
<glyph unicode="&#xa9;" horiz-adv-x="1703" d="M852 1440q204 0 372.5 -93.5t266.5 -262t98 -377.5q0 -157 -57.5 -294t-156 -233t-234.5 -151.5t-289 -55.5q-152 0 -288 55.5t-234.5 151.5t-156.5 233t-58 294q0 209 98.5 377.5t267 262t371.5 93.5zM852 1335q-128 0 -243.5 -47.5t-200.5 -130t-135 -200t-50 -250.5 t50 -250.5t135 -200t201 -130.5t243 -48q171 0 315 81t229 226t85 322t-85 322t-228.5 225.5t-315.5 80.5zM862 1157q158 0 277 -29l-17 -112q-117 8 -262 8q-138 0 -191 -67.5t-53 -245.5t53 -246t191 -68q176 0 285 13l14 -113q-121 -33 -297 -33q-220 0 -309.5 100.5 t-89.5 346.5t89.5 346t309.5 100z" />
<glyph unicode="&#xaa;" horiz-adv-x="903" d="M518 1247q121 0 181.5 -52t60.5 -175v-461h-119l-16 123q-52 -56 -128.5 -96.5t-166.5 -40.5q-93 0 -149 47t-56 133v78q0 77 51 121.5t143 44.5h291v51q0 50 -28 76t-95 26q-103 0 -315 -16l-16 111q210 30 362 30zM270 788v-30q0 -48 26 -67t81 -19q54 0 117 26.5 t116 67.5v119l-243 -19q-53 -3 -75 -22t-22 -56z" />
<glyph unicode="&#xab;" horiz-adv-x="1005" d="M520 874l-250 -360l252 -367l-104 -69l-330 414v45l328 405zM901 874l-250 -360l252 -367l-104 -69l-330 414v45l328 405z" />
<glyph unicode="&#xac;" horiz-adv-x="1208" d="M1051 684v-414h-150v265h-756v149h906z" />
<glyph unicode="&#xad;" horiz-adv-x="903" d="M762 442h-621v152h621v-152z" />
<glyph unicode="&#xae;" horiz-adv-x="1122" d="M561 1438q189 0 322 -133t133 -322q0 -190 -133 -323.5t-322 -133.5q-125 0 -230 61t-166 166t-61 230q0 189 133.5 322t323.5 133zM561 592q160 0 273.5 114.5t113.5 276.5q0 161 -113.5 275t-273.5 114t-273.5 -114t-113.5 -275q0 -162 113.5 -276.5t273.5 -114.5z M672 971v-4q27 -3 48.5 -22.5t31.5 -55.5l59 -164h-96l-53 160q-22 53 -82 53h-134v-213h-90v520q72 6 224 6q115 0 163 -32.5t48 -116.5q0 -60 -28 -92t-91 -39zM446 1004h132q69 2 95 20t25 68q1 54 -24.5 71t-95.5 17h-132v-176z" />
<glyph unicode="&#xaf;" horiz-adv-x="819" d="M698 1241h-577v145h577v-145z" />
<glyph unicode="&#xb0;" horiz-adv-x="735" d="M369 1440q108 0 188 -76.5t80 -183.5q0 -109 -79.5 -188t-188.5 -79q-110 0 -189.5 79t-79.5 188q0 106 78.5 183t190.5 77zM369 1321q-61 0 -102.5 -39.5t-41.5 -101.5q0 -64 41.5 -105t102.5 -41q60 0 101.5 41.5t41.5 104.5q0 62 -41 101.5t-102 39.5z" />
<glyph unicode="&#xb1;" horiz-adv-x="1200" d="M1053 813v-147h-379v-269h-150v269h-377v147h377v268h152v-268h377zM147 281h906v-148h-906v148z" />
<glyph unicode="&#xb2;" horiz-adv-x="888" d="M420 1599q84 0 137.5 -7.5t95.5 -28.5t61 -60.5t19 -101.5q0 -129 -164 -287l-250 -244q57 7 138 7l311 -3l-2 -137h-645v86q0 42 24 66l252 244q163 155 168 251q1 51 -36 67.5t-119 16.5q-134 0 -273 -14l-8 117q147 28 291 28z" />
<glyph unicode="&#xb3;" horiz-adv-x="849" d="M412 1602q170 0 236.5 -42.5t66.5 -154.5q0 -93 -34.5 -147.5t-121.5 -67.5v-4q97 -13 136.5 -65t41.5 -148q3 -132 -68.5 -192t-242.5 -60q-129 0 -309 22l8 115q133 -8 262 -8q108 0 150.5 31t42.5 112q0 60 -35.5 93.5t-134.5 33.5h-174v115l174 2q50 0 83 11t47 31.5 t18.5 39.5t4.5 47q0 63 -36.5 85t-139.5 22q-131 0 -246 -7l-8 113q158 23 279 23z" />
<glyph unicode="&#xb4;" horiz-adv-x="657" d="M584 1335l-408 -239l-65 92l362 299z" />
<glyph unicode="&#xb6;" horiz-adv-x="1214" d="M705 1438q191 0 315 -35v-1403h-148v1303q-126 8 -180 8v-1741h-147v842q-251 23 -360 141.5t-109 368.5q0 282 144.5 399t484.5 117z" />
<glyph unicode="&#xb7;" horiz-adv-x="495" d="M215 655h66q40 0 55.5 -15.5t15.5 -55.5v-111q0 -40 -15.5 -56t-55.5 -16h-66q-40 0 -57 16.5t-17 55.5v111q0 39 17 55t57 16z" />
<glyph unicode="&#xb8;" horiz-adv-x="483" d="M158 -178l20 92q135 13 190 -13.5t52 -119.5q-3 -134 -102.5 -204t-251.5 -50l32 104q78 -3 128.5 35t52.5 98q2 33 -22.5 45t-98.5 13z" />
<glyph unicode="&#xb9;" horiz-adv-x="606" d="M455 737h-154v627q0 55 6 84l-223 -57l-21 108l238 86h154v-848z" />
<glyph unicode="&#xba;" horiz-adv-x="907" d="M453 1247q189 0 264.5 -79.5t75.5 -274.5q0 -194 -75.5 -272t-264.5 -78q-187 0 -262.5 78t-75.5 272q0 195 75.5 274.5t262.5 79.5zM453 1124q-104 0 -144 -48.5t-41 -182.5q1 -132 41 -179.5t144 -47.5q105 0 144.5 47.5t39.5 179.5q0 134 -39.5 182.5t-144.5 48.5z " />
<glyph unicode="&#xbb;" horiz-adv-x="1005" d="M537 537v-45l-328 -414l-107 69l252 367l-250 360l107 68zM918 537v-45l-330 -414l-105 69l252 367l-250 360l105 68z" />
<glyph unicode="&#xbc;" horiz-adv-x="1775" d="M307 565v627q0 45 8 84l-225 -57l-18 108l235 86h154v-848h-154zM1327 1413l-903 -1413h-139l903 1413h139zM1694 207l-99 -12v-195h-145v193h-387q-57 0 -83.5 36.5t1.5 102.5l250 516h149l-239 -492q-8 -18 2 -30.5t33 -12.5h274v236l27 135h118v-371h99v-106z" />
<glyph unicode="&#xbd;" horiz-adv-x="1822" d="M461 565h-154v627q0 45 8 84l-225 -57l-18 108l235 86h154v-848zM410 0h-142l903 1413h140zM1378 862q167 0 240.5 -39.5t73.5 -158.5q0 -67 -40 -135.5t-124 -151.5l-252 -244q51 6 137 6l311 -2v-137h-645v86q0 41 25 66l252 243q83 80 124 140t44 112q1 51 -36.5 67.5 t-119.5 16.5q-133 0 -272 -14l-9 117q147 28 291 28z" />
<glyph unicode="&#xbe;" horiz-adv-x="1964" d="M731 797q2 -133 -69.5 -192.5t-243.5 -59.5q-127 0 -307 22l8 115q133 -8 262 -8q108 0 150 31t42 110q0 62 -35.5 95.5t-134.5 33.5l-174 4v107l174 6q50 1 83 12t47.5 31t19 39t4.5 45q0 64 -36.5 86t-139.5 22q-147 0 -246 -6l-8 113q137 20 276 20q172 0 238 -42 t66 -152q0 -94 -33.5 -148t-120.5 -67v-4q97 -13 136.5 -65t41.5 -148zM1534 1413l-903 -1413h-139l901 1413h141zM1882 207l-102 -12v-195h-146v193h-383q-36 0 -62.5 16.5t-34.5 47.5t13 75l252 516h150l-240 -492q-9 -17 1 -30t32 -13h272v236l27 135h119v-371h102v-106z " />
<glyph unicode="&#xbf;" horiz-adv-x="1024" d="M510 1026h49q40 0 56 -16t16 -56v-110q0 -41 -16 -57.5t-56 -16.5h-49q-41 0 -57.5 16.5t-16.5 57.5v110q0 40 16.5 56t57.5 16zM449 592h165q2 -77 -14.5 -144.5t-44.5 -116.5t-63 -93.5t-70 -82t-64.5 -73.5t-49 -77.5t-21.5 -84.5q-3 -94 57 -139t193 -45 q59 0 104.5 0.5t90 3t65 3.5t73 5.5t72.5 5.5l10 -141q-14 -3 -50 -9.5t-48.5 -9t-43.5 -7.5t-49 -7t-50 -5t-61 -4t-69 -2t-85 -1q-211 0 -314.5 77.5t-103.5 239.5q0 62 19.5 116.5t51 96.5t70 82.5t77.5 82.5t72 88t55.5 108t25.5 133z" />
<glyph unicode="&#xc0;" horiz-adv-x="1282" d="M682 1487l-408 239l111 152l363 -299zM924 426h-564l-131 -426h-211l445 1358q6 26 26.5 40.5t47.5 14.5h208q60 0 76 -55l445 -1358h-211zM868 604l-166 537q-3 10 -15 51t-17 63h-56q-19 -59 -34 -114l-164 -537h452z" />
<glyph unicode="&#xc1;" horiz-adv-x="1282" d="M567 1487l-65 92l362 299l111 -152zM924 426h-564l-131 -426h-211l445 1358q6 26 26.5 40.5t47.5 14.5h208q60 0 76 -55l445 -1358h-211zM868 604l-166 537q-3 10 -15 51t-17 63h-56q-19 -59 -34 -114l-164 -537h452z" />
<glyph unicode="&#xc2;" horiz-adv-x="1282" d="M369 1493l-66 84l266 264h146l268 -264l-68 -84l-266 197h-16zM924 426h-564l-131 -426h-211l445 1358q6 26 26.5 40.5t47.5 14.5h208q60 0 76 -55l445 -1358h-211zM868 604l-166 537q-3 10 -15 51t-17 63h-56q-19 -59 -34 -114l-164 -537h452z" />
<glyph unicode="&#xc3;" horiz-adv-x="1282" d="M403 1563h-90q-14 123 32.5 187t127.5 58q53 -4 106 -28.5t104.5 -49.5t98.5 -30q55 -7 76 16t21 82h90q15 -118 -30.5 -181.5t-129.5 -57.5q-60 4 -116.5 29t-106.5 51t-90 32q-53 6 -73 -19.5t-20 -88.5zM924 426h-564l-131 -426h-211l445 1358q6 26 26.5 40.5 t47.5 14.5h208q60 0 76 -55l445 -1358h-211zM868 604l-166 537q-3 10 -15 51t-17 63h-56q-19 -59 -34 -114l-164 -537h452z" />
<glyph unicode="&#xc4;" horiz-adv-x="1282" d="M494 1567h-66q-28 0 -40.5 13t-12.5 42v111q0 55 53 55h66q53 0 53 -55v-111q0 -29 -12.5 -42t-40.5 -13zM856 1567h-65q-54 0 -54 55v111q0 55 54 55h65q26 0 40.5 -15t14.5 -40v-111q0 -55 -55 -55zM924 426h-564l-131 -426h-211l445 1358q6 26 26.5 40.5t47.5 14.5 h208q60 0 76 -55l445 -1358h-211zM868 604l-166 537q-3 10 -15 51t-17 63h-56q-19 -59 -34 -114l-164 -537h452z" />
<glyph unicode="&#xc5;" horiz-adv-x="1282" d="M641 1462q-94 0 -158.5 62t-64.5 155t65 156t158 63q92 0 157.5 -63t65.5 -156t-65 -155t-158 -62zM641 1800q-50 0 -82.5 -33t-32.5 -88q0 -54 33 -85t82 -31q51 0 84 31t33 85q0 55 -33 88t-84 33zM924 426h-564l-131 -426h-211l445 1358q6 26 26.5 40.5t47.5 14.5h208 q60 0 76 -55l445 -1358h-211zM868 604l-166 537q-3 10 -15 51t-17 63h-56q-19 -59 -34 -114l-164 -537h452z" />
<glyph unicode="&#xc6;" horiz-adv-x="1873" d="M1763 172l9 -160q-195 -16 -609 -16q-108 0 -174.5 71.5t-66.5 182.5v192h-467l-248 -442h-215l682 1182q73 135 176 184t307 49q398 0 615 -14l-9 -162h-518q-59 0 -95 -37t-36 -100v-273l569 -2v-165l-569 -3v-356q0 -71 30 -101t101 -30h518zM922 612v518 q0 42 18 83.5t43 62.5h-18q-56 -32 -111 -125l-303 -539h371z" />
<glyph unicode="&#xc7;" d="M680 1438q132 0 216 -9t177 -32l-22 -158q-164 16 -371 16q-132 0 -205.5 -51t-106 -168.5t-32.5 -328.5q0 -127 11 -217t35 -155.5t65 -103.5t97 -55.5t136 -17.5q258 0 399 22l23 -155q-173 -50 -422 -50q-209 0 -329.5 71.5t-175 229.5t-54.5 431q0 205 29 342 t96.5 225t172 126t261.5 38zM547 -203l20 92q135 13 190 -13.5t52 -119.5q-3 -134 -102.5 -204t-251.5 -50l32 105q78 -3 128.5 35t52.5 98q2 32 -22.5 44t-98.5 13z" />
<glyph unicode="&#xc8;" horiz-adv-x="1150" d="M676 1528l-408 239l111 152l362 -299zM1042 170l9 -158q-186 -16 -607 -16q-131 0 -206.5 68t-77.5 186v913q2 117 78 185.5t206 68.5q421 0 607 -16l-9 -160h-563q-62 0 -87 -29.5t-25 -101.5v-283h596v-165h-596v-361q0 -72 25 -101.5t87 -29.5h563z" />
<glyph unicode="&#xc9;" horiz-adv-x="1150" d="M559 1528l-65 92l362 299l111 -152zM1042 170l9 -158q-186 -16 -607 -16q-131 0 -206.5 68t-77.5 186v913q2 117 78 185.5t206 68.5q421 0 607 -16l-9 -160h-563q-62 0 -87 -29.5t-25 -101.5v-283h596v-165h-596v-361q0 -72 25 -101.5t87 -29.5h563z" />
<glyph unicode="&#xca;" horiz-adv-x="1150" d="M360 1534l-65 84l266 264h146l268 -264l-68 -84l-266 197h-16zM1042 170l9 -158q-186 -16 -607 -16q-131 0 -206.5 68t-77.5 186v913q2 117 78 185.5t206 68.5q421 0 607 -16l-9 -160h-563q-62 0 -87 -29.5t-25 -101.5v-283h596v-165h-596v-361q0 -72 25 -101.5t87 -29.5 h563z" />
<glyph unicode="&#xcb;" horiz-adv-x="1150" d="M485 1608h-65q-28 0 -40.5 13t-12.5 42v111q0 55 53 55h65q54 0 54 -55v-111q0 -55 -54 -55zM848 1608h-66q-28 0 -40.5 13t-12.5 42v111q0 55 53 55h66q26 0 40.5 -15t14.5 -40v-111q0 -55 -55 -55zM1042 170l9 -158q-186 -16 -607 -16q-131 0 -206.5 68t-77.5 186v913 q2 117 78 185.5t206 68.5q421 0 607 -16l-9 -160h-563q-62 0 -87 -29.5t-25 -101.5v-283h596v-165h-596v-361q0 -72 25 -101.5t87 -29.5h563z" />
<glyph unicode="&#xcc;" horiz-adv-x="548" d="M381 1579l-66 -92l-407 239l110 152zM377 0h-205v1413h205v-1413z" />
<glyph unicode="&#xcd;" horiz-adv-x="548" d="M606 1726l-407 -239l-66 92l363 299zM377 0h-205v1413h205v-1413z" />
<glyph unicode="&#xce;" horiz-adv-x="548" d="M614 1577l-67 -84l-266 197h-17l-264 -197l-66 84l267 264h145zM377 0h-205v1413h205v-1413z" />
<glyph unicode="&#xcf;" horiz-adv-x="548" d="M59 1788h66q53 0 53 -55v-111q0 -29 -12.5 -42t-40.5 -13h-66q-28 0 -40.5 13t-12.5 42v111q0 55 53 55zM422 1788h65q26 0 41 -15t15 -40v-111q0 -55 -56 -55h-65q-28 0 -40.5 13t-12.5 42v111q0 55 53 55zM377 0h-205v1413h205v-1413z" />
<glyph unicode="&#xd0;" horiz-adv-x="1372" d="M692 1432q157 0 260.5 -35.5t171 -121.5t96.5 -222.5t29 -345.5t-29 -345.5t-96.5 -222.5t-171 -121.5t-260.5 -35.5q-240 0 -510 18v692h-137v113h137v608q285 19 510 19zM692 160q99 0 163 27t104.5 92.5t57.5 167.5t17 260q0 209 -32.5 326t-105.5 168.5t-204 51.5 q-123 0 -307 -4v-444h299v-113h-299v-528q176 -4 307 -4z" />
<glyph unicode="&#xd1;" horiz-adv-x="1449" d="M571 1808q53 -4 106.5 -28.5t105 -49.5t98.5 -30q55 -7 75.5 16t20.5 82h90q15 -118 -30.5 -181.5t-129.5 -57.5q-60 4 -116.5 29t-106.5 51t-90 32q-53 6 -72.5 -19.5t-19.5 -88.5h-90q-14 124 32 187.5t127 57.5zM1278 1413v-1333q0 -80 -76 -80h-194q-62 0 -88 63 l-441 963q-72 152 -84 197h-26q8 -88 8 -197v-1026h-205v1333q0 80 80 80h188q62 0 88 -63l428 -938q53 -104 99 -211h30q-10 123 -10 219v993h203z" />
<glyph unicode="&#xd2;" horiz-adv-x="1370" d="M788 1579l-65 -92l-408 239l111 152zM686 1440q213 0 334 -68.5t176 -226t55 -438.5t-55 -439t-176 -226.5t-334 -68.5t-334 68.5t-176 226.5t-55 439t55 438.5t176 226t334 68.5zM686 1257q-135 0 -209.5 -51t-107.5 -169t-33 -330t33 -330t108 -169.5t209 -51.5 t208.5 51.5t107 169t32.5 330.5q0 160 -17 263t-58.5 168.5t-106.5 92t-166 26.5z" />
<glyph unicode="&#xd3;" horiz-adv-x="1370" d="M1016 1726l-408 -239l-65 92l362 299zM686 1440q213 0 334 -68.5t176 -226t55 -438.5t-55 -439t-176 -226.5t-334 -68.5t-334 68.5t-176 226.5t-55 439t55 438.5t176 226t334 68.5zM686 1257q-135 0 -209.5 -51t-107.5 -169t-33 -330t33 -330t108 -169.5t209 -51.5 t208.5 51.5t107 169t32.5 330.5q0 160 -17 263t-58.5 168.5t-106.5 92t-166 26.5z" />
<glyph unicode="&#xd4;" horiz-adv-x="1370" d="M1024 1577l-68 -84l-266 197h-16l-264 -197l-66 84l266 264h146zM686 1440q213 0 334 -68.5t176 -226t55 -438.5t-55 -439t-176 -226.5t-334 -68.5t-334 68.5t-176 226.5t-55 439t55 438.5t176 226t334 68.5zM686 1257q-135 0 -209.5 -51t-107.5 -169t-33 -330t33 -330 t108 -169.5t209 -51.5t208.5 51.5t107 169t32.5 330.5q0 160 -17 263t-58.5 168.5t-106.5 92t-166 26.5z" />
<glyph unicode="&#xd5;" horiz-adv-x="1370" d="M516 1808q53 -4 106 -28.5t104.5 -49.5t98.5 -30q55 -7 76 16t21 82h90q15 -118 -30.5 -181.5t-129.5 -57.5q-60 4 -116.5 29t-106.5 51t-90 32q-53 6 -73 -19.5t-20 -88.5h-90q-14 123 32.5 187t127.5 58zM686 1440q213 0 334 -68.5t176 -226t55 -438.5t-55 -439 t-176 -226.5t-334 -68.5t-334 68.5t-176 226.5t-55 439t55 438.5t176 226t334 68.5zM686 1257q-135 0 -209.5 -51t-107.5 -169t-33 -330t33 -330t108 -169.5t209 -51.5t208.5 51.5t107 169t32.5 330.5q0 160 -17 263t-58.5 168.5t-106.5 92t-166 26.5z" />
<glyph unicode="&#xd6;" horiz-adv-x="1370" d="M469 1788h66q53 0 53 -55v-111q0 -29 -12.5 -42t-40.5 -13h-66q-28 0 -40.5 13t-12.5 42v111q0 55 53 55zM831 1788h66q26 0 40.5 -15t14.5 -40v-111q0 -55 -55 -55h-66q-28 0 -40.5 13t-12.5 42v111q0 55 53 55zM686 1440q213 0 334 -68.5t176 -226t55 -438.5t-55 -439 t-176 -226.5t-334 -68.5t-334 68.5t-176 226.5t-55 439t55 438.5t176 226t334 68.5zM686 1257q-135 0 -209.5 -51t-107.5 -169t-33 -330t33 -330t108 -169.5t209 -51.5t208.5 51.5t107 169t32.5 330.5q0 160 -17 263t-58.5 168.5t-106.5 92t-166 26.5z" />
<glyph unicode="&#xd7;" horiz-adv-x="991" d="M614 594l299 -270l-96 -117l-317 285l-316 -285l-98 117l301 270l-301 270l98 117l316 -285l317 285l96 -117z" />
<glyph unicode="&#xd8;" horiz-adv-x="1370" d="M1112 1497l-65 -141q109 -74 156.5 -229t47.5 -420q0 -281 -55 -439t-176 -226.5t-334 -68.5q-158 0 -268 37l-62 -131l-104 43l65 141q-104 75 -150 229.5t-46 414.5q0 281 55 438.5t176 226t334 68.5q159 0 260 -35l64 133zM336 707q0 -319 80 -437l446 955 q-65 32 -176 32q-135 0 -209.5 -51t-107.5 -169t-33 -330zM686 156q134 0 208.5 51.5t107 169t32.5 330.5q0 328 -84 444l-448 -961q67 -34 184 -34z" />
<glyph unicode="&#xd9;" horiz-adv-x="1363" d="M791 1579l-66 -92l-408 239l111 152zM1202 1413v-868q0 -311 -115.5 -441.5t-394.5 -130.5q-291 0 -410.5 130t-119.5 442v868h205v-868q0 -218 69 -303.5t246 -85.5q174 0 244.5 86t70.5 303v868h205z" />
<glyph unicode="&#xda;" horiz-adv-x="1363" d="M1016 1726l-408 -239l-65 92l362 299zM1202 1413v-868q0 -311 -115.5 -441.5t-394.5 -130.5q-291 0 -410.5 130t-119.5 442v868h205v-868q0 -218 69 -303.5t246 -85.5q174 0 244.5 86t70.5 303v868h205z" />
<glyph unicode="&#xdb;" horiz-adv-x="1363" d="M1024 1577l-68 -84l-266 197h-16l-264 -197l-66 84l266 264h146zM1202 1413v-868q0 -311 -115.5 -441.5t-394.5 -130.5q-291 0 -410.5 130t-119.5 442v868h205v-868q0 -218 69 -303.5t246 -85.5q174 0 244.5 86t70.5 303v868h205z" />
<glyph unicode="&#xdc;" horiz-adv-x="1363" d="M469 1788h66q53 0 53 -55v-111q0 -29 -12.5 -42t-40.5 -13h-66q-28 0 -40.5 13t-12.5 42v111q0 55 53 55zM831 1788h66q26 0 40.5 -15t14.5 -40v-111q0 -55 -55 -55h-66q-28 0 -40.5 13t-12.5 42v111q0 55 53 55zM1202 1413v-868q0 -311 -115.5 -441.5t-394.5 -130.5 q-291 0 -410.5 130t-119.5 442v868h205v-868q0 -218 69 -303.5t246 -85.5q174 0 244.5 86t70.5 303v868h205z" />
<glyph unicode="&#xdd;" horiz-adv-x="1175" d="M512 1487l-66 92l363 299l111 -152zM690 489v-489h-205v494l-467 919h218l284 -579q21 -42 62 -164h14q38 112 61 161l285 582h213z" />
<glyph unicode="&#xde;" horiz-adv-x="1216" d="M666 1167q134 0 218.5 -20.5t140.5 -73.5t78.5 -138.5t22.5 -221.5q0 -135 -22 -221t-76 -138t-134 -72t-206 -20q-161 0 -311 17v-279h-205v1413h205v-250q78 4 289 4zM377 438h282q103 1 157 24t79 81.5t25 169.5q0 166 -55 222t-206 56q-204 0 -282 -2v-551z" />
<glyph unicode="&#xdf;" horiz-adv-x="1392" d="M944 625l203 -97q95 -46 134.5 -103.5t39.5 -164.5q0 -86 -22 -141.5t-71 -86.5t-113.5 -43t-162.5 -12q-140 0 -325 23l12 150q137 -11 272 -11q53 1 83.5 3t59.5 9.5t43 21.5t22.5 37.5t8.5 59.5q0 30 -6.5 50t-28 38t-37.5 27t-61 31l-207 98q-165 79 -165 234 q0 32 5.5 58.5t21 50t27 38.5t40 35.5t42.5 29.5t51.5 31.5t51.5 30.5q72 46 98.5 81.5t26.5 92.5q0 41 -20 66t-81.5 41t-172.5 16q-165 0 -223 -45t-58 -180v-1094h-199v844h-180v153l180 2v117q0 93 21 158.5t57.5 105.5t98 62.5t129.5 30.5t166 8q259 0 364 -61 t105 -220q0 -81 -35.5 -141.5t-137.5 -126.5q-27 -17 -65 -39t-55.5 -33t-36.5 -28t-26 -35t-7 -43q0 -19 7 -35t14.5 -26.5t29.5 -24t34.5 -20t47.5 -23.5z" />
<glyph unicode="&#xe0;" horiz-adv-x="1128" d="M592 1120l-408 240l111 151l362 -299zM629 1026q181 0 267.5 -74t86.5 -256v-696h-156l-22 158q-69 -71 -173 -123.5t-226 -52.5q-138 0 -222 74t-84 208v105q0 119 74.5 184t210.5 65h399v78q-2 93 -43 127.5t-155 34.5q-116 0 -424 -24l-19 145q261 47 486 47zM301 342 v-53q0 -73 35 -106t110 -33t166 34.5t172 104.5v180h-362q-66 -3 -93.5 -35t-27.5 -92z" />
<glyph unicode="&#xe1;" horiz-adv-x="1128" d="M477 1120l-65 92l362 299l111 -151zM629 1026q181 0 267.5 -74t86.5 -256v-696h-156l-22 158q-69 -71 -173 -123.5t-226 -52.5q-138 0 -222 74t-84 208v105q0 119 74.5 184t210.5 65h399v78q-2 93 -43 127.5t-155 34.5q-116 0 -424 -24l-19 145q261 47 486 47zM301 342 v-53q0 -73 35 -106t110 -33t166 34.5t172 104.5v180h-362q-66 -3 -93.5 -35t-27.5 -92z" />
<glyph unicode="&#xe2;" horiz-adv-x="1128" d="M279 1126l-66 84l266 265h146l268 -265l-68 -84l-266 197h-16zM629 1026q181 0 267.5 -74t86.5 -256v-696h-156l-22 158q-69 -71 -173 -123.5t-226 -52.5q-138 0 -222 74t-84 208v105q0 119 74.5 184t210.5 65h399v78q-2 93 -43 127.5t-155 34.5q-116 0 -424 -24l-19 145 q261 47 486 47zM301 342v-53q0 -73 35 -106t110 -33t166 34.5t172 104.5v180h-362q-66 -3 -93.5 -35t-27.5 -92z" />
<glyph unicode="&#xe3;" horiz-adv-x="1128" d="M313 1194h-90q-14 124 32.5 188t127.5 58q53 -4 106 -29t104.5 -50t98.5 -30q55 -7 75.5 16t20.5 83h91q15 -118 -30.5 -182t-129.5 -58q-47 3 -93.5 20t-77.5 35t-70 35.5t-72 22.5q-53 6 -73 -20t-20 -89zM629 1026q181 0 267.5 -74t86.5 -256v-696h-156l-22 158 q-69 -71 -173 -123.5t-226 -52.5q-138 0 -222 74t-84 208v105q0 119 74.5 184t210.5 65h399v78q-2 93 -43 127.5t-155 34.5q-116 0 -424 -24l-19 145q261 47 486 47zM301 342v-53q0 -73 35 -106t110 -33t166 34.5t172 104.5v180h-362q-66 -3 -93.5 -35t-27.5 -92z" />
<glyph unicode="&#xe4;" horiz-adv-x="1128" d="M403 1200h-65q-28 0 -40.5 13t-12.5 42v111q0 55 53 55h65q54 0 54 -55v-111q0 -55 -54 -55zM766 1200h-66q-28 0 -40.5 13t-12.5 42v111q0 55 53 55h66q26 0 40.5 -15t14.5 -40v-111q0 -55 -55 -55zM629 1026q181 0 267.5 -74t86.5 -256v-696h-156l-22 158 q-69 -71 -173 -123.5t-226 -52.5q-138 0 -222 74t-84 208v105q0 119 74.5 184t210.5 65h399v78q-2 93 -43 127.5t-155 34.5q-116 0 -424 -24l-19 145q261 47 486 47zM301 342v-53q0 -73 35 -106t110 -33t166 34.5t172 104.5v180h-362q-66 -3 -93.5 -35t-27.5 -92z" />
<glyph unicode="&#xe5;" horiz-adv-x="1128" d="M553 1094q-94 0 -158.5 62t-64.5 155t65 156t158 63q92 0 157.5 -63t65.5 -156t-65 -155t-158 -62zM553 1432q-50 0 -82.5 -33t-32.5 -88q0 -54 33 -85.5t82 -31.5q51 0 84 31.5t33 85.5q0 55 -33 88t-84 33zM629 1026q181 0 267.5 -74t86.5 -256v-696h-156l-22 158 q-69 -71 -173 -123.5t-226 -52.5q-138 0 -222 74t-84 208v105q0 119 74.5 184t210.5 65h399v78q-2 93 -43 127.5t-155 34.5q-116 0 -424 -24l-19 145q261 47 486 47zM301 342v-53q0 -73 35 -106t110 -33t166 34.5t172 104.5v180h-362q-66 -3 -93.5 -35t-27.5 -92z" />
<glyph unicode="&#xe6;" horiz-adv-x="1781" d="M1290 141q129 0 350 25l19 -131q-66 -30 -179 -45t-214 -15q-174 0 -278 50t-154 161q-29 -34 -68 -66.5t-93.5 -65t-124 -52.5t-142.5 -20q-139 0 -222.5 74t-83.5 208v105q0 120 74 184.5t209 64.5h401v78q0 93 -41.5 127.5t-156.5 34.5q-112 0 -424 -24l-19 145 q265 47 486 47q206 0 286 -92q106 92 332 92q227 0 331.5 -84t104.5 -252q2 -139 -61 -213t-190 -74h-439q7 -81 27 -132.5t58.5 -80t87 -39t124.5 -10.5zM1255 858q-148 0 -205 -62.5t-61 -238.5h387q109 0 109 133q0 91 -51.5 129.5t-178.5 38.5zM446 150q79 0 174.5 37.5 t178.5 113.5q-14 68 -17 168h-362q-66 -3 -92.5 -34.5t-26.5 -92.5v-53q0 -73 35 -106t110 -33z" />
<glyph unicode="&#xe7;" horiz-adv-x="1005" d="M586 1026q198 0 329 -51l-24 -127q-157 10 -273 10q-171 0 -237 -75.5t-66 -282.5t66 -283t237 -76q162 0 295 23l19 -133q-151 -56 -348 -56q-262 0 -370 118.5t-108 406.5q0 290 108.5 408t371.5 118zM453 -203l20 92q135 13 190 -13.5t52 -119.5q-3 -134 -103 -204 t-252 -50l33 105q77 -3 127.5 35t52.5 98q2 33 -22 44.5t-98 12.5z" />
<glyph unicode="&#xe8;" horiz-adv-x="1103" d="M614 1120l-407 240l110 151l363 -299zM614 141q130 0 351 25l18 -131q-66 -30 -179 -45t-214 -15q-263 0 -373.5 119.5t-110.5 407.5q0 197 49.5 312t149 163.5t266.5 48.5q227 0 332 -84t105 -252q2 -138 -59 -212.5t-183 -74.5h-449q7 -81 26.5 -132.5t57.5 -80t87 -39 t126 -10.5zM580 858q-148 0 -205.5 -62.5t-61.5 -238.5h398q98 0 98 133q0 92 -50.5 130t-178.5 38z" />
<glyph unicode="&#xe9;" horiz-adv-x="1103" d="M500 1120l-66 92l363 299l110 -151zM614 141q130 0 351 25l18 -131q-66 -30 -179 -45t-214 -15q-263 0 -373.5 119.5t-110.5 407.5q0 197 49.5 312t149 163.5t266.5 48.5q227 0 332 -84t105 -252q2 -138 -59 -212.5t-183 -74.5h-449q7 -81 26.5 -132.5t57.5 -80t87 -39 t126 -10.5zM580 858q-148 0 -205.5 -62.5t-61.5 -238.5h398q98 0 98 133q0 92 -50.5 130t-178.5 38z" />
<glyph unicode="&#xea;" horiz-adv-x="1103" d="M301 1126l-65 84l266 265h145l268 -265l-67 -84l-266 197h-17zM614 141q130 0 351 25l18 -131q-66 -30 -179 -45t-214 -15q-263 0 -373.5 119.5t-110.5 407.5q0 197 49.5 312t149 163.5t266.5 48.5q227 0 332 -84t105 -252q2 -138 -59 -212.5t-183 -74.5h-449 q7 -81 26.5 -132.5t57.5 -80t87 -39t126 -10.5zM580 858q-148 0 -205.5 -62.5t-61.5 -238.5h398q98 0 98 133q0 92 -50.5 130t-178.5 38z" />
<glyph unicode="&#xeb;" horiz-adv-x="1103" d="M426 1200h-66q-28 0 -40.5 13t-12.5 42v111q0 55 53 55h66q53 0 53 -55v-111q0 -29 -12.5 -42t-40.5 -13zM788 1200h-65q-28 0 -40.5 13t-12.5 42v111q0 55 53 55h65q26 0 41 -15t15 -40v-111q0 -55 -56 -55zM614 141q130 0 351 25l18 -131q-66 -30 -179 -45t-214 -15 q-263 0 -373.5 119.5t-110.5 407.5q0 197 49.5 312t149 163.5t266.5 48.5q227 0 332 -84t105 -252q2 -138 -59 -212.5t-183 -74.5h-449q7 -81 26.5 -132.5t57.5 -80t87 -39t126 -10.5zM580 858q-148 0 -205.5 -62.5t-61.5 -238.5h398q98 0 98 133q0 92 -50.5 130t-178.5 38z " />
<glyph unicode="&#xec;" horiz-adv-x="522" d="M369 1212l-66 -92l-407 240l110 151zM360 0h-198v999h198v-999z" />
<glyph unicode="&#xed;" horiz-adv-x="522" d="M594 1360l-408 -240l-65 92l362 299zM360 0h-198v999h198v-999z" />
<glyph unicode="&#xee;" horiz-adv-x="522" d="M602 1210l-67 -84l-267 197h-16l-264 -197l-66 84l266 265h146zM360 0h-198v999h198v-999z" />
<glyph unicode="&#xef;" horiz-adv-x="522" d="M47 1421h66q53 0 53 -55v-111q0 -29 -12.5 -42t-40.5 -13h-66q-28 0 -40.5 13t-12.5 42v111q0 55 53 55zM410 1421h65q26 0 40.5 -15t14.5 -40v-111q0 -55 -55 -55h-65q-54 0 -54 55v111q0 55 54 55zM360 0h-198v999h198v-999z" />
<glyph unicode="&#xf0;" horiz-adv-x="1148" d="M915 1374l-133 -102q244 -217 244 -692q0 -117 -12 -205.5t-43 -166.5t-82.5 -128t-132.5 -78.5t-191 -28.5q-235 0 -345.5 113.5t-110.5 359.5q0 237 97 355.5t322 118.5q151 0 269 -68q-41 205 -152 313l-153 -121l-70 86l129 103q-123 60 -307 53l22 144 q242 13 420 -91l158 125zM567 139q55 0 95.5 12.5t68 39.5t45 62t27 89.5t13 111t3.5 136.5q0 45 -4 123q-110 39 -254 39q-135 0 -190.5 -74.5t-55.5 -228.5q0 -169 59 -239.5t193 -70.5z" />
<glyph unicode="&#xf1;" horiz-adv-x="1193" d="M373 1194h-90q-14 124 32 188t127 58q53 -4 106.5 -29t105 -50t98.5 -30q55 -7 75.5 16t20.5 83h90q15 -118 -30.5 -182t-129.5 -58q-47 3 -93.5 20t-77.5 35t-70 35.5t-72 22.5q-53 6 -72.5 -20t-19.5 -89zM776 1026q132 0 201.5 -70.5t69.5 -205.5v-750h-199v692 q0 94 -28 130t-99 36q-78 0 -157.5 -34.5t-213.5 -114.5l2 -709h-198v999h168l12 -151q236 178 442 178z" />
<glyph unicode="&#xf2;" horiz-adv-x="1167" d="M688 1212l-65 -92l-408 240l111 151zM586 1026q259 0 367 -120t108 -408q0 -286 -108 -405.5t-367 -119.5q-261 0 -370.5 119.5t-109.5 405.5q0 287 109.5 407.5t370.5 120.5zM584 858q-156 0 -213.5 -75t-57.5 -285q0 -207 57.5 -283t213.5 -76q154 0 212 76.5t58 282.5 q0 143 -25.5 219.5t-82.5 108.5t-162 32z" />
<glyph unicode="&#xf3;" horiz-adv-x="1167" d="M913 1360l-407 -240l-66 92l363 299zM586 1026q259 0 367 -120t108 -408q0 -286 -108 -405.5t-367 -119.5q-261 0 -370.5 119.5t-109.5 405.5q0 287 109.5 407.5t370.5 120.5zM584 858q-156 0 -213.5 -75t-57.5 -285q0 -207 57.5 -283t213.5 -76q154 0 212 76.5t58 282.5 q0 143 -25.5 219.5t-82.5 108.5t-162 32z" />
<glyph unicode="&#xf4;" horiz-adv-x="1167" d="M922 1210l-68 -84l-266 197h-17l-264 -197l-65 84l266 265h145zM586 1026q259 0 367 -120t108 -408q0 -286 -108 -405.5t-367 -119.5q-261 0 -370.5 119.5t-109.5 405.5q0 287 109.5 407.5t370.5 120.5zM584 858q-156 0 -213.5 -75t-57.5 -285q0 -207 57.5 -283 t213.5 -76q154 0 212 76.5t58 282.5q0 143 -25.5 219.5t-82.5 108.5t-162 32z" />
<glyph unicode="&#xf5;" horiz-adv-x="1167" d="M414 1440q53 -4 106 -29t104.5 -50t98.5 -30q55 -7 75.5 16t20.5 83h90q15 -119 -30 -182.5t-129 -57.5q-47 3 -93.5 20t-78 35t-70.5 35.5t-72 22.5q-53 6 -72.5 -20t-19.5 -89h-90q-14 124 32.5 188t127.5 58zM586 1026q259 0 367 -120t108 -408q0 -286 -108 -405.5 t-367 -119.5q-261 0 -370.5 119.5t-109.5 405.5q0 287 109.5 407.5t370.5 120.5zM584 858q-156 0 -213.5 -75t-57.5 -285q0 -207 57.5 -283t213.5 -76q154 0 212 76.5t58 282.5q0 143 -25.5 219.5t-82.5 108.5t-162 32z" />
<glyph unicode="&#xf6;" horiz-adv-x="1167" d="M367 1421h65q53 0 53 -55v-111q0 -29 -12.5 -42t-40.5 -13h-65q-54 0 -54 55v111q0 55 54 55zM729 1421h66q26 0 40.5 -15t14.5 -40v-111q0 -55 -55 -55h-66q-28 0 -40.5 13t-12.5 42v111q0 55 53 55zM586 1026q259 0 367 -120t108 -408q0 -286 -108 -405.5t-367 -119.5 q-261 0 -370.5 119.5t-109.5 405.5q0 287 109.5 407.5t370.5 120.5zM584 858q-156 0 -213.5 -75t-57.5 -285q0 -207 57.5 -283t213.5 -76q154 0 212 76.5t58 282.5q0 143 -25.5 219.5t-82.5 108.5t-162 32z" />
<glyph unicode="&#xf7;" horiz-adv-x="1161" d="M553 1083h51q40 0 56 -16t16 -57v-95q0 -39 -16 -54t-56 -15h-51q-41 0 -56.5 14.5t-15.5 54.5v95q0 41 15.5 57t56.5 16zM1034 530h-907v148h907v-148zM553 360h51q40 0 56 -16t16 -57v-92q0 -41 -16 -56.5t-56 -15.5h-51q-41 0 -56.5 15.5t-15.5 56.5v92q0 41 15.5 57 t56.5 16z" />
<glyph unicode="&#xf8;" horiz-adv-x="1167" d="M918 1112l-62 -133q108 -54 156.5 -169t48.5 -312q0 -286 -108 -405.5t-367 -119.5q-105 0 -189 19l-71 -152l-88 43l65 144q-103 52 -150 166t-47 305q0 287 109.5 407.5t370.5 120.5q94 0 176 -16l67 145zM313 498q0 -117 16.5 -188.5t55.5 -110.5l301 649 q-36 10 -102 10q-156 0 -213.5 -75t-57.5 -285zM584 139q154 0 212 76.5t58 282.5q0 123 -19 196t-61 111l-303 -653q50 -13 113 -13z" />
<glyph unicode="&#xf9;" d="M631 1128l-408 240l111 152l362 -299zM1018 999v-999h-158l-14 137q-218 -164 -426 -164q-134 0 -203.5 70.5t-69.5 206.5v749h199v-692q-1 -92 31 -128t112 -36q71 0 146 31.5t186 101.5v723h197z" />
<glyph unicode="&#xfa;" d="M516 1128l-65 93l362 299l111 -152zM1018 999v-999h-158l-14 137q-218 -164 -426 -164q-134 0 -203.5 70.5t-69.5 206.5v749h199v-692q-1 -92 31 -128t112 -36q71 0 146 31.5t186 101.5v723h197z" />
<glyph unicode="&#xfb;" d="M317 1135l-65 84l266 264h146l268 -264l-68 -84l-266 196h-16zM1018 999v-999h-158l-14 137q-218 -164 -426 -164q-134 0 -203.5 70.5t-69.5 206.5v749h199v-692q-1 -92 31 -128t112 -36q71 0 146 31.5t186 101.5v723h197z" />
<glyph unicode="&#xfc;" d="M442 1208h-65q-53 0 -53 56v110q0 56 53 56h65q54 0 54 -56v-110q0 -56 -54 -56zM805 1208h-66q-53 0 -53 56v110q0 56 53 56h66q26 0 40.5 -15.5t14.5 -40.5v-110q0 -56 -55 -56zM1018 999v-999h-158l-14 137q-218 -164 -426 -164q-134 0 -203.5 70.5t-69.5 206.5v749 h199v-692q-1 -92 31 -128t112 -36q71 0 146 31.5t186 101.5v723h197z" />
<glyph unicode="&#xfd;" horiz-adv-x="1091" d="M475 1120l-65 92l362 299l111 -151zM1057 999l-389 -1046q-21 -58 -47.5 -107.5t-67 -99t-88.5 -85t-114 -58t-142 -23.5l-19 131q117 35 185 96t108 156l15 37h-41q-58 0 -70 51l-354 948h211l250 -727q23 -65 34 -122h29l41 122l246 727h213z" />
<glyph unicode="&#xfe;" horiz-adv-x="1179" d="M709 1024q194 0 277 -126t83 -406q0 -195 -39.5 -309t-118 -162t-209.5 -48q-189 0 -356 86q6 -94 6 -186v-281h-198v1842h198v-334q0 -118 -8 -211q168 135 365 135zM637 137q126 0 176.5 77t50.5 280q0 140 -23 219t-69 111t-127 32q-118 0 -293 -129v-522 q184 -68 285 -68z" />
<glyph unicode="&#xff;" horiz-adv-x="1091" d="M401 1200h-65q-28 0 -40.5 13t-12.5 42v111q0 55 53 55h65q54 0 54 -55v-111q0 -55 -54 -55zM764 1200h-66q-28 0 -40.5 13t-12.5 42v111q0 55 53 55h66q26 0 40.5 -15t14.5 -40v-111q0 -55 -55 -55zM1057 999l-389 -1046q-21 -58 -47.5 -107.5t-67 -99t-88.5 -85 t-114 -58t-142 -23.5l-19 131q117 35 185 96t108 156l15 37h-41q-58 0 -70 51l-354 948h211l250 -727q23 -65 34 -122h29l41 122l246 727h213z" />
<glyph unicode="&#x100;" horiz-adv-x="1282" d="M930 1602h-578v145h578v-145zM924 426h-564l-131 -426h-211l445 1358q6 26 26.5 40.5t47.5 14.5h208q60 0 76 -55l445 -1358h-211zM868 604l-166 537q-3 10 -15 51t-17 63h-56q-19 -59 -34 -114l-164 -537h452z" />
<glyph unicode="&#x101;" horiz-adv-x="1128" d="M842 1235h-578v145h578v-145zM629 1026q181 0 267.5 -74t86.5 -256v-696h-156l-22 158q-69 -71 -173 -123.5t-226 -52.5q-138 0 -222 74t-84 208v105q0 119 74.5 184t210.5 65h399v78q-2 93 -43 127.5t-155 34.5q-116 0 -424 -24l-19 145q261 47 486 47zM301 342v-53 q0 -73 35 -106t110 -33t166 34.5t172 104.5v180h-362q-66 -3 -93.5 -35t-27.5 -92z" />
<glyph unicode="&#x102;" horiz-adv-x="1282" d="M641 1524q-151 0 -236.5 76.5t-76.5 199.5l100 15q-2 -69 53.5 -107.5t159.5 -38.5q101 0 157 38.5t54 107.5l100 -15q9 -123 -75.5 -199.5t-235.5 -76.5zM924 426h-564l-131 -426h-211l445 1358q6 26 26.5 40.5t47.5 14.5h208q60 0 76 -55l445 -1358h-211zM868 604 l-166 537q-3 10 -15 51t-17 63h-56q-19 -59 -34 -114l-164 -537h452z" />
<glyph unicode="&#x103;" horiz-adv-x="1128" d="M551 1155q-151 0 -236.5 77t-76.5 200l100 14q-2 -69 53.5 -107.5t159.5 -38.5q101 0 157 38.5t54 107.5l100 -14q9 -123 -75.5 -200t-235.5 -77zM629 1026q181 0 267.5 -74t86.5 -256v-696h-156l-22 158q-69 -71 -173 -123.5t-226 -52.5q-138 0 -222 74t-84 208v105 q0 119 74.5 184t210.5 65h399v78q-2 93 -43 127.5t-155 34.5q-116 0 -424 -24l-19 145q261 47 486 47zM301 342v-53q0 -73 35 -106t110 -33t166 34.5t172 104.5v180h-362q-66 -3 -93.5 -35t-27.5 -92z" />
<glyph unicode="&#x104;" horiz-adv-x="1282" d="M1272 -313l24 -82q-77 -31 -140 -39t-101 6t-62.5 41.5t-24.5 66.5t13 82q43 124 190 238h-116l-131 426h-564l-131 -426h-211l445 1358q6 26 26.5 40.5t47.5 14.5h208q60 0 76 -55l445 -1358h-2q-108 -128 -146 -227q-30 -70 15.5 -93.5t138.5 7.5zM868 604l-166 537 q-3 10 -15 51t-17 63h-56q-19 -59 -34 -114l-164 -537h452z" />
<glyph unicode="&#x105;" horiz-adv-x="1128" d="M991 -313l25 -82q-64 -26 -119 -36t-93 -3.5t-65.5 24t-39.5 44t-12 59.5t13 69q43 123 191 238h-64l-22 158q-69 -71 -173 -123.5t-226 -52.5q-138 0 -222 74t-84 208v105q0 119 74.5 184t210.5 65h399v78q-2 93 -43 127.5t-155 34.5q-116 0 -424 -24l-19 145 q261 47 486 47q181 0 267.5 -74t86.5 -256v-696q-106 -126 -145 -227q-30 -70 15 -93.5t138 7.5zM301 342v-53q0 -73 35 -106t110 -33t166 34.5t172 104.5v180h-362q-66 -3 -93.5 -35t-27.5 -92z" />
<glyph unicode="&#x106;" d="M987 1726l-407 -239l-66 92l363 299zM680 1438q132 0 216 -9t177 -32l-22 -158q-164 16 -371 16q-132 0 -205.5 -51t-106 -168.5t-32.5 -328.5q0 -127 11 -217t35 -155.5t65 -103.5t97 -55.5t136 -17.5q258 0 399 22l23 -155q-173 -50 -422 -50q-209 0 -329.5 71.5 t-175 229.5t-54.5 431q0 205 29 342t96.5 225t172 126t261.5 38z" />
<glyph unicode="&#x107;" horiz-adv-x="1005" d="M879 1360l-408 -240l-65 92l362 299zM586 1026q198 0 329 -51l-24 -127q-157 10 -273 10q-171 0 -237 -75.5t-66 -282.5t66 -283t237 -76q162 0 295 23l19 -133q-151 -56 -348 -56q-262 0 -370 118.5t-108 406.5q0 290 108.5 408t371.5 118z" />
<glyph unicode="&#x10a;" d="M625 1778h63q60 0 60 -58v-114q0 -60 -60 -60h-63q-58 0 -58 60v114q0 58 58 58zM680 1438q132 0 216 -9t177 -32l-22 -158q-164 16 -371 16q-132 0 -205.5 -51t-106 -168.5t-32.5 -328.5q0 -127 11 -217t35 -155.5t65 -103.5t97 -55.5t136 -17.5q258 0 399 22l23 -155 q-173 -50 -422 -50q-209 0 -329.5 71.5t-175 229.5t-54.5 431q0 205 29 342t96.5 225t172 126t261.5 38z" />
<glyph unicode="&#x10b;" horiz-adv-x="1005" d="M514 1411h64q59 0 59 -57v-115q0 -59 -59 -59h-64q-57 0 -57 59v115q0 57 57 57zM586 1026q198 0 329 -51l-24 -127q-157 10 -273 10q-171 0 -237 -75.5t-66 -282.5t66 -283t237 -76q162 0 295 23l19 -133q-151 -56 -348 -56q-262 0 -370 118.5t-108 406.5 q0 290 108.5 408t371.5 118z" />
<glyph unicode="&#x10c;" d="M999 1786l-297 -264h-90l-295 264l68 84l264 -172h17l266 172zM680 1438q132 0 216 -9t177 -32l-22 -158q-164 16 -371 16q-132 0 -205.5 -51t-106 -168.5t-32.5 -328.5q0 -127 11 -217t35 -155.5t65 -103.5t97 -55.5t136 -17.5q258 0 399 22l23 -155q-173 -50 -422 -50 q-209 0 -329.5 71.5t-175 229.5t-54.5 431q0 205 29 342t96.5 225t172 126t261.5 38z" />
<glyph unicode="&#x10d;" horiz-adv-x="1005" d="M889 1419l-297 -264h-90l-295 264l67 84l265 -172h16l266 172zM586 1026q198 0 329 -51l-24 -127q-157 10 -273 10q-171 0 -237 -75.5t-66 -282.5t66 -283t237 -76q162 0 295 23l19 -133q-151 -56 -348 -56q-262 0 -370 118.5t-108 406.5q0 290 108.5 408t371.5 118z" />
<glyph unicode="&#x10e;" horiz-adv-x="1361" d="M606 1522l-295 264l68 84l264 -172h16l267 172l67 -84l-297 -264h-90zM682 1432q105 0 184.5 -15.5t143 -50.5t106.5 -90t71.5 -137t41 -187.5t12.5 -244.5t-12.5 -244.5t-41 -187.5t-71.5 -137t-106.5 -90t-143 -50.5t-184.5 -15.5q-240 0 -510 18v1413q285 19 510 19z M682 160q131 0 204.5 51.5t106.5 169t33 326.5q0 157 -17 259.5t-58.5 167.5t-105.5 92t-163 27q-125 0 -305 -4v-1085q176 -4 305 -4z" />
<glyph unicode="&#x10f;" horiz-adv-x="1177" d="M1315 1384l2 -102q-3 -136 -70 -252l-86 21q21 99 21 192q-52 0 -52 49v92q3 31 19 43.5t51 12.5h53q35 0 49 -12.5t13 -43.5zM825 1434h199v-1434h-156l-16 137q-188 -162 -393 -162q-184 0 -267 132t-83 397q0 194 43 310t124.5 164t212.5 48q192 0 345 -90 q-9 99 -9 197v301zM313 506q0 -142 23 -220.5t67.5 -108.5t122.5 -30q76 0 134 26t165 99v533q-98 26 -158.5 37.5t-125.5 11.5q-86 0 -133 -27.5t-71 -103t-24 -217.5z" />
<glyph unicode="&#x110;" horiz-adv-x="1372" d="M692 1432q157 0 260.5 -35.5t171 -121.5t96.5 -222.5t29 -345.5t-29 -345.5t-96.5 -222.5t-171 -121.5t-260.5 -35.5q-240 0 -510 18v692h-137v113h137v608q285 19 510 19zM692 160q99 0 163 27t104.5 92.5t57.5 167.5t17 260q0 209 -32.5 326t-105.5 168.5t-204 51.5 q-123 0 -307 -4v-444h299v-113h-299v-528q176 -4 307 -4z" />
<glyph unicode="&#x111;" horiz-adv-x="1167" d="M1159 1167h-135v-1167h-156l-16 137q-188 -162 -393 -162q-184 0 -267 132t-83 397q0 194 43 310t124.5 164t212.5 48q192 0 345 -90q-9 99 -9 197v34h-305v113h305v154h199v-154h135v-113zM313 506q0 -142 23 -220.5t67.5 -108.5t122.5 -30q76 0 134 26t165 99v533 q-98 26 -158.5 37.5t-125.5 11.5q-86 0 -133 -27.5t-71 -103t-24 -217.5z" />
<glyph unicode="&#x112;" horiz-adv-x="1150" d="M924 1642h-578v146h578v-146zM1042 170l9 -158q-186 -16 -607 -16q-131 0 -206.5 68t-77.5 186v913q2 117 78 185.5t206 68.5q421 0 607 -16l-9 -160h-563q-62 0 -87 -29.5t-25 -101.5v-283h596v-165h-596v-361q0 -72 25 -101.5t87 -29.5h563z" />
<glyph unicode="&#x113;" horiz-adv-x="1103" d="M862 1235h-577v145h577v-145zM614 141q130 0 351 25l18 -131q-66 -30 -179 -45t-214 -15q-263 0 -373.5 119.5t-110.5 407.5q0 197 49.5 312t149 163.5t266.5 48.5q227 0 332 -84t105 -252q2 -138 -59 -212.5t-183 -74.5h-449q7 -81 26.5 -132.5t57.5 -80t87 -39 t126 -10.5zM580 858q-148 0 -205.5 -62.5t-61.5 -238.5h398q98 0 98 133q0 92 -50.5 130t-178.5 38z" />
<glyph unicode="&#x116;" horiz-adv-x="1150" d="M666 1587h-64q-57 0 -57 60v114q0 58 57 58h64q59 0 59 -58v-114q0 -60 -59 -60zM1042 170l9 -158q-186 -16 -607 -16q-131 0 -206.5 68t-77.5 186v913q2 117 78 185.5t206 68.5q421 0 607 -16l-9 -160h-563q-62 0 -87 -29.5t-25 -101.5v-283h596v-165h-596v-361 q0 -72 25 -101.5t87 -29.5h563z" />
<glyph unicode="&#x117;" horiz-adv-x="1103" d="M606 1180h-63q-58 0 -58 59v115q0 57 58 57h63q60 0 60 -57v-115q0 -59 -60 -59zM614 141q130 0 351 25l18 -131q-66 -30 -179 -45t-214 -15q-263 0 -373.5 119.5t-110.5 407.5q0 197 49.5 312t149 163.5t266.5 48.5q227 0 332 -84t105 -252q2 -138 -59 -212.5 t-183 -74.5h-449q7 -81 26.5 -132.5t57.5 -80t87 -39t126 -10.5zM580 858q-148 0 -205.5 -62.5t-61.5 -238.5h398q98 0 98 133q0 92 -50.5 130t-178.5 38z" />
<glyph unicode="&#x118;" horiz-adv-x="1150" d="M1059 -301l24 -82q-64 -26 -119 -36t-93 -3.5t-65 24t-39 44.5t-12 60t13 69q41 117 182 229q-162 -8 -506 -8q-131 0 -206.5 68t-77.5 186v913q2 117 78 185.5t206 68.5q421 0 607 -16l-9 -160h-563q-62 0 -87 -29.5t-25 -101.5v-283h596v-165h-596v-361 q0 -72 25 -101.5t87 -29.5h563l9 -158q-108 -128 -146 -227q-30 -70 15.5 -93.5t138.5 7.5z" />
<glyph unicode="&#x119;" horiz-adv-x="1103" d="M991 -279l25 -81q-64 -26 -119 -36t-93 -3.5t-65.5 24t-39.5 44t-12 59.5t13 69q29 93 146 201q-124 -23 -256 -23q-263 0 -373.5 119.5t-110.5 407.5q0 197 49.5 312t149 163.5t266.5 48.5q227 0 332 -84t105 -252q2 -138 -59 -212.5t-183 -74.5h-449q7 -81 26.5 -132.5 t57.5 -80t87 -39t126 -10.5q130 0 351 25l18 -131q-105 -125 -145 -228q-30 -70 15 -93.5t138 7.5zM580 858q-148 0 -205.5 -62.5t-61.5 -238.5h398q98 0 98 133q0 92 -50.5 130t-178.5 38z" />
<glyph unicode="&#x11a;" horiz-adv-x="1150" d="M590 1563l-295 264l67 84l265 -172h16l266 172l68 -84l-297 -264h-90zM1042 170l9 -158q-186 -16 -607 -16q-131 0 -206.5 68t-77.5 186v913q2 117 78 185.5t206 68.5q421 0 607 -16l-9 -160h-563q-62 0 -87 -29.5t-25 -101.5v-283h596v-165h-596v-361q0 -72 25 -101.5 t87 -29.5h563z" />
<glyph unicode="&#x11b;" horiz-adv-x="1103" d="M530 1155l-294 264l67 84l264 -172h17l266 172l68 -84l-297 -264h-91zM614 141q130 0 351 25l18 -131q-66 -30 -179 -45t-214 -15q-263 0 -373.5 119.5t-110.5 407.5q0 197 49.5 312t149 163.5t266.5 48.5q227 0 332 -84t105 -252q2 -138 -59 -212.5t-183 -74.5h-449 q7 -81 26.5 -132.5t57.5 -80t87 -39t126 -10.5zM580 858q-148 0 -205.5 -62.5t-61.5 -238.5h398q98 0 98 133q0 92 -50.5 130t-178.5 38z" />
<glyph unicode="&#x11e;" horiz-adv-x="1288" d="M672 1524q-151 0 -237 77t-77 199l101 15q-2 -69 53.5 -107.5t159.5 -38.5q101 0 157 38.5t54 107.5l100 -15q9 -123 -75.5 -199.5t-235.5 -76.5zM1153 815v-815h-149l-21 143q-74 -70 -181 -120t-239 -50q-234 0 -338 177.5t-104 562.5q0 172 20.5 293t63 206.5 t115.5 134.5t169.5 71t233.5 22q220 0 391 -43l-18 -156q-172 16 -361 16q-79 0 -132.5 -7.5t-101.5 -29t-76.5 -59.5t-50 -101t-30 -151t-8.5 -211q0 -305 62.5 -425.5t222.5 -120.5q92 0 169.5 32.5t163.5 91.5v539h199z" />
<glyph unicode="&#x11f;" horiz-adv-x="1148" d="M557 1155q-151 0 -236.5 77t-76.5 200l100 14q-2 -69 53.5 -107.5t159.5 -38.5q101 0 157 38.5t54 107.5l100 -14q9 -123 -75.5 -200t-235.5 -77zM1096 893l-142 -14q35 -63 35 -174q0 -171 -96.5 -245.5t-337.5 -74.5q-111 0 -199 16q-18 -30 -20 -62.5t20 -59t66 -33.5 l369 -58q140 -21 200 -88.5t60 -195.5q0 -91 -24 -150t-82 -96t-148 -52.5t-230 -15.5q-276 0 -382.5 67t-106.5 241q0 82 37 132.5t123 96.5q-71 62 -63.5 160t77.5 151q-69 36 -100 100.5t-31 163.5q0 176 96 250t340 74q149 0 240 -27h309zM555 535q140 0 195 38.5 t55 131.5q0 95 -54.5 132t-195.5 37q-143 0 -198.5 -37t-55.5 -132q0 -93 56.5 -131.5t197.5 -38.5zM856 -86q0 70 -31 91.5t-139 37.5l-321 41q-49 -41 -71 -79t-22 -91q0 -100 55.5 -128t237.5 -28q176 0 233.5 30t57.5 126z" />
<glyph unicode="&#x120;" horiz-adv-x="1288" d="M705 1546h-64q-57 0 -57 60v114q0 58 57 58h64q59 0 59 -58v-114q0 -60 -59 -60zM1153 815v-815h-149l-21 143q-74 -70 -181 -120t-239 -50q-234 0 -338 177.5t-104 562.5q0 172 20.5 293t63 206.5t115.5 134.5t169.5 71t233.5 22q220 0 391 -43l-18 -156 q-172 16 -361 16q-79 0 -132.5 -7.5t-101.5 -29t-76.5 -59.5t-50 -101t-30 -151t-8.5 -211q0 -305 62.5 -425.5t222.5 -120.5q92 0 169.5 32.5t163.5 91.5v539h199z" />
<glyph unicode="&#x121;" horiz-adv-x="1148" d="M590 1180h-64q-57 0 -57 59v115q0 57 57 57h64q59 0 59 -57v-115q0 -59 -59 -59zM1096 893l-142 -14q35 -63 35 -174q0 -171 -96.5 -245.5t-337.5 -74.5q-111 0 -199 16q-18 -30 -20 -62.5t20 -59t66 -33.5l369 -58q140 -21 200 -88.5t60 -195.5q0 -91 -24 -150t-82 -96 t-148 -52.5t-230 -15.5q-276 0 -382.5 67t-106.5 241q0 82 37 132.5t123 96.5q-71 62 -63.5 160t77.5 151q-69 36 -100 100.5t-31 163.5q0 176 96 250t340 74q149 0 240 -27h309zM555 535q140 0 195 38.5t55 131.5q0 95 -54.5 132t-195.5 37q-143 0 -198.5 -37t-55.5 -132 q0 -93 56.5 -131.5t197.5 -38.5zM856 -86q0 70 -31 91.5t-139 37.5l-321 41q-49 -41 -71 -79t-22 -91q0 -100 55.5 -128t237.5 -28q176 0 233.5 30t57.5 126z" />
<glyph unicode="&#x122;" horiz-adv-x="1288" d="M1153 815v-815h-149l-21 143q-74 -70 -181 -120t-239 -50q-234 0 -338 177.5t-104 562.5q0 172 20.5 293t63 206.5t115.5 134.5t169.5 71t233.5 22q220 0 391 -43l-18 -156q-172 16 -361 16q-79 0 -132.5 -7.5t-101.5 -29t-76.5 -59.5t-50 -101t-30 -151t-8.5 -211 q0 -305 62.5 -425.5t222.5 -120.5q92 0 169.5 32.5t163.5 91.5v539h199zM641 -119h53q37 0 50.5 -13t13.5 -48v-111q-3 -151 -70 -276l-86 22q21 108 21 211q-25 0 -38.5 14t-13.5 39l2 101q1 35 16.5 48t51.5 13z" />
<glyph unicode="&#x123;" horiz-adv-x="1148" d="M612 1139h-53q-37 0 -50 13t-13 48v111q3 153 69 276l86 -22q-20 -103 -20 -211q24 0 37.5 -14.5t13.5 -39.5l-2 -100q-1 -35 -16.5 -48t-51.5 -13zM1096 893l-142 -14q35 -63 35 -174q0 -171 -96.5 -245.5t-337.5 -74.5q-111 0 -199 16q-18 -30 -20 -62.5t20 -59 t66 -33.5l369 -58q140 -21 200 -88.5t60 -195.5q0 -91 -24 -150t-82 -96t-148 -52.5t-230 -15.5q-276 0 -382.5 67t-106.5 241q0 82 37 132.5t123 96.5q-71 62 -63.5 160t77.5 151q-69 36 -100 100.5t-31 163.5q0 176 96 250t340 74q149 0 240 -27h309zM555 535 q140 0 195 38.5t55 131.5q0 95 -54.5 132t-195.5 37q-143 0 -198.5 -37t-55.5 -132q0 -93 56.5 -131.5t197.5 -38.5zM856 -86q0 70 -31 91.5t-139 37.5l-321 41q-49 -41 -71 -79t-22 -91q0 -100 55.5 -128t237.5 -28q176 0 233.5 30t57.5 126z" />
<glyph unicode="&#x126;" horiz-adv-x="1388" d="M1348 1061h-140v-1061h-204v666h-619v-666h-205v1061h-141v106h141v246h205v-246h619v246h204v-246h140v-106zM1004 1061h-619v-219h619v219z" />
<glyph unicode="&#x127;" horiz-adv-x="1202" d="M784 1026q131 0 201 -71t70 -205v-750h-199v692q0 94 -28 130t-99 36q-79 0 -161.5 -34.5t-207.5 -112.5v-711h-198v1167h-152v113h152v154h198v-154h289v-113h-287v-120q0 -121 -14 -195q238 174 436 174z" />
<glyph unicode="&#x12a;" horiz-adv-x="548" d="M563 1602h-577v145h577v-145zM377 0h-205v1413h205v-1413z" />
<glyph unicode="&#x12b;" horiz-adv-x="522" d="M551 1235h-578v145h578v-145zM360 0h-198v999h198v-999z" />
<glyph unicode="&#x12e;" horiz-adv-x="548" d="M360 -313l25 -82q-77 -31 -140 -39t-101 6t-62.5 41.5t-24.5 66.5t13 82q43 124 190 238h-88v1413h205v-1413h-25q-106 -126 -145 -227q-30 -70 15 -93.5t138 7.5z" />
<glyph unicode="&#x12f;" horiz-adv-x="522" d="M293 1180h-64q-57 0 -57 59v115q0 57 57 57h64q59 0 59 -57v-115q0 -59 -59 -59zM352 -313l25 -82q-64 -26 -119 -36t-93 -3.5t-65.5 24t-39.5 44t-12 59.5t13 69q43 123 191 238h-90v999h198v-999h-16q-106 -126 -145 -227q-30 -70 15 -93.5t138 7.5z" />
<glyph unicode="&#x130;" horiz-adv-x="548" d="M242 1778h63q60 0 60 -58v-114q0 -60 -60 -60h-63q-58 0 -58 60v114q0 58 58 58zM377 0h-205v1413h205v-1413z" />
<glyph unicode="&#x131;" horiz-adv-x="522" d="M360 0h-198v999h198v-999z" />
<glyph unicode="&#x132;" horiz-adv-x="1251" d="M377 0h-205v1413h205v-1413zM1085 1413v-1104q0 -161 -71.5 -245t-206.5 -82q-121 0 -201 26l23 148h100q152 0 152 143v1114h204z" />
<glyph unicode="&#x133;" horiz-adv-x="1044" d="M215 1425h92q60 0 60 -57v-115q0 -59 -60 -59h-92q-59 0 -59 59v115q0 57 59 57zM737 1425h94q58 0 58 -57v-115q0 -59 -58 -59h-94q-59 0 -59 59v115q0 57 59 57zM358 0h-196v999h196v-999zM883 999v-1009q0 -124 -54.5 -230.5t-148.5 -173.5l-111 86q60 75 87.5 150 t27.5 168v1009h199z" />
<glyph unicode="&#x136;" horiz-adv-x="1222" d="M1190 0h-229l-437 653h-162q15 -73 15 -145v-508h-205v1413h205v-434q0 -83 -15 -160h160l416 594h223l-399 -577q-32 -49 -84 -99v-6q60 -51 96 -106zM623 -119h53q37 0 50 -13t13 -48v-111q-3 -153 -69 -276l-86 22q20 103 20 211q-51 0 -51 53l2 101q1 35 16.5 48 t51.5 13z" />
<glyph unicode="&#x137;" horiz-adv-x="1058" d="M1028 0h-229l-332 492h-125q10 -88 10 -156v-336h-198v1434h198l2 -629q0 -78 -10 -170h123l299 364h229l-301 -362q-26 -37 -73 -74v-4q39 -31 73 -86zM547 -119h53q37 0 50.5 -13t13.5 -48v-111q-3 -151 -70 -276l-86 22q20 103 20 211q-51 0 -51 53l2 101 q1 35 16.5 48t51.5 13z" />
<glyph unicode="&#x139;" horiz-adv-x="1054" d="M606 1726l-407 -239l-66 92l363 299zM373 1413v-1110q0 -72 29.5 -101.5t101.5 -29.5h502l8 -158q-198 -18 -545 -18q-301 0 -301 278v1139h205z" />
<glyph unicode="&#x13a;" horiz-adv-x="618" d="M592 1769l-408 -239l-65 92l362 299zM354 1434l-2 -1145q0 -127 131 -127h92l23 -154q-28 -12 -86 -19t-104 -7q-117 0 -184.5 68t-67.5 194v1190h198z" />
<glyph unicode="&#x13b;" horiz-adv-x="1054" d="M373 1413v-1110q0 -72 29.5 -101.5t101.5 -29.5h502l8 -158q-198 -18 -545 -18q-301 0 -301 278v1139h205zM578 -121h53q37 0 50 -13t13 -48v-111q-3 -153 -69 -276l-86 22q20 103 20 211q-51 0 -51 53l2 101q1 35 16.5 48t51.5 13z" />
<glyph unicode="&#x13c;" horiz-adv-x="618" d="M354 1434l-2 -1145q0 -127 131 -127h92l23 -154q-28 -12 -86 -19t-104 -7q-117 0 -184.5 68t-67.5 194v1190h198zM330 -121h53q37 0 50 -13t13 -48v-111q-3 -153 -69 -276l-86 22q20 103 20 211q-51 0 -51 53l2 101q1 35 16.5 48t51.5 13z" />
<glyph unicode="&#x13d;" horiz-adv-x="1054" d="M668 1415h53q37 0 50 -13t13 -48v-111q-3 -153 -69 -276l-86 22q20 103 20 211q-51 0 -51 53l2 101q1 35 16.5 48t51.5 13zM373 1413v-1110q0 -72 29.5 -101.5t101.5 -29.5h502l8 -158q-198 -18 -545 -18q-301 0 -301 278v1139h205z" />
<glyph unicode="&#x13e;" horiz-adv-x="618" d="M530 1440h54q35 0 49 -12.5t12 -43.5l2 -102q-3 -138 -69 -252l-86 21q20 94 20 192q-51 0 -51 49v92q3 31 18.5 43.5t50.5 12.5zM354 1434l-2 -1145q0 -127 131 -127h92l23 -154q-28 -12 -86 -19t-104 -7q-117 0 -184.5 68t-67.5 194v1190h198z" />
<glyph unicode="&#x13f;" horiz-adv-x="1054" d="M373 1413v-1110q0 -72 29.5 -101.5t101.5 -29.5h502l8 -158q-198 -18 -545 -18q-301 0 -301 278v1139h205zM838 696h-64q-59 0 -59 58v114q0 60 59 60h64q57 0 57 -60v-114q0 -58 -57 -58z" />
<glyph unicode="&#x140;" horiz-adv-x="669" d="M354 1434l-2 -1145q0 -127 131 -127h92l23 -154q-28 -12 -86 -19t-104 -7q-117 0 -184.5 68t-67.5 194v1190h198zM616 682h-63q-59 0 -59 59v115q0 57 59 57h63q58 0 58 -57v-115q0 -59 -58 -59z" />
<glyph unicode="&#x141;" horiz-adv-x="1067" d="M1018 172l8 -158q-198 -18 -543 -18q-303 0 -303 278v404l-141 -60v125l141 60v610h205v-526l231 96v-125l-231 -96v-459q0 -72 30 -101.5t101 -29.5h502z" />
<glyph unicode="&#x142;" horiz-adv-x="679" d="M618 162l25 -154q-28 -12 -87 -19t-105 -7q-117 0 -184.5 68t-67.5 194v428l-160 -66v127l160 66v635h198v-551l217 90v-127l-219 -90v-467q0 -63 34 -95t97 -32h92z" />
<glyph unicode="&#x143;" horiz-adv-x="1449" d="M1073 1726l-407 -239l-66 92l363 299zM1278 1413v-1333q0 -80 -76 -80h-194q-62 0 -88 63l-441 963q-72 152 -84 197h-26q8 -88 8 -197v-1026h-205v1333q0 80 80 80h188q62 0 88 -63l428 -938q53 -104 99 -211h30q-10 123 -10 219v993h203z" />
<glyph unicode="&#x144;" horiz-adv-x="1193" d="M535 1120l-66 92l362 299l111 -151zM776 1026q132 0 201.5 -70.5t69.5 -205.5v-750h-199v692q0 94 -28 130t-99 36q-78 0 -157.5 -34.5t-213.5 -114.5l2 -709h-198v999h168l12 -151q236 178 442 178z" />
<glyph unicode="&#x145;" horiz-adv-x="1449" d="M1278 1413v-1333q0 -80 -76 -80h-194q-62 0 -88 63l-441 963q-72 152 -84 197h-26q8 -88 8 -197v-1026h-205v1333q0 80 80 80h188q62 0 88 -63l428 -938q53 -104 99 -211h30q-10 123 -10 219v993h203zM674 -119h53q37 0 50.5 -13t13.5 -48v-111q-3 -151 -70 -276l-86 22 q20 103 20 211q-51 0 -51 53l2 101q1 35 16.5 48t51.5 13z" />
<glyph unicode="&#x146;" horiz-adv-x="1193" d="M776 1026q132 0 201.5 -70.5t69.5 -205.5v-750h-199v692q0 94 -28 130t-99 36q-78 0 -157.5 -34.5t-213.5 -114.5l2 -709h-198v999h168l12 -151q236 178 442 178zM571 -119h52q37 0 50.5 -13t12.5 -48l2 -111q-3 -147 -72 -276l-86 22q21 108 21 211q-23 0 -36 14t-13 39 v101q1 35 17 48t52 13z" />
<glyph unicode="&#x147;" horiz-adv-x="1449" d="M1083 1786l-297 -264h-90l-295 264l68 84l264 -172h17l266 172zM1278 1413v-1333q0 -80 -76 -80h-194q-62 0 -88 63l-441 963q-72 152 -84 197h-26q8 -88 8 -197v-1026h-205v1333q0 80 80 80h188q62 0 88 -63l428 -938q53 -104 99 -211h30q-10 123 -10 219v993h203z" />
<glyph unicode="&#x148;" horiz-adv-x="1193" d="M567 1155l-295 264l68 84l264 -172h17l266 172l67 -84l-297 -264h-90zM776 1026q132 0 201.5 -70.5t69.5 -205.5v-750h-199v692q0 94 -28 130t-99 36q-78 0 -157.5 -34.5t-213.5 -114.5l2 -709h-198v999h168l12 -151q236 178 442 178z" />
<glyph unicode="&#x14a;" horiz-adv-x="1449" d="M1278 1413v-1567q0 -136 -76 -212t-205 -74q-108 0 -190 28l22 129h97q159 0 159 146v137h-71q-31 0 -60 57l-477 932q-31 59 -86 197h-24q10 -66 10 -199v-987h-205v1333q0 80 78 80h149q34 0 53 -14.5t37 -48.5l465 -901q40 -75 99 -213h30q-10 120 -10 215v962h205z " />
<glyph unicode="&#x14b;" horiz-adv-x="1193" d="M774 1026q134 0 203.5 -70t69.5 -206v-881q0 -139 -67 -213.5t-192 -73.5q-99 0 -188 29l23 127h86q139 0 139 147v807q0 83 -29 117.5t-104 34.5q-127 0 -365 -135l2 -709h-198v999h153l19 -161q235 188 448 188z" />
<glyph unicode="&#x14c;" horiz-adv-x="1370" d="M973 1602h-578v145h578v-145zM686 1440q213 0 334 -68.5t176 -226t55 -438.5t-55 -439t-176 -226.5t-334 -68.5t-334 68.5t-176 226.5t-55 439t55 438.5t176 226t334 68.5zM686 1257q-135 0 -209.5 -51t-107.5 -169t-33 -330t33 -330t108 -169.5t209 -51.5t208.5 51.5 t107 169t32.5 330.5q0 160 -17 263t-58.5 168.5t-106.5 92t-166 26.5z" />
<glyph unicode="&#x14d;" horiz-adv-x="1167" d="M870 1235h-577v145h577v-145zM586 1026q259 0 367 -120t108 -408q0 -286 -108 -405.5t-367 -119.5q-261 0 -370.5 119.5t-109.5 405.5q0 287 109.5 407.5t370.5 120.5zM584 858q-156 0 -213.5 -75t-57.5 -285q0 -207 57.5 -283t213.5 -76q154 0 212 76.5t58 282.5 q0 143 -25.5 219.5t-82.5 108.5t-162 32z" />
<glyph unicode="&#x150;" horiz-adv-x="1370" d="M768 1804l-281 -329l-88 65l228 363zM1114 1804l-283 -329l-83 65l223 363zM686 1440q213 0 334 -68.5t176 -226t55 -438.5t-55 -439t-176 -226.5t-334 -68.5t-334 68.5t-176 226.5t-55 439t55 438.5t176 226t334 68.5zM686 1257q-135 0 -209.5 -51t-107.5 -169t-33 -330 t33 -330t108 -169.5t209 -51.5t208.5 51.5t107 169t32.5 330.5q0 160 -17 263t-58.5 168.5t-106.5 92t-166 26.5z" />
<glyph unicode="&#x151;" horiz-adv-x="1167" d="M666 1438l-281 -330l-88 66l227 362zM1012 1438l-283 -330l-84 66l223 362zM586 1026q259 0 367 -120t108 -408q0 -286 -108 -405.5t-367 -119.5q-261 0 -370.5 119.5t-109.5 405.5q0 287 109.5 407.5t370.5 120.5zM584 858q-156 0 -213.5 -75t-57.5 -285 q0 -207 57.5 -283t213.5 -76q154 0 212 76.5t58 282.5q0 143 -25.5 219.5t-82.5 108.5t-162 32z" />
<glyph unicode="&#x152;" horiz-adv-x="1880" d="M1769 170l9 -158q-188 -16 -617 -16q-79 0 -143 45q-80 -38 -153 -53t-181 -15q-212 0 -332.5 68.5t-175.5 227t-55 438.5q0 211 29 349t97 225t173 123t264 36q110 0 184 -14.5t162 -51.5q64 43 150 43q414 0 598 -16l-9 -160h-520q-71 0 -101 -29.5t-30 -101.5v-281 l572 -2v-165l-572 -3v-358q0 -72 30 -101.5t101 -29.5h520zM336 707q0 -213 32.5 -330.5t107 -169t208.5 -51.5t240 28q-13 47 -13 90v865q0 43 13 90q-119 28 -240 28q-135 0 -209 -50.5t-106.5 -168t-32.5 -331.5z" />
<glyph unicode="&#x153;" horiz-adv-x="1853" d="M1364 141q125 0 346 25l21 -131q-68 -30 -181.5 -45t-214.5 -15q-268 0 -377 123q-108 -125 -374 -125q-261 0 -369.5 119.5t-108.5 405.5q0 288 108.5 408t369.5 120t368 -121q107 121 353 121q450 0 450 -313q1 -169 -70.5 -234t-242.5 -65h-379q6 -85 25 -138.5 t57.5 -83t89 -40.5t129.5 -11zM584 139q146 0 205 66t65 241l-2 62v51q-6 171 -65 235t-203 64q-156 0 -213.5 -75t-57.5 -285q0 -207 57.5 -283t213.5 -76zM1311 858q-135 0 -190.5 -64t-61.5 -231v-4h371q74 0 102 35t24 121q-6 73 -63.5 108t-181.5 35z" />
<glyph unicode="&#x154;" horiz-adv-x="1269" d="M545 1487l-66 92l363 299l110 -152zM1184 0h-219l-121 440q-25 76 -66.5 109t-111.5 33l-291 2v-584h-203v1413q185 19 494 19q129 0 214.5 -19.5t143.5 -67t83.5 -126t25.5 -197.5q0 -169 -61 -255t-200 -105v-11q59 -17 108 -68t71 -137zM375 758h287q151 2 207.5 54.5 t56.5 197.5q0 144 -56 194.5t-208 50.5q-209 0 -287 -2v-495z" />
<glyph unicode="&#x155;" horiz-adv-x="827" d="M393 1120l-65 92l362 299l111 -151zM307 999l21 -153q225 180 422 180h45l-23 -186h-61q-73 0 -151 -26.5t-208 -88.5v-725h-198v999h153z" />
<glyph unicode="&#x156;" horiz-adv-x="1269" d="M1184 0h-219l-121 440q-25 76 -66.5 109t-111.5 33l-291 2v-584h-203v1413q185 19 494 19q129 0 214.5 -19.5t143.5 -67t83.5 -126t25.5 -197.5q0 -169 -61 -255t-200 -105v-11q59 -17 108 -68t71 -137zM375 758h287q151 2 207.5 54.5t56.5 197.5q0 144 -56 194.5 t-208 50.5q-209 0 -287 -2v-495zM647 -119h53q37 0 50.5 -13t13.5 -48v-111q-3 -151 -70 -276l-86 22q21 108 21 211q-51 0 -51 53l2 101q1 35 16 48t51 13z" />
<glyph unicode="&#x157;" horiz-adv-x="827" d="M795 1026l-23 -186h-61q-73 0 -151 -26.5t-208 -88.5v-725h-198v999h153l21 -153q225 180 422 180h45zM209 -119h53q37 0 50.5 -13t13.5 -48v-111q-3 -151 -70 -276l-86 22q20 103 20 211q-51 0 -51 53l2 101q1 35 16.5 48t51.5 13z" />
<glyph unicode="&#x158;" horiz-adv-x="1269" d="M575 1522l-294 264l67 84l264 -172h17l266 172l68 -84l-297 -264h-91zM1184 0h-219l-121 440q-25 76 -66.5 109t-111.5 33l-291 2v-584h-203v1413q185 19 494 19q129 0 214.5 -19.5t143.5 -67t83.5 -126t25.5 -197.5q0 -169 -61 -255t-200 -105v-11q59 -17 108 -68 t71 -137zM375 758h287q151 2 207.5 54.5t56.5 197.5q0 144 -56 194.5t-208 50.5q-209 0 -287 -2v-495z" />
<glyph unicode="&#x159;" horiz-adv-x="827" d="M424 1155l-295 264l68 84l264 -172h16l266 172l68 -84l-297 -264h-90zM307 999l21 -153q225 180 422 180h45l-23 -186h-61q-73 0 -151 -26.5t-208 -88.5v-725h-198v999h153z" />
<glyph unicode="&#x15a;" horiz-adv-x="1153" d="M901 1726l-407 -239l-66 92l363 299zM573 1438q250 0 426 -43l-12 -150q-297 10 -403 10q-49 0 -77 -1t-61 -5t-50.5 -12t-35.5 -22t-26.5 -35t-13.5 -51t-5 -70q0 -104 37.5 -147t132.5 -68l281 -78q158 -43 222.5 -139t64.5 -262q0 -98 -18.5 -166t-52.5 -112 t-95 -68.5t-134.5 -34t-181.5 -9.5q-226 0 -444 41l14 152q320 -10 434 -10q83 1 130.5 8.5t81 30.5t45.5 63t12 107q0 57 -9.5 94t-32.5 61t-50.5 36.5t-75.5 25.5l-287 80q-151 42 -215.5 138.5t-64.5 262.5q0 82 11.5 141.5t38.5 101t61.5 67t91 39.5t116 19t145.5 5z " />
<glyph unicode="&#x15b;" horiz-adv-x="1042" d="M862 1360l-407 -240l-66 92l363 299zM494 1026q234 -4 424 -35l-15 -143q-317 10 -381 10h-61.5t-49 -1.5t-41 -4.5t-30 -8.5t-24 -13t-14 -19.5t-9.5 -27t-2 -36q0 -63 27.5 -85.5t101.5 -43.5l12 -3l283 -69q85 -22 133.5 -53.5t74 -86.5t25.5 -141q0 -74 -17 -125 t-48.5 -83t-87 -50t-120.5 -24.5t-161 -6.5q-210 0 -397 29l14 148q127 -11 342 -11q168 0 225.5 24t57.5 99q0 26 -7 44.5t-15.5 29.5t-30.5 21t-36.5 14.5t-47.5 13.5q-10 3 -15 4l-278 70q-124 32 -176 97t-52 188q0 165 89 222.5t307 55.5z" />
<glyph unicode="&#x15e;" horiz-adv-x="1153" d="M573 1438q250 0 426 -43l-12 -150q-297 10 -403 10q-49 0 -77 -1t-61 -5t-50.5 -12t-35.5 -22t-26.5 -35t-13.5 -51t-5 -70q0 -104 37.5 -147t132.5 -68l281 -78q158 -43 222.5 -139t64.5 -262q0 -98 -18.5 -166t-52.5 -112t-95 -68.5t-134.5 -34t-181.5 -9.5 q-226 0 -444 41l14 152q320 -10 434 -10q83 1 130.5 8.5t81 30.5t45.5 63t12 107q0 57 -9.5 94t-32.5 61t-50.5 36.5t-75.5 25.5l-287 80q-151 42 -215.5 138.5t-64.5 262.5q0 82 11.5 141.5t38.5 101t61.5 67t91 39.5t116 19t145.5 5zM467 -203l20 92q135 13 190 -13.5 t52 -119.5q-3 -134 -102.5 -204t-251.5 -50l33 105q77 -3 127.5 35t52.5 98q2 32 -22.5 44t-98.5 13z" />
<glyph unicode="&#x15f;" horiz-adv-x="1042" d="M494 1026q234 -4 424 -35l-15 -143q-317 10 -381 10h-61.5t-49 -1.5t-41 -4.5t-30 -8.5t-24 -13t-14 -19.5t-9.5 -27t-2 -36q0 -63 27.5 -85.5t101.5 -43.5l12 -3l283 -69q85 -22 133.5 -53.5t74 -86.5t25.5 -141q0 -74 -17 -125t-48.5 -83t-87 -50t-120.5 -24.5 t-161 -6.5q-210 0 -397 29l14 148q127 -11 342 -11q168 0 225.5 24t57.5 99q0 26 -7 44.5t-15.5 29.5t-30.5 21t-36.5 14.5t-47.5 13.5q-10 3 -15 4l-278 70q-124 32 -176 97t-52 188q0 165 89 222.5t307 55.5zM395 -201l21 92q135 13 189.5 -13.5t51.5 -119.5 q-3 -134 -102.5 -204t-251.5 -50l33 105q77 -3 127.5 35t52.5 98q2 32 -22.5 44t-98.5 13z" />
<glyph unicode="&#x160;" horiz-adv-x="1153" d="M913 1786l-297 -264h-90l-295 264l68 84l264 -172h17l266 172zM573 1438q250 0 426 -43l-12 -150q-297 10 -403 10q-49 0 -77 -1t-61 -5t-50.5 -12t-35.5 -22t-26.5 -35t-13.5 -51t-5 -70q0 -104 37.5 -147t132.5 -68l281 -78q158 -43 222.5 -139t64.5 -262 q0 -98 -18.5 -166t-52.5 -112t-95 -68.5t-134.5 -34t-181.5 -9.5q-226 0 -444 41l14 152q320 -10 434 -10q83 1 130.5 8.5t81 30.5t45.5 63t12 107q0 57 -9.5 94t-32.5 61t-50.5 36.5t-75.5 25.5l-287 80q-151 42 -215.5 138.5t-64.5 262.5q0 82 11.5 141.5t38.5 101 t61.5 67t91 39.5t116 19t145.5 5z" />
<glyph unicode="&#x161;" horiz-adv-x="1042" d="M874 1419l-296 -264h-91l-294 264l67 84l264 -172h17l266 172zM494 1026q234 -4 424 -35l-15 -143q-317 10 -381 10h-61.5t-49 -1.5t-41 -4.5t-30 -8.5t-24 -13t-14 -19.5t-9.5 -27t-2 -36q0 -63 27.5 -85.5t101.5 -43.5l12 -3l283 -69q85 -22 133.5 -53.5t74 -86.5 t25.5 -141q0 -74 -17 -125t-48.5 -83t-87 -50t-120.5 -24.5t-161 -6.5q-210 0 -397 29l14 148q127 -11 342 -11q168 0 225.5 24t57.5 99q0 26 -7 44.5t-15.5 29.5t-30.5 21t-36.5 14.5t-47.5 13.5q-10 3 -15 4l-278 70q-124 32 -176 97t-52 188q0 165 89 222.5t307 55.5z " />
<glyph unicode="&#x162;" horiz-adv-x="1196" d="M1149 1413v-182h-449v-1231h-206v1231h-445v182h1100zM475 -178l21 92q135 13 189.5 -13.5t51.5 -119.5q-3 -134 -102.5 -204t-251.5 -50l33 104q77 -3 127.5 35t52.5 98q2 33 -22.5 45t-98.5 13z" />
<glyph unicode="&#x163;" horiz-adv-x="794" d="M430 846v-557q0 -70 29.5 -98.5t101.5 -28.5h146l22 -154q-95 -26 -235 -26q-127 0 -194 72.5t-67 207.5v584h-182v143l182 10v293h197v-293h309v-153h-309zM332 -197l20 93q134 13 189.5 -14t52.5 -120q-3 -134 -102.5 -204t-251.5 -50l32 105q78 -3 128.5 35t52.5 98 q2 32 -22.5 44t-98.5 13z" />
<glyph unicode="&#x164;" horiz-adv-x="1196" d="M553 1522l-295 264l68 84l264 -172h16l266 172l68 -84l-297 -264h-90zM1149 1231h-449v-1231h-206v1231h-445v182h1100v-182z" />
<glyph unicode="&#x165;" horiz-adv-x="794" d="M623 1587h53q37 0 50 -13t13 -48v-111q-3 -153 -69 -276l-86 22q20 103 20 211q-51 0 -51 53l2 101q1 35 16.5 48t51.5 13zM430 999h309v-153h-309v-557q0 -70 29.5 -98.5t101.5 -28.5h146l22 -154q-95 -26 -235 -26q-127 0 -194 72.5t-67 207.5v584h-182v143l182 10v293 h197v-293z" />
<glyph unicode="&#x166;" horiz-adv-x="1196" d="M700 1231v-371h283v-112h-283v-748h-206v748h-283v112h283v371h-445v182h1100v-182h-449z" />
<glyph unicode="&#x167;" horiz-adv-x="794" d="M430 846v-187h256v-108h-256v-262q0 -70 29.5 -98.5t101.5 -28.5h146l22 -154q-95 -26 -235 -26q-127 0 -194 72.5t-67 207.5v289h-131v108h131v187h-182v143l182 10v293h197v-293h309v-153h-309z" />
<glyph unicode="&#x16a;" horiz-adv-x="1363" d="M973 1602h-578v145h578v-145zM1202 1413v-868q0 -311 -115.5 -441.5t-394.5 -130.5q-291 0 -410.5 130t-119.5 442v868h205v-868q0 -218 69 -303.5t246 -85.5q174 0 244.5 86t70.5 303v868h205z" />
<glyph unicode="&#x16b;" d="M881 1243h-578v146h578v-146zM1018 999v-999h-158l-14 137q-218 -164 -426 -164q-134 0 -203.5 70.5t-69.5 206.5v749h199v-692q-1 -92 31 -128t112 -36q71 0 146 31.5t186 101.5v723h197z" />
<glyph unicode="&#x16e;" horiz-adv-x="1363" d="M684 1898q92 0 157.5 -63t65.5 -156t-65 -155t-158 -62q-94 0 -158.5 62t-64.5 155t65 156t158 63zM684 1800q-50 0 -82.5 -33t-32.5 -88q0 -54 33 -85t82 -31q51 0 84 31t33 85q0 55 -33.5 88t-83.5 33zM1202 1413v-868q0 -311 -115.5 -441.5t-394.5 -130.5 q-291 0 -410.5 130t-119.5 442v868h205v-868q0 -218 69 -303.5t246 -85.5q174 0 244.5 86t70.5 303v868h205z" />
<glyph unicode="&#x16f;" d="M592 1104q-94 0 -158.5 62t-64.5 155t65 156t158 63q92 0 157.5 -63t65.5 -156t-65 -155t-158 -62zM592 1442q-50 0 -82.5 -33t-32.5 -88q0 -54 33 -85.5t82 -31.5q51 0 84 31.5t33 85.5q0 55 -33.5 88t-83.5 33zM1018 999v-999h-158l-14 137q-218 -164 -426 -164 q-134 0 -203.5 70.5t-69.5 206.5v749h199v-692q-1 -92 31 -128t112 -36q71 0 146 31.5t186 101.5v723h197z" />
<glyph unicode="&#x170;" horiz-adv-x="1363" d="M768 1804l-281 -329l-88 65l228 363zM1114 1804l-283 -329l-83 65l223 363zM1202 1413v-868q0 -311 -115.5 -441.5t-394.5 -130.5q-291 0 -410.5 130t-119.5 442v868h205v-868q0 -218 69 -303.5t246 -85.5q174 0 244.5 86t70.5 303v868h205z" />
<glyph unicode="&#x171;" d="M395 1116l-88 66l228 362l141 -98zM655 1182l224 362l143 -98l-283 -330zM821 999h197v-999h-158l-14 137q-218 -164 -426 -164q-134 0 -203.5 70.5t-69.5 206.5v749h199v-692q-1 -92 31 -128t112 -36q71 0 146 31.5t186 101.5v723z" />
<glyph unicode="&#x172;" horiz-adv-x="1363" d="M1202 1413v-868q0 -292 -101 -424.5t-341 -145.5q-102 -122 -139 -221q-30 -70 15 -93.5t138 7.5l25 -82q-64 -26 -119 -36t-93 -3.5t-65.5 24t-39.5 44.5t-12 60t13 69q39 112 183 229q-275 6 -389.5 137t-114.5 435v868h205v-868q0 -218 69 -303.5t246 -85.5 q174 0 244.5 86t70.5 303v868h205z" />
<glyph unicode="&#x173;" d="M1030 -313l25 -82q-64 -26 -119 -36t-93 -3.5t-65.5 24t-39.5 44t-12 59.5t13 69q43 123 191 238h-70l-14 137q-218 -164 -426 -164q-134 0 -203.5 70.5t-69.5 206.5v749h199v-692q-1 -92 31 -128t112 -36q71 0 146 31.5t186 101.5v723h197v-999h4q-106 -126 -145 -227 q-30 -70 15 -93.5t138 7.5z" />
<glyph unicode="&#x174;" horiz-adv-x="1947" d="M1317 1575l-68 -84l-266 197h-16l-265 -197l-65 84l266 264h146zM1884 1413l-270 -1354q-6 -26 -27.5 -42.5t-50.5 -16.5h-229q-29 0 -50.5 16.5t-27.5 44.5l-205 1039l-31 160h-41l-30 -160l-203 -1039q-6 -28 -28 -44.5t-52 -16.5h-229q-29 0 -51.5 16.5t-26.5 42.5 l-271 1354h218l200 -1077q16 -85 27 -180h47q9 77 31 180l202 1010q5 30 25.5 48.5t52.5 18.5h219q29 0 50 -19t26 -48l203 -1012q21 -105 29 -178h49q20 145 26 176l203 1081h215z" />
<glyph unicode="&#x175;" horiz-adv-x="1691" d="M1188 1210l-68 -84l-266 197h-16l-265 -197l-65 84l266 265h146zM1647 999l-283 -944q-6 -26 -26 -40.5t-48 -14.5h-178q-28 0 -50 17t-28 46l-145 658q-26 139 -31 160h-24q-16 -86 -33 -160l-144 -658q-6 -29 -27 -46t-50 -17h-174q-28 0 -49 14.5t-27 40.5l-283 944 h205l192 -720q21 -75 33 -154h27q5 26 16.5 77.5t16.5 76.5l147 659q6 28 25.5 44.5t48.5 16.5h178q29 0 48.5 -17t25.5 -46l145 -657q30 -127 35 -154h27q27 141 30 154l195 720h205z" />
<glyph unicode="&#x176;" horiz-adv-x="1175" d="M313 1493l-65 84l266 264h145l269 -264l-68 -84l-266 197h-16zM690 489v-489h-205v494l-467 919h218l284 -579q21 -42 62 -164h14q38 112 61 161l285 582h213z" />
<glyph unicode="&#x177;" horiz-adv-x="1091" d="M276 1126l-65 84l266 265h146l268 -265l-68 -84l-266 197h-16zM1057 999l-389 -1046q-21 -58 -47.5 -107.5t-67 -99t-88.5 -85t-114 -58t-142 -23.5l-19 131q117 35 185 96t108 156l15 37h-41q-58 0 -70 51l-354 948h211l250 -727q23 -65 34 -122h29l41 122l246 727h213z " />
<glyph unicode="&#x178;" horiz-adv-x="1175" d="M438 1567h-65q-54 0 -54 55v111q0 55 54 55h65q54 0 54 -55v-111q0 -55 -54 -55zM801 1567h-66q-28 0 -40.5 13t-12.5 42v111q0 55 53 55h66q26 0 40.5 -15t14.5 -40v-111q0 -55 -55 -55zM690 489v-489h-205v494l-467 919h218l284 -579q21 -42 62 -164h14q38 112 61 161 l285 582h213z" />
<glyph unicode="&#x179;" horiz-adv-x="1163" d="M512 1487l-66 92l363 299l111 -152zM1067 174v-174h-969v174l731 1065h-720v174h944v-174h2l-729 -1065h741z" />
<glyph unicode="&#x17a;" horiz-adv-x="1048" d="M451 1120l-66 92l363 299l110 -151zM952 162v-162h-854v162l625 676h-617v161h838v-161l-625 -676h633z" />
<glyph unicode="&#x17b;" horiz-adv-x="1163" d="M618 1546h-63q-57 0 -57 60v114q0 58 57 58h63q60 0 60 -58v-114q0 -60 -60 -60zM1067 174v-174h-969v174l731 1065h-720v174h944v-174h2l-729 -1065h741z" />
<glyph unicode="&#x17c;" horiz-adv-x="1048" d="M557 1180h-63q-58 0 -58 59v115q0 57 58 57h63q59 0 59 -57v-115q0 -59 -59 -59zM952 162v-162h-854v162l625 676h-617v161h838v-161l-625 -676h633z" />
<glyph unicode="&#x17d;" horiz-adv-x="1163" d="M543 1522l-295 264l67 84l265 -172h16l266 172l68 -84l-297 -264h-90zM1067 174v-174h-969v174l731 1065h-720v174h944v-174h2l-729 -1065h741z" />
<glyph unicode="&#x17e;" horiz-adv-x="1048" d="M481 1155l-295 264l68 84l264 -172h17l266 172l67 -84l-297 -264h-90zM952 162v-162h-854v162l625 676h-617v161h838v-161l-625 -676h633z" />
<glyph unicode="&#x192;" horiz-adv-x="919" d="M866 1270h-145q-90 0 -127.5 -31t-46.5 -123l-27 -295h283l-15 -155h-282l-64 -676q-13 -145 -86 -220t-225 -75q-136 0 -219 14l25 150h137q86 0 124.5 34t47.5 119l61 654h-203l11 147l207 8l28 318q12 143 93 220t231 77q138 0 219 -17z" />
<glyph unicode="&#x218;" horiz-adv-x="1153" d="M573 1438q250 0 426 -43l-12 -150q-297 10 -403 10q-49 0 -77 -1t-61 -5t-50.5 -12t-35.5 -22t-26.5 -35t-13.5 -51t-5 -70q0 -104 37.5 -147t132.5 -68l281 -78q158 -43 222.5 -139t64.5 -262q0 -98 -18.5 -166t-52.5 -112t-95 -68.5t-134.5 -34t-181.5 -9.5 q-226 0 -444 41l14 152q320 -10 434 -10q83 1 130.5 8.5t81 30.5t45.5 63t12 107q0 57 -9.5 94t-32.5 61t-50.5 36.5t-75.5 25.5l-287 80q-151 42 -215.5 138.5t-64.5 262.5q0 82 11.5 141.5t38.5 101t61.5 67t91 39.5t116 19t145.5 5zM557 -119h53q37 0 50.5 -13t13.5 -48 v-111q-3 -151 -70 -276l-86 22q21 108 21 211q-25 0 -38.5 14t-13.5 39l2 101q1 35 16.5 48t51.5 13z" />
<glyph unicode="&#x219;" horiz-adv-x="1042" d="M494 1026q234 -4 424 -35l-15 -143q-317 10 -381 10h-61.5t-49 -1.5t-41 -4.5t-30 -8.5t-24 -13t-14 -19.5t-9.5 -27t-2 -36q0 -63 27.5 -85.5t101.5 -43.5l12 -3l283 -69q85 -22 133.5 -53.5t74 -86.5t25.5 -141q0 -74 -17 -125t-48.5 -83t-87 -50t-120.5 -24.5 t-161 -6.5q-210 0 -397 29l14 148q127 -11 342 -11q168 0 225.5 24t57.5 99q0 26 -7 44.5t-15.5 29.5t-30.5 21t-36.5 14.5t-47.5 13.5q-10 3 -15 4l-278 70q-124 32 -176 97t-52 188q0 165 89 222.5t307 55.5zM508 -119h53q37 0 50.5 -13t13.5 -48v-111q-3 -151 -70 -276 l-86 22q20 103 20 211q-51 0 -51 53l2 101q1 35 16.5 48t51.5 13z" />
<glyph unicode="&#x21a;" horiz-adv-x="1196" d="M1149 1231h-449v-1231h-206v1231h-445v182h1100v-182zM549 -119h53q37 0 50.5 -13t13.5 -48v-111q-3 -151 -70 -276l-86 22q20 103 20 211q-51 0 -51 53l2 101q1 35 16.5 48t51.5 13z" />
<glyph unicode="&#x21b;" horiz-adv-x="794" d="M430 846v-557q0 -70 29.5 -98.5t101.5 -28.5h146l22 -154q-95 -26 -235 -26q-127 0 -194 72.5t-67 207.5v584h-182v143l182 10v293h197v-293h309v-153h-309zM444 -119h54q37 0 50 -13t13 -48v-111q-3 -153 -69 -276l-86 22q20 103 20 211q-51 0 -51 53l2 101q1 35 16 48 t51 13z" />
<glyph unicode="&#x2c6;" horiz-adv-x="870" d="M778 1198l-67 -84l-267 197h-16l-264 -197l-66 84l267 264h145z" />
<glyph unicode="&#x2c7;" horiz-adv-x="870" d="M778 1407l-297 -264h-90l-295 264l68 84l264 -172h16l267 172z" />
<glyph unicode="&#x2d8;" horiz-adv-x="774" d="M600 1430l100 -15q9 -123 -75.5 -199.5t-235.5 -76.5t-236.5 76.5t-76.5 199.5l100 15q-2 -69 53.5 -107.5t159.5 -38.5q101 0 157 38.5t54 107.5z" />
<glyph unicode="&#x2d9;" horiz-adv-x="458" d="M197 1407h63q59 0 59 -57v-115q0 -59 -59 -59h-63q-58 0 -58 59v115q0 57 58 57z" />
<glyph unicode="&#x2da;" horiz-adv-x="618" d="M309 1522q92 0 157.5 -63t65.5 -156t-65 -155.5t-158 -62.5q-94 0 -158.5 62.5t-64.5 155.5t65 156t158 63zM309 1423q-50 0 -82 -32.5t-32 -87.5q0 -54 32.5 -85.5t81.5 -31.5q51 0 84 31.5t33 85.5t-33 87t-84 33z" />
<glyph unicode="&#x2db;" horiz-adv-x="516" d="M293 4l86 -4q-108 -128 -146 -227q-30 -70 15.5 -93.5t138.5 7.5l25 -82q-64 -26 -119 -36t-93 -3.5t-65.5 24t-39.5 44t-12 59.5t13 69q41 122 197 242z" />
<glyph unicode="&#x2dc;" horiz-adv-x="868" d="M266 1438q53 -4 106 -29t104.5 -50t98.5 -30q55 -7 76 16t21 82h90q15 -118 -30.5 -181.5t-129.5 -57.5q-60 4 -116.5 29t-106.5 51t-90 32q-53 6 -72.5 -19.5t-19.5 -88.5h-91q-14 124 32.5 188t127.5 58z" />
<glyph unicode="&#x2dd;" horiz-adv-x="948" d="M479 1413l-280 -330l-88 66l227 362zM825 1413l-282 -330l-84 66l223 362z" />
<glyph unicode="&#x394;" horiz-adv-x="1288" d="M1241 82v-82h-1194v82l494 1331h207zM645 1214q-8 -28 -23.5 -83t-23.5 -82l-313 -883h714l-309 885q-9 24 -16.5 50.5t-16 62.5t-12.5 50z" />
<glyph unicode="&#x3a9;" horiz-adv-x="1472" d="M737 1440q307 0 444.5 -165.5t137.5 -508.5q0 -218 -66.5 -351.5t-224.5 -250.5q65 16 135 16h201l2 -180h-522l-2 172q147 104 204.5 232t59.5 337q-2 278 -87 398.5t-284 120.5q-202 0 -285 -120.5t-83 -402.5q0 -148 28.5 -249.5t82.5 -171t151 -144.5v-172h-523v180 h201q72 0 135 -16q-157 117 -223 253.5t-65 350.5q0 342 136.5 507t446.5 165z" />
<glyph unicode="&#x3bc;" horiz-adv-x="1224" d="M1047 999v-999h-154l-19 150q-203 -177 -389 -177q-79 0 -153 33q12 -65 12 -131v-283h-174v1407h199v-692q0 -75 39 -110t122 -35q71 0 143 25.5t175 84.5v727h199z" />
<glyph unicode="&#x3c0;" horiz-adv-x="1316" d="M1262 840h-185v-840h-198v840h-441v-840h-196v840h-187v159h1209z" />
<glyph unicode="&#x401;" horiz-adv-x="1148" d="M483 1608h-65q-53 0 -53 53v113q0 53 53 53h65q54 0 54 -53v-113q0 -53 -54 -53zM846 1608h-64q-29 0 -42 12.5t-13 40.5v113q0 53 55 53h64q26 0 40.5 -14t14.5 -39v-113q0 -53 -55 -53zM1040 170l9 -158q-186 -16 -607 -16q-131 0 -206.5 68.5t-75.5 185.5v913 q0 117 76 185.5t206 68.5q421 0 607 -16l-9 -160h-563q-62 0 -87 -29.5t-25 -101.5v-283h596v-165h-596v-361q0 -72 25 -101.5t87 -29.5h563z" />
<glyph unicode="&#x402;" horiz-adv-x="1542" d="M1104 909q62 0 110.5 -10t95.5 -38t78.5 -74.5t50.5 -124.5t19 -183q0 -139 -36.5 -237t-106.5 -154t-164 -79.5t-219 -18.5l-19 149q90 6 149.5 22.5t104.5 52t65.5 95.5t20.5 150q0 72 -8.5 121.5t-24 79.5t-44 46t-60 21.5t-80.5 5.5q-156 0 -336 -96v-637h-206v1231 h-445v182h1100v-182h-449v-432q187 110 404 110z" />
<glyph unicode="&#x403;" horiz-adv-x="1060" d="M936 1726l-408 -239l-65 92l362 299zM436 1417q404 0 586 -18l-8 -158h-510q-72 0 -101.5 -31t-29.5 -110v-1100h-205v1139q0 124 75 201t193 77z" />
<glyph unicode="&#x404;" horiz-adv-x="1183" d="M1081 180l21 -155q-167 -50 -410 -50q-214 0 -337 71.5t-178.5 229.5t-55.5 431q0 205 29.5 342t98 225t175.5 126t268 38q230 0 398 -41l-23 -160q-164 16 -375 16q-185 0 -265.5 -94t-92.5 -330l596 -2v-159h-598q2 -146 20.5 -241.5t62 -156t110 -85.5t167.5 -25 q245 0 389 20z" />
<glyph unicode="&#x405;" horiz-adv-x="1153" d="M573 1438q250 0 426 -43l-12 -150q-297 10 -405 10q-48 0 -76 -1t-60.5 -5t-50 -12t-35.5 -22t-26.5 -35t-13.5 -51t-5 -70q0 -104 37.5 -147t132.5 -68l281 -78q158 -43 222.5 -139t64.5 -262q0 -98 -18.5 -166t-52.5 -112t-95 -68.5t-134.5 -34t-181.5 -9.5 q-226 0 -444 41l14 152q320 -10 434 -10q83 1 130.5 8.5t81 30.5t45.5 63t12 107q0 57 -9.5 94t-32.5 61t-50.5 36.5t-75.5 25.5l-287 80q-151 42 -215.5 138.5t-64.5 262.5q0 82 11.5 141.5t38.5 101t61.5 67t91 39.5t116 19t145.5 5z" />
<glyph unicode="&#x406;" horiz-adv-x="548" d="M377 0h-205v1413h205v-1413z" />
<glyph unicode="&#x407;" horiz-adv-x="548" d="M59 1786h66q53 0 53 -55v-111q0 -29 -12.5 -42t-40.5 -13h-66q-28 0 -40.5 13t-12.5 42v111q0 55 53 55zM424 1786h63q26 0 41 -14.5t15 -40.5v-111q0 -55 -56 -55h-63q-29 0 -42 13t-13 42v111q0 55 55 55zM377 0h-205v1413h205v-1413z" />
<glyph unicode="&#x408;" horiz-adv-x="702" d="M537 1413v-1104q0 -161 -72 -245t-207 -82q-121 0 -201 26l23 148h100q152 0 152 143v1114h205z" />
<glyph unicode="&#x409;" horiz-adv-x="1988" d="M1151 854h276q265 0 368 -95.5t103 -340.5q0 -129 -23.5 -212.5t-79 -133t-135 -69t-202.5 -19.5q-327 0 -510 16l2 12v1235h-252q-63 0 -92 -35t-35 -104q-38 -401 -61.5 -553t-77.5 -283q-62 -142 -147.5 -205.5t-225.5 -70.5l-16 141q58 21 105.5 64.5t91.5 128.5 q16 31 28.5 62t23 72t18 68.5t15 82.5t11 81t10 98.5t9 100t9 119t9.5 125.5q18 274 307 274h471v-559zM1151 164l276 -2q160 0 212.5 51.5t52.5 206.5q0 77 -10.5 123.5t-39.5 80t-80.5 47t-134.5 13.5h-276v-520z" />
<glyph unicode="&#x40a;" horiz-adv-x="2002" d="M1165 852h275q266 0 369.5 -95.5t103.5 -342.5q0 -127 -23.5 -209.5t-79 -132t-135.5 -69t-202 -19.5q-329 0 -510 16v684h-586v-684h-205v1413h205v-561h586v561h202v-561zM1165 164l275 -2q162 0 214 50.5t52 205.5q0 77 -10 124t-39.5 81t-81 47.5t-135.5 13.5h-275 v-520z" />
<glyph unicode="&#x40b;" horiz-adv-x="1583" d="M1145 909q169 0 249.5 -78.5t80.5 -244.5v-586h-205v545q0 103 -43 143.5t-152 40.5q-99 0 -183 -21.5t-192 -74.5v-633h-206v1231h-445v182h1100v-182h-449v-434q218 112 445 112z" />
<glyph unicode="&#x40c;" horiz-adv-x="1239" d="M551 1487l-66 92l363 299l110 -152zM686 741v-8q52 -5 95 -22.5t76.5 -41.5t65.5 -67t55.5 -85t52 -111t50.5 -128.5t55 -153.5q28 -81 44 -124h-215q-103 295 -126 351q-73 179 -153 243q-71 58 -176 59h-148q15 -73 15 -145v-508h-205v1413h205v-434q0 -64 -15 -160 h142q145 0 239 134q67 95 148 329q11 30 45 131h207q-96 -281 -128 -356q-80 -189 -177 -260q-65 -47 -152 -56z" />
<glyph unicode="&#x40d;" horiz-adv-x="1421" d="M821 1579l-65 -92l-408 239l111 152zM1249 0h-198v997q0 102 12 168h-12q-33 -91 -74 -159l-594 -1006h-211v1413h197v-987q0 -97 -13 -174h13q30 83 77 160l590 1001h213v-1413z" />
<glyph unicode="&#x40e;" horiz-adv-x="1161" d="M582 1524q-151 0 -237 77t-77 199l101 15q-2 -69 53.5 -107.5t159.5 -38.5q101 0 157 38.5t54 107.5l100 -15q9 -123 -75.5 -199.5t-235.5 -76.5zM1145 1413l-377 -1063q-23 -65 -44 -113t-50.5 -95.5t-62 -78.5t-76.5 -52t-95 -25q-54 -4 -132.5 5t-133.5 25l25 150 q58 -4 90 -6t69 0t53.5 4.5t39 14t32 22.5t25.5 36t26 48t27 65l23 60h-76q-60 0 -94.5 24t-53.5 78l-321 901h211l274 -801q10 -30 41 -30h78l291 831h211z" />
<glyph unicode="&#x40f;" horiz-adv-x="1384" d="M1212 1413v-1413h-434l-10 -309h-139l-13 309h-444v1413h205v-1247h629v1247h206z" />
<glyph unicode="&#x410;" horiz-adv-x="1282" d="M922 426h-564l-131 -426h-209l443 1358q16 55 76 55h208q27 0 47.5 -14.5t26.5 -40.5l445 -1358h-211zM866 604l-164 537q-5 19 -17 57.5t-17 56.5h-56l-32 -114l-166 -537h452z" />
<glyph unicode="&#x411;" horiz-adv-x="1228" d="M379 813h278q266 0 369.5 -92t103.5 -328q0 -80 -11 -141.5t-30 -105t-53.5 -73.5t-71.5 -48t-95 -27.5t-112.5 -12.5t-135.5 -3q-239 0 -445 18h-4v1413q263 14 444 14q185 0 435 -14l-17 -172h-655v-428zM377 160l280 -2q85 0 134 9.5t80.5 38t42 74t10.5 123.5 q0 74 -10 118.5t-40 76t-81.5 43.5t-135.5 12h-278z" />
<glyph unicode="&#x412;" horiz-adv-x="1273" d="M877 737v-8q153 -13 217.5 -106.5t64.5 -270.5q0 -110 -24.5 -180.5t-81 -112.5t-139 -58.5t-209.5 -16.5q-346 0 -533 16v1413q176 17 471 17q135 0 221.5 -16.5t145 -59t82.5 -113t24 -180.5q0 -154 -56.5 -233t-182.5 -91zM633 1255h-260v-444h286q148 0 204.5 46.5 t56.5 178.5q0 130 -61.5 174.5t-225.5 44.5zM373 160l301 -2q161 0 219.5 46t58.5 183q0 155 -61.5 209.5t-228.5 56.5h-289v-493z" />
<glyph unicode="&#x413;" horiz-adv-x="1060" d="M434 1417q406 0 588 -18l-8 -158h-510q-72 0 -101.5 -31t-29.5 -110v-1100h-205v1139q0 124 75 201t191 77z" />
<glyph unicode="&#x414;" horiz-adv-x="1433" d="M1370 166v-475h-139l-21 309h-1005l-19 -309h-141v475h139q169 370 201 973q5 128 85 201t218 73h508v-1247h174zM991 166v1081h-266q-74 0 -105.5 -31t-37.5 -108q-20 -316 -64 -535.5t-137 -406.5h610z" />
<glyph unicode="&#x415;" horiz-adv-x="1148" d="M1040 170l9 -158q-186 -16 -607 -16q-131 0 -206.5 68.5t-75.5 185.5v913q0 117 76 185.5t206 68.5q421 0 607 -16l-9 -160h-563q-62 0 -87 -29.5t-25 -101.5v-283h596v-165h-596v-361q0 -72 25 -101.5t87 -29.5h563z" />
<glyph unicode="&#x416;" horiz-adv-x="1871" d="M1319 741v-8q54 -5 98 -23t80 -46t67.5 -70t58 -92.5t53 -117.5t52.5 -139.5t57 -164.5q18 -53 27 -80h-217q-109 304 -130 354q-74 181 -151 244q-64 54 -157 55h-133q12 -73 12 -145v-508h-194v508q0 59 14 145h-143q-43 0 -79.5 -12t-66.5 -34t-57 -57.5t-50.5 -78.5 t-48 -101.5t-48 -122t-52.5 -144.5q-24 -67 -37 -103h-215q108 315 142 396q80 193 172 267q73 59 178 70v8q-44 5 -81.5 18.5t-69 37.5t-58 52.5t-51 70t-45 84t-42 100t-40.5 111t-43 124.5q-16 49 -25 74h209q95 -266 131 -345q79 -172 171 -223q49 -26 108 -26h139 q-12 77 -12 160v434h194v-434q0 -96 -10 -160h127q49 0 90 16.5t75.5 53t62.5 78.5t57.5 109.5t52.5 128.5t56 152q4 12 6.5 19t6.5 17.5t7 19.5h209q-96 -282 -131 -363q-81 -188 -181 -257q-63 -43 -145 -52z" />
<glyph unicode="&#x417;" horiz-adv-x="1128" d="M504 1430q134 0 219.5 -16.5t143 -59t81 -113t23.5 -180.5q0 -154 -56.5 -233t-181.5 -91v-8q151 -13 215 -106.5t64 -270.5q0 -109 -24 -180t-80.5 -113t-137.5 -58.5t-205 -16.5q-293 0 -493 49l18 147q230 -28 440 -28q157 0 215 47t58 188q0 153 -62.5 208.5 t-224.5 55.5h-242v162h242q142 0 196 46.5t54 176.5q0 135 -58.5 181.5t-215.5 46.5q-129 0 -369 -25l-17 158q179 33 398 33z" />
<glyph unicode="&#x418;" horiz-adv-x="1421" d="M1249 0h-198v997q0 102 12 168h-12q-27 -75 -74 -159l-594 -1006h-211v1413h197v-987q0 -78 -13 -174h11q40 96 79 160l590 1001h213v-1413z" />
<glyph unicode="&#x419;" horiz-adv-x="1421" d="M877 1810h149q9 -124 -76 -205t-235 -81t-236.5 81t-77.5 205h150q0 -86 42.5 -132t121.5 -46t120.5 45.5t41.5 132.5zM1249 0h-198v997q0 102 12 168h-12q-33 -91 -74 -159l-594 -1006h-211v1413h197v-987q0 -97 -13 -174h13q30 83 77 160l590 1001h213v-1413z" />
<glyph unicode="&#x41a;" horiz-adv-x="1239" d="M686 741v-8q52 -5 95 -22.5t76.5 -41.5t65.5 -67t55.5 -85t52 -111t50.5 -128.5t55 -153.5q28 -81 44 -124h-215q-103 295 -126 351q-73 179 -153 243q-71 58 -176 59h-148q15 -92 15 -145v-508h-205v1413h205v-434q0 -64 -15 -160h142q145 0 239 134q67 95 148 329 q11 30 45 131h207q-96 -281 -128 -356q-80 -189 -177 -260q-65 -47 -152 -56z" />
<glyph unicode="&#x41b;" horiz-adv-x="1341" d="M1169 1413v-1413h-206v1247h-261q-69 0 -104 -34t-41 -105q-16 -181 -23 -251t-20 -183t-24.5 -166t-30 -117t-43.5 -119q-124 -282 -379 -276l-17 160q72 20 121.5 59.5t81.5 112.5q53 126 78 284t55 533q12 132 86 200t207 68h520z" />
<glyph unicode="&#x41c;" horiz-adv-x="1804" d="M1296 1413h224q39 0 60.5 -22t23.5 -62l57 -1329h-205l-49 1243h-41l-287 -1005q-18 -70 -88 -70h-178q-72 0 -90 70l-289 1005h-39l-47 -1243h-203l54 1329q2 40 23.5 62t60.5 22h227q64 0 86 -70l240 -827q26 -95 47 -190h37q19 91 49 192l237 825q22 70 90 70z" />
<glyph unicode="&#x41d;" horiz-adv-x="1372" d="M1200 1413v-1413h-207v666h-616v-666h-205v1413h205v-571h616v571h207z" />
<glyph unicode="&#x41e;" horiz-adv-x="1370" d="M684 1440q213 0 334 -68.5t176 -226t55 -438.5t-55 -439t-176 -226.5t-334 -68.5q-212 0 -332.5 68.5t-175.5 227t-55 438.5q0 211 29 349t97 225t173 123t264 36zM684 1257q-101 0 -166 -26.5t-106.5 -92t-58.5 -168.5t-17 -263q0 -213 32.5 -330.5t107 -169 t208.5 -51.5q135 0 210 51.5t107.5 169t32.5 330.5q0 160 -17 263t-58.5 168.5t-107 92t-167.5 26.5z" />
<glyph unicode="&#x41f;" horiz-adv-x="1374" d="M1202 1413v-1413h-205v1247h-620v-1247h-205v1413h1030z" />
<glyph unicode="&#x420;" horiz-adv-x="1212" d="M666 1432q134 0 218.5 -20.5t140.5 -73t78.5 -136.5t22.5 -217q0 -134 -22 -219t-76 -137t-134 -72t-206 -20q-151 0 -309 18v-555h-207v1413q185 19 494 19zM379 713h280q102 1 156.5 24.5t79.5 81t25 166.5q0 159 -55.5 214.5t-205.5 55.5q-202 0 -280 -2v-540z" />
<glyph unicode="&#x421;" d="M680 1438q131 0 214.5 -9t176.5 -32l-20 -158q-164 16 -371 16q-132 0 -205.5 -51t-106 -168.5t-32.5 -328.5q0 -127 11 -217t35 -155.5t65 -103.5t97 -55.5t136 -17.5q258 0 399 22l21 -155q-173 -50 -420 -50q-209 0 -329.5 71.5t-175 229.5t-54.5 431q0 205 29 342 t96.5 225t172 126t261.5 38z" />
<glyph unicode="&#x422;" horiz-adv-x="1196" d="M1149 1231h-449v-1231h-206v1231h-445v182h1100v-182z" />
<glyph unicode="&#x423;" horiz-adv-x="1161" d="M1143 1413l-375 -1063q-30 -83 -57.5 -139.5t-66.5 -109.5t-89.5 -81.5t-114.5 -33.5q-54 -4 -132.5 5t-133.5 25l23 150q59 -4 91 -6t69 0t54 4.5t39.5 14t32 22.5t25 36t25 48t26.5 65l23 60h-74q-61 0 -95.5 23.5t-54.5 78.5l-319 901h209l274 -801q13 -30 43 -30h78 l291 831h209z" />
<glyph unicode="&#x424;" horiz-adv-x="1683" d="M1589 721q-1 -161 -35 -269t-111.5 -180t-198 -106t-300.5 -41v-197h-205v197q-241 9 -380 69.5t-202 186t-63 340.5q0 165 33.5 275.5t111.5 183t198.5 106.5t301.5 41v197h203l2 -197q180 -7 300.5 -41t198.5 -107t111.5 -183.5t34.5 -274.5zM305 721 q0 -159 40.5 -246.5t135 -129t267.5 -48.5v860q-131 -5 -213.5 -28t-135 -75t-73.5 -130.5t-21 -202.5zM936 1157v-860q171 7 265 49t135 129.5t42 245.5q-1 163 -42 253.5t-135 133t-265 49.5z" />
<glyph unicode="&#x425;" horiz-adv-x="1261" d="M653 655h-49l-336 -655h-221l387 731l-360 682h219l309 -602h53l310 602h223l-363 -682l389 -731h-223z" />
<glyph unicode="&#x426;" horiz-adv-x="1423" d="M1358 166v-475h-139l-21 309h-1026v1413h205v-1247h602v1247h207v-1247h172z" />
<glyph unicode="&#x427;" horiz-adv-x="1288" d="M1118 1413v-1413h-205v633q-117 -63 -242.5 -94t-230.5 -31q-164 0 -242.5 79t-78.5 244v582h205v-541q-2 -96 42.5 -139t147.5 -43q101 0 190 22t209 76v625h205z" />
<glyph unicode="&#x428;" horiz-adv-x="1914" d="M1743 1413v-1413h-1571v1413h201v-1247h485v1247h199v-1247h485v1247h201z" />
<glyph unicode="&#x429;" horiz-adv-x="1966" d="M1903 166v-475h-140l-20 309h-1571v1413h201v-1247h479v1247h199v-1247h479v1247h201v-1247h172z" />
<glyph unicode="&#x42a;" horiz-adv-x="1531" d="M696 854h275q265 0 368 -96t103 -344q0 -127 -23.5 -209.5t-78.5 -132t-135.5 -69t-203.5 -19.5q-329 0 -512 16v1231h-442v182h649v-559zM696 164l275 -2q161 0 212.5 51t51.5 205q0 77 -10 124t-39 81t-80.5 47.5t-134.5 13.5h-275v-520z" />
<glyph unicode="&#x42b;" horiz-adv-x="1746" d="M377 854h278q266 0 369.5 -96.5t103.5 -343.5q0 -127 -23.5 -209.5t-79 -132t-135.5 -69t-202 -19.5q-329 0 -512 16h-4v1413h205v-559zM1577 1413v-1413h-205v1413h205zM377 164l278 -2q111 0 167 22t78 75t22 159q0 77 -10.5 124t-39.5 81t-81 47.5t-136 13.5h-278 v-520z" />
<glyph unicode="&#x42c;" horiz-adv-x="1218" d="M377 854h278q266 0 369.5 -96.5t103.5 -343.5q0 -127 -23.5 -209.5t-79 -132t-135.5 -69t-202 -19.5q-329 0 -512 16h-4v1413h205v-559zM377 164l278 -2q111 0 167 22t78 75t22 159q0 77 -10.5 124t-39.5 81t-81 47.5t-136 13.5h-278v-520z" />
<glyph unicode="&#x42d;" horiz-adv-x="1183" d="M489 1438q161 0 269 -38t177 -126t98.5 -225t29.5 -342t-29.5 -342t-98.5 -225.5t-177 -126.5t-269 -38q-240 0 -407 50l20 155q144 -20 390 -20q101 0 167.5 25t110 85.5t62 156t20.5 241.5h-598v159l596 2q-12 236 -92.5 330t-265.5 94q-210 0 -377 -16l-21 160 q168 41 395 41z" />
<glyph unicode="&#x42e;" horiz-adv-x="1910" d="M1223 1440q160 0 265.5 -36t174.5 -123t98 -225t29 -349q0 -280 -55.5 -438.5t-177 -227t-334.5 -68.5q-146 0 -243.5 33.5t-163.5 113.5t-96 208.5t-34 322.5h-307v-651h-205v1413h205v-596h309q9 236 66 371t168.5 193.5t300.5 58.5zM1223 156q134 0 208.5 51.5 t107.5 169t34 330.5q-1 160 -18 263t-59 168.5t-107 92t-166 26.5q-97 0 -159.5 -26.5t-102.5 -92t-56 -168.5t-16 -263q0 -213 31 -330.5t102.5 -169t200.5 -51.5z" />
<glyph unicode="&#x42f;" horiz-adv-x="1259" d="M596 1432q308 0 491 -19v-1413h-204v567q-74 -2 -285 -2q-71 0 -114 -33t-64 -108l-119 -424h-217l125 432q26 88 80 137t119 64l-2 10q-142 20 -204.5 112t-60.5 263q0 223 105.5 318.5t349.5 95.5zM883 741v512q-78 2 -283 2q-143 0 -198 -51.5t-56 -197.5 q0 -138 57 -201.5t193 -63.5h287z" />
<glyph unicode="&#x430;" horiz-adv-x="1136" d="M633 1026q181 0 267.5 -74t86.5 -256v-696h-158l-20 160q-70 -72 -173 -125t-226 -53q-140 0 -224 74t-84 208v105q0 119 74.5 184t210.5 65h401v78q-2 93 -43 127.5t-155 34.5q-116 0 -424 -24l-19 145q261 47 486 47zM303 342v-53q0 -73 35.5 -106t112.5 -33 q75 0 166 35t171 106v178h-364q-66 -3 -93.5 -35t-27.5 -92z" />
<glyph unicode="&#x431;" horiz-adv-x="1181" d="M975 1511l47 -155q-75 -46 -144.5 -67.5t-158 -35t-141.5 -28.5q-70 -20 -121 -54t-80.5 -78.5t-45.5 -86.5t-24 -93q-14 -81 -20 -147h4q16 34 33 59.5t48 54t69.5 47t97 30.5t131.5 12q220 0 309.5 -111.5t89.5 -368.5q0 -127 -20.5 -216t-71.5 -159t-143.5 -104.5 t-229.5 -34.5q-65 0 -119 7.5t-96.5 24t-77 36.5t-59.5 50.5t-44 61t-31 73.5t-20 81.5t-11.5 91t-5 97t-1.5 104.5q0 98 3.5 172.5t13.5 149.5t27 131t45 109t67.5 91t93.5 69t123 52q59 18 149 32.5t165 36t149 66.5zM618 801q-85 0 -140 -19t-84 -61.5t-39.5 -96.5 t-10.5 -137q0 -196 58 -271t202 -75q145 0 201.5 74t56.5 270q0 183 -52 249.5t-192 66.5z" />
<glyph unicode="&#x432;" horiz-adv-x="1136" d="M780 516v-6q135 -10 192.5 -74.5t57.5 -187.5q0 -151 -90 -206.5t-311 -55.5q-299 0 -473 12v999q168 13 417 13q238 0 330 -56t92 -211q0 -107 -51 -162.5t-164 -64.5zM563 856q-46 0 -120 1t-101 1v-272h246q124 0 171.5 28.5t47.5 110.5q0 77 -53 104t-191 27z M342 143l256 -2q132 0 182.5 30.5t50.5 117.5t-53.5 121t-189.5 34h-246v-301z" />
<glyph unicode="&#x433;" horiz-adv-x="956" d="M379 1006q361 0 534 -19l-6 -139h-444q-60 0 -87.5 -28t-27.5 -89v-731h-196v784q0 222 227 222z" />
<glyph unicode="&#x434;" horiz-adv-x="1216" d="M1147 160v-455h-131l-17 295h-794l-17 -295h-131v455h121q113 243 141 602q15 237 267 237h418v-839h143zM815 160v686h-197q-111 0 -120 -117q-25 -345 -142 -569h459z" />
<glyph unicode="&#x435;" horiz-adv-x="1112" d="M618 141q124 0 351 25l18 -131q-68 -30 -181 -45t-214 -15q-262 0 -372.5 119.5t-110.5 407.5q0 197 49.5 312t149 163.5t265.5 48.5q227 0 332 -84t107 -252q0 -138 -61 -212.5t-183 -74.5h-449q7 -81 27 -132.5t58.5 -80t87.5 -39t126 -10.5zM584 858q-101 0 -156 -26 t-82 -90.5t-31 -184.5h400q100 0 96 133q0 92 -50.5 130t-176.5 38z" />
<glyph unicode="&#x436;" horiz-adv-x="1628" d="M1171 524v-6q54 -6 94.5 -19.5t76 -48t58.5 -63.5t54 -100.5t50 -123t59 -163.5h-203q-92 234 -121 292q-54 104 -118 134q-38 17 -89 18h-137q10 -55 10 -94v-350h-176v350q0 39 10 94h-145q-46 -1 -80.5 -15.5t-62 -43t-54 -78t-52.5 -111.5t-62 -152q-11 -29 -17 -44 h-200q39 113 58 164t49.5 122.5t53.5 100.5t58.5 63.5t76 48t95.5 19.5v6q-59 7 -105 32t-74.5 48.5t-64 96.5t-51.5 113.5t-59 160.5l-9 24h199q25 -69 40 -107t36.5 -88.5t37.5 -76.5t38.5 -56t44.5 -44t50.5 -23.5t61.5 -9.5h137q-10 46 -10 115v290h176v-290 q0 -69 -10 -115h129q29 0 54 5.5t47.5 21t39.5 30.5t36 46.5t32 55.5t32.5 71.5t32 80t35.5 94.5h201q-81 -223 -115 -291q-60 -115 -142 -155q-45 -22 -106 -29z" />
<glyph unicode="&#x437;" horiz-adv-x="1026" d="M424 1018q131 0 212.5 -10.5t139.5 -40.5t81.5 -82t23.5 -135q0 -112 -47.5 -168t-161.5 -66v-6q131 -10 188.5 -72.5t57.5 -189.5q0 -82 -24 -134t-80 -81t-133 -40t-198 -11q-254 0 -407 32l14 150q208 -17 379 -17q143 0 193.5 28.5t50.5 113.5t-52 116t-190 31h-248 v146h246q126 0 170.5 29.5t44.5 113.5q0 75 -53 100t-203 25q-178 0 -303 -16l-16 149q130 35 315 35z" />
<glyph unicode="&#x438;" horiz-adv-x="1204" d="M1047 0h-179v633q0 27 2.5 75.5t3.5 63.5h-4q-21 -58 -71 -123l-482 -649h-159v999h176v-634q0 -63 -6 -136h6q38 78 69 119l484 651h160v-999z" />
<glyph unicode="&#x439;" horiz-adv-x="1204" d="M758 1442h149q9 -124 -76 -205.5t-235 -81.5t-236 81.5t-77 205.5h149q0 -86 42.5 -132t121.5 -46t120.5 45.5t41.5 132.5zM1049 0h-181v633q0 20 9 139h-7q-19 -51 -69 -123l-482 -649h-161v999h178v-634q0 -71 -8 -136h6q33 67 72 119l481 651h162v-999z" />
<glyph unicode="&#x43a;" horiz-adv-x="1105" d="M637 522v-4q34 -4 62 -10t54 -19t45.5 -24.5t40.5 -36t35.5 -42.5t33 -55.5t30.5 -63t32 -77.5t33 -87.5t37 -102.5h-206q-23 62 -34.5 92t-30.5 77.5t-29.5 69t-27.5 55.5t-29.5 48.5t-30.5 35.5t-35 29.5t-38.5 18.5t-45.5 13t-52 3h-135q8 -66 8 -92v-350h-196v999 h196v-288q0 -50 -10 -115h125q40 0 73.5 9t59 23t50 43t42 56t38.5 75.5t36 89t39 107.5h205q-84 -224 -120 -292q-60 -113 -143 -154q-47 -23 -112 -31z" />
<glyph unicode="&#x43b;" horiz-adv-x="1161" d="M1004 999v-999h-199v846h-201q-61 0 -87.5 -27t-35.5 -96q-2 -12 -8.5 -65.5t-9 -70.5t-9 -64.5t-10.5 -69.5t-11 -61.5t-13 -64.5t-14 -55t-17 -55q-73 -233 -330 -227l-20 151q80 18 115.5 46t58.5 85q47 127 82 486q14 122 79 181.5t193 59.5h437z" />
<glyph unicode="&#x43c;" horiz-adv-x="1542" d="M1090 999h202q35 0 54.5 -19t19.5 -54l41 -926h-184l-37 850h-33l-233 -674q-18 -63 -76 -63h-150q-56 0 -78 63l-231 674h-33l-35 -850h-182l39 926q0 73 76 73h201q57 0 75 -63l189 -551q25 -72 39 -143h30q2 8 16.5 62t22.5 81l189 551q22 63 78 63z" />
<glyph unicode="&#x43d;" horiz-adv-x="1198" d="M1042 999v-999h-196v455h-494v-455h-194v999h194v-393h494v393h196z" />
<glyph unicode="&#x43e;" horiz-adv-x="1173" d="M588 1026q261 0 369 -120t108 -408q0 -286 -108 -405.5t-369 -119.5t-370 119.5t-109 405.5q0 287 109 407.5t370 120.5zM588 858q-156 0 -213.5 -75t-57.5 -285q0 -207 57.5 -283t213.5 -76q154 0 212 76.5t58 282.5q0 143 -25.5 219.5t-82.5 108.5t-162 32z" />
<glyph unicode="&#x43f;" horiz-adv-x="1181" d="M1024 999v-999h-193v840h-481v-840h-192v999h866z" />
<glyph unicode="&#x440;" horiz-adv-x="1202" d="M750 1026q179 0 260.5 -134t81.5 -398q0 -283 -92.5 -401t-290.5 -118q-201 0 -361 101q9 -103 6 -203v-281h-196v1407h164l14 -153q78 81 192 130.5t222 49.5zM657 147q87 0 134.5 27.5t71.5 103.5t24 218q0 199 -46.5 278.5t-158.5 79.5q-74 0 -149.5 -34.5 t-178.5 -110.5v-508q11 -3 54.5 -14t55.5 -13.5t45.5 -10t51.5 -9.5t44.5 -4.5t51.5 -2.5z" />
<glyph unicode="&#x441;" horiz-adv-x="1013" d="M588 1026q199 0 330 -51l-25 -127q-153 10 -272 10q-116 0 -180 -31.5t-94 -108.5t-30 -218q0 -207 66.5 -283t237.5 -76q161 0 294 23l21 -133q-154 -56 -350 -56q-261 0 -369 118.5t-108 406.5q0 289 108.5 407.5t370.5 118.5z" />
<glyph unicode="&#x442;" horiz-adv-x="1011" d="M961 838h-355v-838h-198v838h-355v161h908v-161z" />
<glyph unicode="&#x443;" horiz-adv-x="1097" d="M1061 999l-389 -1046q-75 -208 -189 -297q-138 -104 -391 -66l19 140q159 -11 239 41q78 55 137 192l15 37h-43q-55 0 -70 51l-352 948h211l248 -727q28 -77 36 -122h29l41 122l246 727h213z" />
<glyph unicode="&#x444;" horiz-adv-x="1480" d="M1374 498q0 -265 -125 -386.5t-418 -134.5v-385h-182v385q-293 13 -418 134.5t-125 386.5q0 268 125 390.5t418 135.5v410h182v-410q293 -13 418 -135.5t125 -390.5zM299 498q0 -187 79 -265.5t277 -89.5v713q-199 -11 -277.5 -89.5t-78.5 -268.5zM825 856v-713 q198 11 277.5 89.5t79.5 265.5q0 189 -79.5 268t-277.5 90z" />
<glyph unicode="&#x445;" horiz-adv-x="1097" d="M567 442h-37l-270 -442h-215l326 516l-301 483h213l243 -403h45l244 403h213l-301 -483l326 -516h-215z" />
<glyph unicode="&#x446;" horiz-adv-x="1226" d="M1155 160v-455h-131l-18 295h-848v999h194v-839h465v839h199l-2 -839h141z" />
<glyph unicode="&#x447;" horiz-adv-x="1099" d="M944 999l-4 -999h-197v408q-97 -31 -201 -49.5t-175 -18.5q-258 0 -258 221v438h194v-370q0 -70 29.5 -98.5t99.5 -28.5q158 0 311 63v434h201z" />
<glyph unicode="&#x448;" horiz-adv-x="1660" d="M1503 999v-999h-1345v999h190v-839h391v839h179v-839h393v839h192z" />
<glyph unicode="&#x449;" horiz-adv-x="1718" d="M1647 160v-455h-131l-21 295h-1337v999h190v-839h393v839h177v-839h395v839h190v-839h144z" />
<glyph unicode="&#x44a;" horiz-adv-x="1298" d="M590 623h215q234 0 321.5 -69t87.5 -251q0 -93 -21 -154t-69 -96.5t-117 -50t-173 -14.5q-277 0 -437 12v844h-346v155h539v-376zM590 145l215 -2q119 0 163 34t44 134q0 95 -43 130.5t-164 35.5h-215v-332z" />
<glyph unicode="&#x44b;" horiz-adv-x="1497" d="M348 623h219q231 0 317.5 -69t86.5 -251q0 -181 -84 -248t-287 -67q-278 0 -438 12h-4v999h190v-376zM1339 999v-999h-198v999h198zM348 145l219 -2q117 0 160 33.5t43 134.5q0 95 -42 130.5t-161 35.5h-219v-332z" />
<glyph unicode="&#x44c;" horiz-adv-x="1060" d="M348 623h219q234 0 322 -69t88 -251q0 -181 -85.5 -248t-291.5 -67q-278 0 -438 12h-4v999h190v-376zM348 145l219 -2q120 0 164.5 34t44.5 134q0 95 -43.5 130.5t-165.5 35.5h-219v-332z" />
<glyph unicode="&#x44d;" horiz-adv-x="1046" d="M438 1014q277 0 387.5 -115t110.5 -405q0 -285 -111 -401t-387 -116q-215 0 -356 43l18 140q162 -13 338 -13q160 0 224 60t71 227h-504v150h502q-10 151 -75.5 208.5t-217.5 55.5q-192 0 -325 -10l-21 137q77 23 150.5 31t195.5 8z" />
<glyph unicode="&#x44e;" horiz-adv-x="1640" d="M1051 1026q136 0 224 -24t147 -85t83.5 -160.5t24.5 -254.5q0 -152 -24.5 -250.5t-83.5 -159.5t-147 -85.5t-224 -24.5q-123 0 -204.5 22t-137 75t-81 139.5t-30.5 219.5h-244v-438h-196v999h196v-407h244q7 127 34 210t83 133t136 70.5t200 20.5zM1047 147q158 0 217 76 t61 279q-1 205 -60.5 280.5t-217.5 75.5q-152 0 -207.5 -75t-55.5 -281q0 -203 55.5 -279t207.5 -76z" />
<glyph unicode="&#x44f;" horiz-adv-x="1120" d="M516 1012q290 0 449 -15v-997h-195v365h-258q-64 0 -105 -25.5t-53 -71.5l-73 -268h-205l90 301q12 41 45.5 70t69.5 40.5t77 16.5v8q-120 18 -171.5 85.5t-51.5 191.5q0 154 84 226.5t297 72.5zM770 512v338l-250 2q-119 0 -155.5 -34t-36.5 -134q0 -98 38.5 -135 t157.5 -37h246z" />
<glyph unicode="&#x451;" horiz-adv-x="1112" d="M430 1200h-68q-53 0 -53 53v111q0 55 53 55h68q51 0 51 -55v-111q0 -53 -51 -53zM793 1200h-66q-29 0 -42 12.5t-13 40.5v111q0 55 55 55h66q25 0 39 -14.5t14 -40.5v-111q0 -53 -53 -53zM618 141q124 0 351 25l18 -131q-68 -30 -181 -45t-214 -15q-262 0 -372.5 119.5 t-110.5 407.5q0 197 49.5 312t149 163.5t265.5 48.5q227 0 332 -84t107 -252q0 -138 -61 -212.5t-183 -74.5h-449q7 -81 27 -132.5t58.5 -80t87.5 -39t126 -10.5zM584 858q-101 0 -156 -26t-82 -90.5t-31 -184.5h400q100 0 96 133q0 92 -50.5 130t-176.5 38z" />
<glyph unicode="&#x452;" horiz-adv-x="1206" d="M823 827q272 0 275 -274v-563q0 -124 -54.5 -230.5t-148.5 -173.5l-111 86q61 73 88 147t27 169v508q0 85 -36 120t-126 35q-74 0 -150.5 -28.5t-185.5 -92.5v-530h-196v1006h-152v112h152v316h196l2 -316h369v-112h-369v-156q0 -89 -10 -174q223 151 430 151z" />
<glyph unicode="&#x453;" horiz-adv-x="956" d="M883 1360l-408 -240l-65 92l362 299zM379 1006q361 0 536 -19l-8 -139h-444q-60 0 -87.5 -28t-27.5 -89v-731h-196v784q0 222 227 222z" />
<glyph unicode="&#x454;" horiz-adv-x="1046" d="M946 160l19 -140q-141 -43 -357 -43q-276 0 -386.5 116t-110.5 401q0 290 110 405t387 115q122 0 195.5 -8t150.5 -31l-20 -137q-133 10 -326 10q-152 2 -217.5 -55.5t-75.5 -208.5h504v-150h-506q7 -166 71.5 -226.5t223.5 -60.5q176 0 338 13z" />
<glyph unicode="&#x455;" horiz-adv-x="1050" d="M496 1026q232 -3 426 -35l-15 -143q-318 10 -381 10h-61.5t-49.5 -1.5t-41.5 -4.5t-30 -8t-24 -13t-14.5 -20t-10 -27t-2 -36q0 -63 27.5 -85.5t103.5 -43.5l12 -3l283 -69q125 -34 179 -94.5t54 -186.5q0 -74 -17 -125t-48.5 -83t-87 -50t-120.5 -24.5t-161 -6.5 q-210 0 -397 29l14 148q124 -11 340 -11q168 0 226.5 24t58.5 99q0 26 -7 44.5t-15.5 29.5t-30.5 21t-36.5 14.5t-47.5 13.5q-10 3 -15 4l-278 70q-124 32 -176 97t-52 188q0 165 88 222.5t306 55.5z" />
<glyph unicode="&#x456;" horiz-adv-x="526" d="M217 1425h94q58 0 58 -57v-115q0 -59 -58 -59h-94q-59 0 -59 59v115q0 57 59 57zM362 0h-196v999h196v-999z" />
<glyph unicode="&#x457;" horiz-adv-x="526" d="M49 1419h66q53 0 53 -55v-111q0 -53 -53 -53h-66q-53 0 -53 53v111q0 55 53 55zM414 1419h63q55 0 55 -55v-111q0 -53 -55 -53h-63q-56 0 -56 53v111q0 55 56 55zM362 0h-196v999h196v-999z" />
<glyph unicode="&#x458;" horiz-adv-x="528" d="M219 1425h92q60 0 60 -57v-115q0 -59 -60 -59h-92q-59 0 -59 59v115q0 57 59 57zM365 999v-1009q0 -124 -54.5 -230.5t-148.5 -173.5l-109 86q59 74 86 149t27 169v1009h199z" />
<glyph unicode="&#x459;" horiz-adv-x="1656" d="M954 625h213q231 0 318.5 -69t87.5 -251q0 -95 -21.5 -156.5t-70.5 -97t-117.5 -49.5t-173.5 -14q-264 0 -424 12v850h-150q-58 0 -83 -20.5t-31 -73.5q-25 -225 -46 -341t-57 -210q-42 -113 -130.5 -165t-196.5 -46l-17 135q36 12 58.5 22t53.5 37.5t52 67.5 q40 79 57.5 179t45.5 358q21 206 239 206h393v-374zM954 145l205 -2q123 0 168 33t45 137q0 95 -42.5 131.5t-162.5 36.5h-213v-336z" />
<glyph unicode="&#x45a;" horiz-adv-x="1669" d="M965 623h215q233 0 319 -68t86 -250q0 -183 -84.5 -250t-290.5 -67q-272 0 -432 12v479h-438v-479h-182v999h182v-376h438v376h187v-376zM965 145l215 -2q117 0 160.5 34t43.5 136q0 95 -42 130.5t-162 35.5h-215v-334z" />
<glyph unicode="&#x45b;" horiz-adv-x="1206" d="M823 827q136 0 205.5 -69.5t69.5 -204.5v-553h-199v496q0 86 -35.5 120.5t-126.5 34.5q-74 0 -150.5 -28.5t-185.5 -92.5v-530h-196v1006h-152v112h152v316h196l2 -316h369v-112h-369v-156q0 -89 -10 -174q223 151 430 151z" />
<glyph unicode="&#x45c;" horiz-adv-x="1105" d="M498 1120l-66 92l363 299l110 -151zM637 522v-4q34 -4 62 -10t54 -19t45.5 -24.5t40.5 -36t35.5 -42.5t33 -55.5t30.5 -63t32 -77.5t33 -87.5t37 -102.5h-206q-23 62 -34.5 92t-30.5 77.5t-29.5 69t-27.5 55.5t-29.5 48.5t-30.5 35.5t-35 29.5t-38.5 18.5t-45.5 13t-52 3 h-135q8 -66 8 -92v-350h-196v999h196v-288q0 -66 -10 -115h125q35 0 64.5 5.5t54.5 20.5t45 30.5t40 45.5t34.5 55t33 70.5t32 80.5t34.5 95h205q-84 -224 -120 -292q-60 -113 -143 -154q-47 -23 -112 -31z" />
<glyph unicode="&#x45d;" horiz-adv-x="1204" d="M702 1212l-65 -92l-408 240l111 151zM1049 0h-181v633q0 20 9 139h-7q-19 -51 -69 -123l-482 -649h-161v999h178v-634q0 -71 -8 -136h6q33 67 72 119l481 651h162v-999z" />
<glyph unicode="&#x45e;" horiz-adv-x="1097" d="M549 1155q-151 0 -238 82.5t-78 206.5h150q0 -88 42 -134t124 -46q78 0 119 46t41 134h149q9 -124 -76 -206.5t-233 -82.5zM1061 999l-387 -1046q-81 -211 -191 -297q-138 -104 -391 -66l19 140q159 -11 239 41q82 55 137 192l15 37h-41q-58 0 -70 51l-354 948h211 l250 -727q23 -65 34 -122h31q29 84 41 122l244 727h213z" />
<glyph unicode="&#x45f;" horiz-adv-x="1191" d="M1036 999v-999h-358l-16 -338h-134l-16 338h-354v999h194l4 -839h480l2 839h198z" />
<glyph unicode="&#x490;" horiz-adv-x="1075" d="M1034 1724v-342l-8 -141h-522q-72 0 -101.5 -31t-29.5 -110v-1100h-205v1139q0 124 75 201t191 77q300 0 445 -14l22 321h133z" />
<glyph unicode="&#x491;" horiz-adv-x="960" d="M918 1298v-311l-9 -139h-446q-59 0 -86 -28t-27 -89v-731h-196v784q0 222 227 222q239 0 385 -7l20 299h132z" />
<glyph unicode="&#x4b0;" horiz-adv-x="1198" d="M1006 449h-304v-449h-204v449h-301v120h262l-428 844h219l282 -579q21 -42 62 -164h16q29 97 62 161l282 582h213l-424 -844h261z" />
<glyph unicode="&#x4b1;" horiz-adv-x="1204" d="M743 160h265v-125h-303v-443h-203v443h-305v125h264l-428 839h217l282 -573q31 -63 62 -162h16q31 99 62 162l282 573h217z" />
<glyph unicode="&#x4b6;" horiz-adv-x="1349" d="M1288 141v-450h-139l-21 309h-213v621q-118 -57 -241.5 -85t-224.5 -28q-169 0 -249.5 79.5t-80.5 243.5v582h207v-541q-3 -98 42.5 -142t151.5 -44q101 0 188.5 22t206.5 78v627h205v-1272h168z" />
<glyph unicode="&#x4b7;" horiz-adv-x="1155" d="M1083 160v-455h-131l-18 295h-191v408q-97 -31 -201 -49.5t-175 -18.5q-258 0 -258 221v438h194v-370q0 -70 29.5 -98.5t99.5 -28.5q158 0 311 63v434h201l-4 -839h143z" />
<glyph unicode="&#x4ba;" horiz-adv-x="1290" d="M842 905q168 0 248.5 -79t80.5 -244v-582h-204v541q2 99 -44 142.5t-153 43.5q-99 0 -190.5 -22t-202.5 -76v-629h-205v1413h205v-618q112 54 239.5 82t225.5 28z" />
<glyph unicode="&#x4c0;" horiz-adv-x="550" d="M379 0h-205v1413h205v-1413z" />
<glyph unicode="&#x1e80;" horiz-adv-x="1947" d="M1081 1577l-65 -92l-408 239l111 152zM1884 1413l-270 -1354q-6 -26 -27.5 -42.5t-50.5 -16.5h-229q-29 0 -50.5 16.5t-27.5 44.5l-205 1039l-31 160h-41l-30 -160l-203 -1039q-6 -28 -28 -44.5t-52 -16.5h-229q-29 0 -51.5 16.5t-26.5 42.5l-271 1354h218l200 -1077 q16 -85 27 -180h47q9 77 31 180l202 1010q5 30 25.5 48.5t52.5 18.5h219q29 0 50 -19t26 -48l203 -1012q21 -105 29 -178h49q20 145 26 176l203 1081h215z" />
<glyph unicode="&#x1e81;" horiz-adv-x="1691" d="M952 1212l-65 -92l-408 240l111 151zM1647 999l-283 -944q-6 -26 -26 -40.5t-48 -14.5h-178q-28 0 -50 17t-28 46l-145 658q-26 139 -31 160h-24q-16 -86 -33 -160l-144 -658q-6 -29 -27 -46t-50 -17h-174q-28 0 -49 14.5t-27 40.5l-283 944h205l192 -720q21 -75 33 -154 h27q5 26 16.5 77.5t16.5 76.5l147 659q6 28 25.5 44.5t48.5 16.5h178q29 0 48.5 -17t25.5 -46l145 -657q30 -127 35 -154h27q27 141 30 154l195 720h205z" />
<glyph unicode="&#x1e82;" horiz-adv-x="1947" d="M1309 1724l-408 -239l-65 92l362 299zM1884 1413l-270 -1354q-6 -26 -27.5 -42.5t-50.5 -16.5h-229q-29 0 -50.5 16.5t-27.5 44.5l-205 1039l-31 160h-41l-30 -160l-203 -1039q-6 -28 -28 -44.5t-52 -16.5h-229q-29 0 -51.5 16.5t-26.5 42.5l-271 1354h218l200 -1077 q16 -85 27 -180h47q9 77 31 180l202 1010q5 30 25.5 48.5t52.5 18.5h219q29 0 50 -19t26 -48l203 -1012q21 -105 29 -178h49q20 145 26 176l203 1081h215z" />
<glyph unicode="&#x1e83;" horiz-adv-x="1691" d="M1180 1360l-408 -240l-65 92l362 299zM1647 999l-283 -944q-6 -26 -26 -40.5t-48 -14.5h-178q-28 0 -50 17t-28 46l-145 658q-26 139 -31 160h-24q-16 -86 -33 -160l-144 -658q-6 -29 -27 -46t-50 -17h-174q-28 0 -49 14.5t-27 40.5l-283 944h205l192 -720 q21 -75 33 -154h27q5 26 16.5 77.5t16.5 76.5l147 659q6 28 25.5 44.5t48.5 16.5h178q29 0 48.5 -17t25.5 -46l145 -657q30 -127 35 -154h27q27 141 30 154l195 720h205z" />
<glyph unicode="&#x1e84;" horiz-adv-x="1947" d="M762 1786h65q54 0 54 -55v-111q0 -55 -54 -55h-65q-28 0 -40.5 13t-12.5 42v111q0 55 53 55zM1124 1786h66q26 0 40.5 -15t14.5 -40v-111q0 -55 -55 -55h-66q-28 0 -40.5 13t-12.5 42v111q0 55 53 55zM1884 1413l-270 -1354q-6 -26 -27.5 -42.5t-50.5 -16.5h-229 q-29 0 -50.5 16.5t-27.5 44.5l-205 1039l-31 160h-41l-30 -160l-203 -1039q-6 -28 -28 -44.5t-52 -16.5h-229q-29 0 -51.5 16.5t-26.5 42.5l-271 1354h218l200 -1077q16 -85 27 -180h47q9 77 31 180l202 1010q5 30 25.5 48.5t52.5 18.5h219q29 0 50 -19t26 -48l203 -1012 q21 -105 29 -178h49q20 145 26 176l203 1081h215z" />
<glyph unicode="&#x1e85;" horiz-adv-x="1691" d="M633 1421h65q54 0 54 -55v-111q0 -55 -54 -55h-65q-28 0 -40.5 13t-12.5 42v111q0 55 53 55zM995 1421h66q26 0 40.5 -15t14.5 -40v-111q0 -55 -55 -55h-66q-28 0 -40.5 13t-12.5 42v111q0 55 53 55zM1647 999l-283 -944q-6 -26 -26 -40.5t-48 -14.5h-178q-28 0 -50 17 t-28 46l-145 658q-26 139 -31 160h-24q-16 -86 -33 -160l-144 -658q-6 -29 -27 -46t-50 -17h-174q-28 0 -49 14.5t-27 40.5l-283 944h205l192 -720q21 -75 33 -154h27q5 26 16.5 77.5t16.5 76.5l147 659q6 28 25.5 44.5t48.5 16.5h178q29 0 48.5 -17t25.5 -46l145 -657 q30 -127 35 -154h27q27 141 30 154l195 720h205z" />
<glyph unicode="&#x1ef2;" horiz-adv-x="1175" d="M627 1487l-408 239l111 152l362 -299zM690 489v-489h-205v494l-467 919h218l284 -579q21 -42 62 -164h14q38 112 61 161l285 582h213z" />
<glyph unicode="&#x1ef3;" horiz-adv-x="1091" d="M592 1120l-408 240l111 151l362 -299zM1057 999l-389 -1046q-21 -58 -47.5 -107.5t-67 -99t-88.5 -85t-114 -58t-142 -23.5l-19 131q117 35 185 96t108 156l15 37h-41q-58 0 -70 51l-354 948h211l250 -727q23 -65 34 -122h29l41 122l246 727h213z" />
<glyph unicode="&#x2000;" horiz-adv-x="960" />
<glyph unicode="&#x2001;" horiz-adv-x="1921" />
<glyph unicode="&#x2002;" horiz-adv-x="960" />
<glyph unicode="&#x2003;" horiz-adv-x="1921" />
<glyph unicode="&#x2004;" horiz-adv-x="640" />
<glyph unicode="&#x2005;" horiz-adv-x="480" />
<glyph unicode="&#x2006;" horiz-adv-x="320" />
<glyph unicode="&#x2007;" horiz-adv-x="320" />
<glyph unicode="&#x2008;" horiz-adv-x="240" />
<glyph unicode="&#x2009;" horiz-adv-x="384" />
<glyph unicode="&#x200a;" horiz-adv-x="106" />
<glyph unicode="&#x2010;" horiz-adv-x="905" d="M764 442h-623v152h623v-152z" />
<glyph unicode="&#x2011;" horiz-adv-x="905" d="M764 442h-623v152h623v-152z" />
<glyph unicode="&#x2012;" horiz-adv-x="905" d="M764 442h-623v152h623v-152z" />
<glyph unicode="&#x2013;" horiz-adv-x="1200" d="M1059 442h-918v152h918v-152z" />
<glyph unicode="&#x2014;" horiz-adv-x="1820" d="M1677 442h-1536v152h1536v-152z" />
<glyph unicode="&#x2018;" horiz-adv-x="452" d="M254 1006h-57q-40 0 -55 14.5t-15 52.5v119q3 169 78 301l92 -25q-21 -114 -21 -229q26 0 40.5 -15.5t13.5 -41.5v-109q-1 -38 -18.5 -52.5t-57.5 -14.5z" />
<glyph unicode="&#x2019;" horiz-adv-x="446" d="M195 1479h57q41 0 56.5 -14.5t13.5 -51.5l2 -121q-3 -160 -78 -301l-94 25q22 107 22 229q-26 0 -40.5 15.5t-14.5 42.5v110q3 36 20 51t56 15z" />
<glyph unicode="&#x201a;" horiz-adv-x="475" d="M211 236h57q41 0 56.5 -14.5t13.5 -51.5l2 -121q-3 -163 -78 -301l-94 25q22 123 22 229q-26 0 -40.5 15.5t-14.5 41.5v111q1 36 19 51t57 15z" />
<glyph unicode="&#x201c;" horiz-adv-x="780" d="M254 1006h-57q-40 0 -55 14.5t-15 52.5v119q3 169 78 301l92 -25q-21 -114 -21 -229q26 0 40.5 -15.5t13.5 -41.5v-109q-1 -38 -18.5 -52.5t-57.5 -14.5zM582 1006h-58q-40 0 -54 14.5t-13 52.5l-2 119q3 165 77 301l95 -25q-23 -109 -23 -229q26 0 40.5 -15.5 t14.5 -41.5l-2 -109q-1 -38 -18 -52.5t-57 -14.5z" />
<glyph unicode="&#x201d;" horiz-adv-x="774" d="M195 1479h57q41 0 56.5 -14.5t13.5 -51.5l2 -121q-3 -160 -78 -301l-94 25q22 107 22 229q-26 0 -40.5 15.5t-14.5 42.5v110q3 36 20 51t56 15zM522 1479h60q40 0 54.5 -14.5t12.5 -51.5l2 -121q-3 -160 -78 -301l-94 25q23 112 23 229q-26 0 -41 16t-15 42v110 q3 36 20 51t56 15z" />
<glyph unicode="&#x201e;" horiz-adv-x="802" d="M211 236h57q40 0 55.5 -14.5t14.5 -51.5l2 -121q-3 -163 -78 -301l-94 25q22 123 22 229q-26 0 -40.5 15.5t-14.5 41.5v111q1 36 19 51t57 15zM539 236h57q40 0 55.5 -14.5t14.5 -51.5l2 -121q-3 -163 -78 -301l-94 25q22 123 22 229q-26 0 -40.5 15.5t-14.5 41.5v111 q3 36 20 51t56 15z" />
<glyph unicode="&#x2020;" horiz-adv-x="935" d="M557 -225h-178l8 1102v114l-8 424h180l-10 -424v-114zM82 827v172h266v-149zM854 999v-172l-266 23v149h266z" />
<glyph unicode="&#x2021;" horiz-adv-x="1013" d="M588 995v-805l8 -415h-178l8 415v805l-8 420h178zM387 850l-266 -23v172h266v-149zM893 827l-266 23v149h266v-172zM387 340v-150h-266v172zM893 190h-266v150l266 22v-172z" />
<glyph unicode="&#x2022;" horiz-adv-x="747" d="M365 741h26q98 0 137 -39t39 -137v-26q0 -104 -39 -144.5t-137 -40.5h-26q-104 0 -144.5 40.5t-40.5 144.5v26q0 98 40.5 137t144.5 39z" />
<glyph unicode="&#x2026;" horiz-adv-x="1761" d="M199 254h65q40 0 56 -16t16 -56v-108q0 -41 -16 -57.5t-56 -16.5h-65q-40 0 -56 16.5t-16 57.5v108q0 40 16 56t56 16zM840 254h65q41 0 57.5 -16t16.5 -56v-108q0 -41 -16.5 -57.5t-57.5 -16.5h-65q-40 0 -56 16.5t-16 57.5v108q0 40 16 56t56 16zM1483 254h65 q40 0 56 -16t16 -56v-108q0 -41 -16 -57.5t-56 -16.5h-65q-40 0 -57 16.5t-17 57.5v108q0 39 17 55.5t57 16.5z" />
<glyph unicode="&#x202f;" horiz-adv-x="384" />
<glyph unicode="&#x2030;" horiz-adv-x="2605" d="M424 1440q185 0 259.5 -95.5t74.5 -324.5q0 -228 -75 -324t-259 -96t-259 96t-75 324q0 229 74.5 324.5t259.5 95.5zM532 0h-139l903 1413h140zM422 1317q-103 0 -141.5 -64t-38.5 -233q0 -170 38.5 -233.5t141.5 -63.5q105 0 143.5 63t38.5 234q0 170 -38.5 233.5 t-143.5 63.5zM1411 819q183 0 257.5 -96t74.5 -324q0 -229 -74.5 -324t-257.5 -95q-185 0 -259.5 95t-74.5 324q0 228 75 324t259 96zM2177 819q184 0 258 -96t74 -324q0 -229 -74 -324t-258 -95t-258 95t-74 324q0 228 74 324t258 96zM1409 694q-104 0 -142.5 -63 t-37.5 -232q-2 -168 37 -232.5t143 -64.5t143 64.5t39 232.5q0 169 -39 232t-143 63zM2175 694q-103 0 -141.5 -63t-38.5 -232q0 -168 39 -232.5t141 -64.5q105 0 144.5 64.5t39.5 232.5q0 169 -39 232t-145 63z" />
<glyph unicode="&#x2039;" horiz-adv-x="606" d="M512 874l-250 -360l252 -367l-104 -69l-330 414v45l328 405z" />
<glyph unicode="&#x203a;" horiz-adv-x="610" d="M528 537v-45l-329 -414l-107 69l252 367l-250 360l107 68z" />
<glyph unicode="&#x2044;" horiz-adv-x="327" d="M-217 0h-141l903 1413h139z" />
<glyph unicode="&#x205f;" horiz-adv-x="480" />
<glyph unicode="&#x20ac;" horiz-adv-x="1304" d="M1182 182l22 -157q-155 -50 -368 -50q-272 0 -404.5 135.5t-159.5 417.5h-170v121h162v58q0 57 2 86h-162v120h170q31 267 164 396t398 129q188 0 342 -41l-21 -162q-164 29 -334 18q-148 -6 -227 -88.5t-104 -251.5h507l-14 -120h-506q-2 -29 -2 -91v-53h447l-15 -121 h-424q22 -186 102 -275t236 -93q194 -10 359 22z" />
<glyph unicode="&#x2122;" horiz-adv-x="1980" d="M803 1425v-116h-264v-662h-142v662h-264v116h670zM1835 647h-131l-31 670h-24l-172 -529q-16 -45 -60 -45h-102q-44 0 -60 45l-172 529h-24l-29 -670h-131l31 723q3 55 53 55h145q40 0 56 -45l143 -432q4 -13 13 -51t16 -59h20q6 18 15.5 56t15.5 56l139 430q15 45 58 45 h147q50 0 53 -55z" />
<glyph unicode="&#x2202;" horiz-adv-x="1173" d="M262 1288v152q132 1 230 -6.5t187.5 -28t150.5 -57t109.5 -93t74.5 -136.5t37 -186t4 -243q-9 -176 -39 -304t-89 -222.5t-154 -141.5t-228 -47q-102 0 -181.5 28t-129 75t-80 111.5t-41.5 133t-7 144.5q10 203 118.5 330.5t310.5 126.5q200 -3 321 -150 q5 158 -18.5 253.5t-93 156t-182 82.5t-300.5 22zM549 152q66 0 116 25t82 66.5t53.5 108t32 136.5t17.5 165q-125 103 -272 103q-262 0 -275 -289q-6 -144 54.5 -229.5t191.5 -85.5z" />
<glyph unicode="&#x2205;" horiz-adv-x="1402" d="M702 1296q122 0 232.5 -47.5t190.5 -127.5t127.5 -190.5t47.5 -232.5t-47.5 -233.5t-127.5 -191.5t-190.5 -127.5t-232.5 -47.5t-233.5 47.5t-191.5 127.5t-127.5 191.5t-47.5 233.5t47.5 232.5t127.5 190.5t191.5 127.5t233.5 47.5zM702 1116q-39 0 -68.5 -1t-56 -3.5 t-39.5 -4.5t-42.5 -6.5t-42.5 -6.5l6 -93q130 19 243 19q64 0 100 -25t36 -69q0 -36 -20.5 -72.5t-50 -70.5t-58.5 -72.5t-49.5 -95t-20.5 -121.5h111q0 59 20 108.5t48 84t56 68t48 77t20 94.5q0 190 -240 190zM735 350h-80q-14 0 -14 -16v-76q0 -14 14 -14h80q17 0 17 14 v76q0 16 -17 16z" />
<glyph unicode="&#x220f;" horiz-adv-x="1474" d="M1399 1245h-207v-1454h-197v1454h-514v-1454h-198v1454h-207v168h1323v-168z" />
<glyph unicode="&#x2211;" horiz-adv-x="1212" d="M1090 1247h-744l332 -540l-361 -775h793v-165h-1012v165l359 775l-334 540v166h967v-166z" />
<glyph unicode="&#x2212;" horiz-adv-x="1198" d="M1051 530h-906v148h906v-148z" />
<glyph unicode="&#x221a;" horiz-adv-x="1163" d="M1120 1794l-512 -1778q-6 -16 -26 -16h-234q-23 0 -26 16l-259 983h166l222 -866h26l475 1661h168z" />
<glyph unicode="&#x221e;" horiz-adv-x="1593" d="M1190 918q124 0 204.5 -72t80.5 -211q0 -143 -88 -223t-222 -80q-194 0 -366 184q-180 -184 -375 -184q-130 0 -217.5 80.5t-87.5 222.5q0 140 83.5 211.5t215.5 71.5q115 0 207 -52t174 -143q191 195 391 195zM457 477q76 0 133 36.5t121 109.5q-44 52 -74 79t-80 48.5 t-111 21.5q-157 0 -157 -141q0 -76 44 -115t124 -39zM1139 477q78 0 122 39.5t44 114.5q0 71 -40.5 106t-113.5 35q-37 0 -70.5 -10t-56.5 -21.5t-51 -36.5t-42 -40.5t-42 -47.5q108 -139 250 -139z" />
<glyph unicode="&#x222b;" horiz-adv-x="753" d="M477 1462q135 0 211 -8l-12 -141h-133q-71 0 -100 -35.5t-25 -122.5l94 -1337q8 -140 -49 -206.5t-195 -66.5q-137 0 -202 9l12 141h129q73 0 102 37t25 125l-92 1333q-7 134 53.5 203t181.5 69z" />
<glyph unicode="&#x2248;" horiz-adv-x="1200" d="M356 922q68 -3 235.5 -58.5t239.5 -58.5q48 -2 66 19.5t18 86.5h134q38 -259 -209 -256q-75 1 -241 58.5t-230 60.5q-48 2 -66 -21.5t-18 -88.5h-131q-21 135 35.5 198t166.5 60zM356 530q68 -3 235.5 -59t239.5 -59q48 -2 66 20t18 86h134q19 -129 -33.5 -192.5 t-175.5 -61.5q-75 1 -241 57.5t-230 59.5q-48 2 -66 -21t-18 -90h-131q-21 137 35.5 200t166.5 60z" />
<glyph unicode="&#x2260;" horiz-adv-x="1261" d="M733 743l-172 -284h529v-148h-619l-154 -252l-57 29l135 223h-211v148h299l174 284h-473v148h561l136 223l59 -31l-117 -192h267v-148h-357z" />
<glyph unicode="&#x2264;" horiz-adv-x="1153" d="M999 948l-671 -203l671 -186v-158l-843 265v157l843 283v-158zM1016 152h-883v145h883v-145z" />
<glyph unicode="&#x2265;" horiz-adv-x="1153" d="M997 823v-157l-843 -265v158l671 186l-671 203v158zM1020 152h-883v145h883v-145z" />
<glyph unicode="&#x25ca;" horiz-adv-x="1173" d="M604 1415l502 -688q8 -19 0 -37l-502 -692q-16 -23 -33 0l-503 692q-8 18 0 37l503 688q17 23 33 0zM229 709l359 -514l356 514l-356 510z" />
<glyph unicode="&#x25fc;" horiz-adv-x="1003" d="M0 1004h1004v-1004h-1004v1004z" />
<glyph unicode="&#xfb00;" horiz-adv-x="1476" d="M1491 1307h-201q-93 0 -130.5 -35.5t-37.5 -120.5v-152h310v-153h-310v-846h-200v846h-488v-846h-198v846h-181v143l181 10v152q0 141 74 218t222 77q154 0 252 -14l-16 -148h-166q-96 0 -132 -32t-36 -124v-129h488v175q0 145 70 219.5t227 74.5q195 0 288 -14z" />
<glyph unicode="&#xfb01;" horiz-adv-x="1265" d="M1104 999v-999h-197v846h-473v-846h-198v846h-181v143l181 10v150q0 159 68.5 239t227.5 80q156 0 240 -14v-147h-170q-93 0 -130.5 -40.5t-37.5 -140.5v-127h670zM956 1425h95q57 0 57 -57v-115q0 -59 -57 -59h-95q-59 0 -59 59v115q0 57 59 57z" />
<glyph unicode="&#xfb02;" horiz-adv-x="1390" d="M1350 135l22 -127q-28 -12 -87 -19t-105 -7q-118 0 -185 62t-67 175v1090h-328q-92 1 -130 -40.5t-38 -142.5v-127h291v-153h-291v-846h-199v846h-180v143l180 10v150q0 159 70 239.5t227 79.5q450 0 596 -24v-1180q0 -63 33 -96t96 -33h95z" />
<glyph unicode="&#xfb03;" horiz-adv-x="1931" d="M1772 999v-999h-197v846h-471v-846h-199v846h-489v-846h-199v846h-162v143l162 8v154q0 141 74.5 218t222.5 77q156 0 254 -14l-16 -148h-168q-95 0 -131.5 -32t-36.5 -124v-129h489v150q0 159 69 239t228 80q160 0 244 -14v-147h-174q-93 0 -130.5 -40.5t-37.5 -140.5 v-127h668zM1626 1425h92q60 0 60 -57v-115q0 -59 -60 -59h-92q-59 0 -59 59v115q0 57 59 57z" />
<glyph unicode="&#xfb04;" horiz-adv-x="2080" d="M2038 135l22 -127q-28 -12 -87 -19t-105 -7q-118 0 -185 62t-67 175v1090h-326q-93 1 -130.5 -40t-37.5 -143v-127h291v-153h-291v-846h-200v846h-488v-846h-198v846h-181v143l181 10v152q0 141 74 218t222 77q154 0 252 -14l-16 -148h-166q-96 0 -132 -32t-36 -124v-129 h488v150q0 159 70 239.5t227 79.5q450 0 596 -24v-1180q0 -63 33 -96t96 -33h94z" />
<glyph unicode="&#xfb06;" horiz-adv-x="1769" d="M1405 846v-557q0 -70 29.5 -98.5t101.5 -28.5h145l23 -154q-95 -26 -236 -26q-127 0 -193.5 72t-66.5 208v584h-684q-40 0 -61.5 -0.5t-49.5 -1.5t-41.5 -3.5t-30.5 -7.5t-24 -12t-14.5 -17.5t-9.5 -24t-2 -31.5q0 -63 27.5 -85.5t101.5 -43.5l12 -3l283 -69 q85 -22 133.5 -53.5t74 -86.5t25.5 -141q0 -74 -17 -125t-48.5 -83t-87 -50t-120.5 -24.5t-161 -6.5q-210 0 -397 29l14 148q127 -11 342 -11q168 0 225.5 24t57.5 99q0 26 -7 44.5t-15.5 29.5t-30.5 21t-36.5 14.5t-47.5 13.5q-10 3 -15 4l-278 70q-124 32 -176 97t-52 188 q0 149 89 201t307 50h714v293h197v-293h309v-153h-309z" />
<glyph horiz-adv-x="1716" d="M1352 846v-557q0 -70 29.5 -98.5t101.5 -28.5h145l23 -154q-95 -26 -236 -26q-127 0 -193.5 72t-66.5 208v584h-537q-173 0 -239 -73t-66 -273q0 -141 29.5 -218t93 -109t178.5 -32q150 0 273 23l18 -133q-142 -56 -325 -56q-260 0 -367 118.5t-107 406.5 q0 270 115 384.5t363 114.5h571v293h197v-293h309v-153h-309z" />
<glyph horiz-adv-x="2496" d="M2462 999l-387 -1046q-21 -58 -47.5 -107.5t-67 -99t-88.5 -85t-114 -58t-142 -23.5l-19 131q117 35 185 96t106 156l15 37h-41q-55 0 -70 51l-266 711q-29 84 -119 84h-285v-846h-198v846h-490v-846h-198v846h-181v143l181 10v152q0 141 74 218t222 77q154 0 252 -14 l-16 -148h-166q-96 0 -132 -32t-36 -124v-129h490v175q0 146 69 220t228 74q195 0 288 -14l-16 -147h-203q-92 0 -130 -35.5t-38 -120.5v-152h322q105 0 171.5 -47.5t100.5 -146.5l182 -533q25 -68 37 -122h29q35 103 41 122l244 727h213z" />
<glyph horiz-adv-x="1482" d="M1120 846v-557q0 -71 28.5 -99t100.5 -28h146l22 -154q-95 -26 -233 -26q-128 0 -195 72t-67 208v584h-488v-846h-198v846h-181v143l181 10v175q0 146 69 220t227 74q182 0 271 -14l-17 -147h-184q-93 0 -130.5 -35.5t-37.5 -120.5v-152h488v293h198v-293h310v-153h-310z " />
<glyph horiz-adv-x="1808" d="M1774 999l-388 -1046q-141 -368 -458 -373l-21 131q118 36 186.5 97t106.5 155l14 37h-40q-55 0 -70 51l-266 711q-29 84 -119 84h-285v-846h-198v846h-181v143l181 10v175q0 146 69 220t227 74q193 0 289 -14l-16 -147h-203q-93 0 -130.5 -35.5t-37.5 -120.5v-152h322 q105 0 171.5 -47.5t98.5 -146.5l184 -533q26 -71 35 -122h29l39 116l248 733h213z" />
<glyph horiz-adv-x="1515" d="M1151 846v-557q0 -70 29.5 -98.5t101.5 -28.5h145l23 -154q-95 -26 -236 -26q-127 0 -193.5 72t-66.5 208v584h-524v-557q0 -70 29.5 -98.5t101.5 -28.5h146l22 -154q-95 -26 -235 -26q-127 0 -194 72.5t-67 207.5v584h-182v143l182 10v293h197v-293h524v293h197v-293 h309v-153h-309z" />
<glyph horiz-adv-x="1851" d="M1817 999l-387 -1046q-141 -368 -459 -373l-21 131q118 35 185.5 96t107.5 156l14 37h-40q-55 0 -70 51l-266 711q-29 84 -119 84h-332v-557q0 -70 29.5 -98.5t101.5 -28.5h146l22 -154q-95 -26 -235 -26q-127 0 -194 72.5t-67 207.5v584h-182v143l182 10v293h197v-293 h369q206 0 270 -192l184 -535q26 -71 35 -122h29q7 23 21.5 64t19.5 56l246 729h213z" />
<glyph horiz-adv-x="774" d="M551 1425h149q9 -124 -76 -205t-235 -81t-236 81t-77 205h149q0 -86 42.5 -132t121.5 -46t120.5 45.5t41.5 132.5z" />
</font>
</defs>
</svg>
